<?xml version="1.0" standalone="no"?>
  <!DOCTYPE svg PUBLIC "-//W3C//DTD SVG 1.1//EN" "http://www.w3.org/Graphics/SVG/1.1/DTD/svg11.dtd" >
  <svg>
  <metadata>
  Created by font-carrier
  </metadata>
  <defs>
  <font id="BebasNeueLight" horiz-adv-x="2048" vert-adv-y="2048" >
    <font-face
      
      font-family="BebasNeueLight"
      
      font-weight="400"
      
      font-stretch="normal"
      
      units-per-em="2048"
      
      ascent="1536"
      
      descent="-512"
      
    />
      <missing-glyph />

      

      
      <glyph glyph-name="uni21" unicode="&#x21;" d="M82 0L82 164L127 164L127 0L82 0M82 631L82 1436L127 1436L127 631L121 317L88 317L82 631Z"  horiz-adv-x="208" vert-adv-y="2048"  />

      
      <glyph glyph-name="uni22" unicode="&#x22;" d="M82 1436L127 1436L123 1106L86 1106L82 1436M205 1436L248 1436L244 1106L209 1106L205 1436Z"  horiz-adv-x="329" vert-adv-y="2048"  />

      
      <glyph glyph-name="uni23" unicode="&#x23;" d="M76 473L78 508L227 508L279 1008L129 1008L131 1042L283 1042L322 1436L362 1436L322 1042L602 1042L643 1436L684 1436L643 1042L774 1042L772 1008L639 1008L588 508L719 508L717 473L584 473L535 0L494 0L545 473L262 473L213 0L172 0L223 473L76 473M266 508L547 508L600 1008L317 1008L266 508Z"  horiz-adv-x="849" vert-adv-y="2048"  />

      
      <glyph glyph-name="uni24" unicode="&#x24;" d="M80 348L80 420L125 420L125 346Q125 204 185.50 119.50Q246 35 379 35Q513 35 574 119.50Q635 204 635 346Q635 419 604.50 479.50Q574 540 526 582.50Q478 625 419.50 664.50Q361 704 302 744.50Q243 785 195 830Q147 875 116.50 941Q86 1007 86 1087Q86 1246 153 1339.50Q220 1433 362 1442L362 1571L401 1571L401 1442Q475 1438 529.50 1408.50Q584 1379 616 1329.50Q648 1280 663 1219Q678 1158 678 1085L678 1059L635 1059L635 1087Q635 1226 574.50 1312.50Q514 1399 383 1399Q252 1399 191.50 1314Q131 1229 131 1090Q131 1015 161.50 953.50Q192 892 240 849Q288 806 346.50 766.50Q405 727 464 686.50Q523 646 571 601Q619 556 649.50 491.50Q680 427 680 348Q680 248 653.50 172.50Q627 97 563 47Q499-3 401-8L401-125L362-125L362-8Q216-2 148 95Q80 192 80 348Z"  horiz-adv-x="757" vert-adv-y="2048"  />

      
      <glyph glyph-name="uni25" unicode="&#x25;" d="M80 780L80 1202Q80 1304 124 1370Q168 1436 264 1436Q361 1436 406 1370Q451 1304 451 1202L451 780Q451 678 406 612.50Q361 547 264 547Q168 547 124 612.50Q80 678 80 780M115 778Q115 692 149 636Q183 580 264 580Q345 580 379.50 636Q414 692 414 778L414 1202Q414 1243 406.50 1277Q399 1311 383 1340.50Q367 1370 336.50 1386.50Q306 1403 264 1403Q209 1403 174 1373Q139 1343 127 1300.50Q115 1258 115 1202L115 778M309 0L874 1436L909 1436L344 0L309 0M772 233L772 649Q772 714 788.50 764Q805 814 848.50 848.50Q892 883 958 883Q1008 883 1045 864Q1082 845 1103 811Q1124 777 1133.50 737Q1143 697 1143 649L1143 233Q1143 130 1099 64Q1055-2 958-2Q861-2 816.50 64Q772 130 772 233M809 231Q809 145 843 89Q877 33 958 33Q1039 33 1073.50 89Q1108 145 1108 231L1108 649Q1108 736 1073.50 792Q1039 848 958 848Q809 848 809 649L809 231Z"  horiz-adv-x="1222" vert-adv-y="2048"  />

      
      <glyph glyph-name="uni26" unicode="&#x26;" d="M82 322L82 453Q82 557 133.50 638.50Q185 720 281 750Q183 774 132.50 853.50Q82 933 82 1038L82 1077Q82 1250 169 1342Q256 1434 428 1434L610 1434L610 1391L428 1391Q127 1391 127 1079L127 1032Q127 926 185.50 850.50Q244 775 346 768L612 768L612 928L657 928L657 768L743 768L743 727L657 727L657 195Q657 148 658.50 123.50Q660 99 669.50 64Q679 29 698 0L649 0Q614 61 614 145Q583 69 515.50 29.50Q448-10 362-10Q220-10 151 80.50Q82 171 82 322M127 324Q127 191 187 111Q247 31 373 31Q478 31 545 93.50Q612 156 612 260L612 727L358 727Q250 718 188.50 643Q127 568 127 455L127 324Z"  horiz-adv-x="817" vert-adv-y="2048"  />

      
      <glyph glyph-name="uni27" unicode="&#x27;" d="M82 1436L125 1436L121 1106L84 1106L82 1436Z"  horiz-adv-x="206" vert-adv-y="2048"  />

      
      <glyph glyph-name="uni28" unicode="&#x28;" d="M84 319L84 1116Q84 1272 141.50 1354Q199 1436 346 1436L383 1436L383 1395L348 1395Q282 1395 238 1375Q194 1355 170.50 1316Q147 1277 138 1229.50Q129 1182 129 1116L129 319Q129 252 138 205Q147 158 170 119Q193 80 237.50 60.50Q282 41 348 41L383 41L383 0L346 0Q198 0 141 81Q84 162 84 319Z"  horiz-adv-x="458" vert-adv-y="2048"  />

      
      <glyph glyph-name="uni29" unicode="&#x29;" d="M76 0L76 41L111 41Q237 41 283.50 111Q330 181 330 319L330 1116Q330 1182 320.50 1229.50Q311 1277 287.50 1316Q264 1355 220 1375Q176 1395 111 1395L76 1395L76 1436L111 1436Q258 1436 316.50 1354Q375 1272 375 1116L375 319Q375 243 363 188Q351 133 322.50 89Q294 45 241 22.50Q188 0 111 0L76 0Z"  horiz-adv-x="458" vert-adv-y="2048"  />

      
      <glyph glyph-name="uni2a" unicode="&#x2a;" d="M90 1169L102 1208L389 1116L381 1419L422 1419L416 1116L702 1202L715 1163L422 1092L600 848L569 825L401 1075L236 827L203 848L381 1092L90 1169Z"  horiz-adv-x="804" vert-adv-y="2048"  />

      
      <glyph glyph-name="uni2b" unicode="&#x2b;" d="M78 698L78 735L377 735L377 1036L414 1036L414 735L711 735L711 698L414 698L414 393L377 393L377 698L78 698Z"  horiz-adv-x="788" vert-adv-y="2048"  />

      
      <glyph glyph-name="uni2c" unicode="&#x2c;" d="M86-137L109 0L109 166L154 166L154 2L109-137L86-137Z"  horiz-adv-x="235" vert-adv-y="2048"  />

      
      <glyph glyph-name="uni2d" unicode="&#x2d;" d="M80 696L80 737L444 737L444 696L80 696Z"  horiz-adv-x="524" vert-adv-y="2048"  />

      
      <glyph glyph-name="uni2e" unicode="&#x2e;" d="M82 0L82 166L127 166L127 0L82 0Z"  horiz-adv-x="208" vert-adv-y="2048"  />

      
      <glyph glyph-name="uni2f" unicode="&#x2f;" d="M74 0L639 1434L680 1434L115 0L74 0Z"  horiz-adv-x="753" vert-adv-y="2048"  />

      
      <glyph glyph-name="uni30" unicode="&#x30;" d="M80 352L80 1081Q80 1244 154.50 1344Q229 1444 385 1444Q541 1444 615.50 1344Q690 1244 690 1081L690 352Q690 247 660.50 168Q631 89 560.50 39.50Q490-10 385-10Q280-10 209.50 39.50Q139 89 109.50 168Q80 247 80 352M125 352Q125 283 139.50 226.50Q154 170 183.50 125Q213 80 264.50 55.50Q316 31 385 31Q454 31 505.50 55.50Q557 80 586.50 125Q616 170 630.50 226.50Q645 283 645 352L645 1083Q645 1226 582 1314.50Q519 1403 385 1403Q251 1403 188 1314.50Q125 1226 125 1083L125 352Z"  horiz-adv-x="770" vert-adv-y="2048"  />

      
      <glyph glyph-name="uni31" unicode="&#x31;" d="M98 1188L98 1229Q273 1246 340 1436L383 1436L383 0L338 0L338 1348Q267 1206 98 1188Z"  horiz-adv-x="487" vert-adv-y="2048"  />

      
      <glyph glyph-name="uni32" unicode="&#x32;" d="M82 0L82 31Q82 140 112.50 237Q143 334 192 406.50Q241 479 299.50 545.50Q358 612 417 672.50Q476 733 525 793Q574 853 604.50 925Q635 997 635 1075Q635 1403 379 1403Q309 1403 258 1376.50Q207 1350 179 1303Q151 1256 138 1199.50Q125 1143 125 1075L125 997L82 997L82 1073Q82 1151 98 1215.50Q114 1280 148 1332.50Q182 1385 241.50 1414.50Q301 1444 381 1444Q447 1444 498.50 1425Q550 1406 583.50 1373.50Q617 1341 639 1294Q661 1247 670.50 1193.50Q680 1140 680 1077Q680 996 650 921Q620 846 571.50 784.50Q523 723 465 662Q407 601 348 536Q289 471 240 401.50Q191 332 160 241.50Q129 151 127 51L127 43L672 43L672 0L82 0Z"  horiz-adv-x="757" vert-adv-y="2048"  />

      
      <glyph glyph-name="uni33" unicode="&#x33;" d="M80 352L80 420L125 420L125 352Q125 283 138.50 227Q152 171 180.50 126Q209 81 259.50 56Q310 31 379 31Q448 31 499 56Q550 81 579 126Q608 171 621.50 227.50Q635 284 635 354L635 463Q635 581 573 651Q511 721 397 727L293 727L293 768L399 768Q506 777 570.50 853Q635 929 635 1040L635 1081Q635 1151 621.50 1207Q608 1263 579 1308Q550 1353 499 1378Q448 1403 379 1403Q310 1403 259.50 1378Q209 1353 180.50 1308.50Q152 1264 138.50 1208Q125 1152 125 1083L125 1040L80 1040L80 1081Q80 1244 153 1344Q226 1444 381 1444Q461 1444 520 1416Q579 1388 613 1337.50Q647 1287 663.50 1223Q680 1159 680 1081L680 1047Q680 943 625 861.50Q570 780 475 750Q575 724 627.50 647.50Q680 571 680 463L680 352Q680 189 608 89.50Q536-10 381-10Q226-10 153 89.50Q80 189 80 352Z"  horiz-adv-x="759" vert-adv-y="2048"  />

      
      <glyph glyph-name="uni34" unicode="&#x34;" d="M76 338L76 383L575 1436L631 1436L631 381L756 381L756 338L631 338L631 0L586 0L586 338L76 338M119 381L586 381L586 1356L119 381Z"  horiz-adv-x="831" vert-adv-y="2048"  />

      
      <glyph glyph-name="uni35" unicode="&#x35;" d="M80 352L80 414L125 414L125 352Q125 209 186 121Q247 33 379 33Q448 33 499 58Q550 83 579 128Q608 173 621.50 228.50Q635 284 635 352L635 567Q635 634 621.50 689.50Q608 745 579 790Q550 835 499 860Q448 885 379 885Q292 885 231.50 840.50Q171 796 141 713L141 696L98 696L135 1436L653 1436L653 1393L176 1393L147 801Q226 928 391 928Q468 928 525 900Q582 872 615 821.50Q648 771 664 708Q680 645 680 569L680 352Q680 275 663.50 211Q647 147 612.50 96.50Q578 46 519 18Q460-10 381-10Q302-10 243 18Q184 46 149 96.50Q114 147 97 211Q80 275 80 352Z"  horiz-adv-x="759" vert-adv-y="2048"  />

      
      <glyph glyph-name="uni36" unicode="&#x36;" d="M80 352L80 1081Q80 1245 155 1344.50Q230 1444 387 1444Q492 1444 560.50 1396.50Q629 1349 657.50 1272Q686 1195 686 1090L686 1079L643 1079L643 1092Q643 1234 582 1318.50Q521 1403 387 1403Q294 1403 234 1358.50Q174 1314 149.50 1244Q125 1174 125 1079L125 684Q168 775 230.50 814.50Q293 854 397 854Q548 854 620 755.50Q692 657 692 496L692 352Q692 247 662.50 168Q633 89 562.50 39.50Q492-10 387-10Q230-10 155 90Q80 190 80 352M125 352Q125 283 139 227Q153 171 183 126.50Q213 82 265 57.50Q317 33 387 33Q522 33 584.50 120.50Q647 208 647 352L647 494Q647 636 584 723.50Q521 811 387 811Q317 811 265 785.50Q213 760 183 715Q153 670 139 615Q125 560 125 494L125 352Z"  horiz-adv-x="772" vert-adv-y="2048"  />

      
      <glyph glyph-name="uni37" unicode="&#x37;" d="M80 1393L80 1436L680 1436L680 1393L252 0L205 0L633 1393L80 1393Z"  horiz-adv-x="759" vert-adv-y="2048"  />

      
      <glyph glyph-name="uni38" unicode="&#x38;" d="M78 342L78 438Q78 565 127 644.50Q176 724 291 750Q78 798 78 1055L78 1102Q78 1260 158.50 1352Q239 1444 393 1444Q549 1444 629 1352.50Q709 1261 709 1102L709 1055Q709 935 659 854.50Q609 774 502 750Q709 703 709 438L709 342Q709 181 629.50 85.50Q550-10 393-10Q236-10 157 85.50Q78 181 78 342M123 342Q123 199 190.50 115Q258 31 393 31Q529 31 596.50 115Q664 199 664 342L664 442Q664 727 393 727Q123 727 123 442L123 342M123 1051Q123 913 191 840.50Q259 768 393 768Q528 768 596 840.50Q664 913 664 1051L664 1102Q664 1241 595 1322Q526 1403 393 1403Q260 1403 191.50 1322Q123 1241 123 1102L123 1051Z"  horiz-adv-x="788" vert-adv-y="2048"  />

      
      <glyph glyph-name="uni39" unicode="&#x39;" d="M80 348L80 358L123 358L123 346Q123 204 186.50 117.50Q250 31 385 31Q520 31 582.50 120Q645 209 645 356L645 756Q587 582 375 582Q224 582 152 680.50Q80 779 80 940L80 1081Q80 1159 97.50 1224Q115 1289 150 1339.50Q185 1390 245 1418Q305 1446 385 1446Q465 1446 525 1418Q585 1390 620 1339.50Q655 1289 672.50 1224Q690 1159 690 1081L690 354Q690 275 673 211Q656 147 621 96.50Q586 46 525.50 18Q465-10 385-10Q230-10 155 88Q80 186 80 348M125 942Q125 799 188 711Q251 623 385 623Q519 623 582 711Q645 799 645 942L645 1083Q645 1226 582 1314.50Q519 1403 385 1403Q251 1403 188 1314.50Q125 1226 125 1083L125 942Z"  horiz-adv-x="772" vert-adv-y="2048"  />

      
      <glyph glyph-name="uni3a" unicode="&#x3a;" d="M82 0L82 166L127 166L127 0L82 0M82 780L82 946L127 946L127 780L82 780Z"  horiz-adv-x="208" vert-adv-y="2048"  />

      
      <glyph glyph-name="uni3b" unicode="&#x3b;" d="M86-137L109 0L109 166L154 166L154 2L109-137L86-137M109 780L109 946L154 946L154 780L109 780Z"  horiz-adv-x="235" vert-adv-y="2048"  />

      
      <glyph glyph-name="uni3c" unicode="&#x3c;" d="M80 698L80 735L657 1020L657 979L127 717L657 455L657 414L80 698Z"  horiz-adv-x="739" vert-adv-y="2048"  />

      
      <glyph glyph-name="uni3d" unicode="&#x3d;" d="M80 629L80 664L475 664L475 629L80 629M80 848L80 883L475 883L475 848L80 848Z"  horiz-adv-x="555" vert-adv-y="2048"  />

      
      <glyph glyph-name="uni3e" unicode="&#x3e;" d="M82 414L82 455L612 717L82 979L82 1020L659 735L659 698L82 414Z"  horiz-adv-x="739" vert-adv-y="2048"  />

      
      <glyph glyph-name="uni3f" unicode="&#x3f;" d="M78 997L78 1073Q78 1134 87.50 1187.50Q97 1241 118.50 1288.50Q140 1336 173.50 1370Q207 1404 258 1424Q309 1444 373 1444Q455 1444 513.50 1415.50Q572 1387 605 1335Q638 1283 653 1219.50Q668 1156 668 1077Q668 1016 651 960.50Q634 905 606.50 861.50Q579 818 545.50 776Q512 734 478.50 692.50Q445 651 417.50 608Q390 565 373 510Q356 455 356 395Q356 364 367 322L326 322Q315 368 315 397Q315 470 338 535.50Q361 601 395 647.50Q429 694 469 745.50Q509 797 543 842Q577 887 600 949Q623 1011 623 1079Q623 1403 373 1403Q317 1403 273 1385Q229 1367 201 1336.50Q173 1306 154.50 1263.50Q136 1221 128.50 1174.50Q121 1128 121 1075L121 997L78 997M322 0L322 164L367 164L367 0L322 0Z"  horiz-adv-x="745" vert-adv-y="2048"  />

      
      <glyph glyph-name="uni40" unicode="&#x40;" d="M78 582Q78 724 102.50 853Q127 982 183 1098.50Q239 1215 320.50 1300.50Q402 1386 524.50 1436.50Q647 1487 797 1487Q1069 1487 1201 1337.50Q1333 1188 1333 918Q1333 842 1323 763Q1313 684 1288 600.50Q1263 517 1226 452.50Q1189 388 1130 347Q1071 306 999 305Q938 305 906 346.50Q874 388 872 451Q804 283 643 283Q580 284 536 311Q492 338 472 382.50Q452 427 443.50 482.50Q435 538 444 596L465 797Q478 927 543.50 1008.50Q609 1090 727 1090Q882 1087 920 938L934 1077L977 1077L915 496Q910 435 931 390.50Q952 346 1008 346Q1074 347 1126.50 388.50Q1179 430 1209.50 492Q1240 554 1260 633.50Q1280 713 1287.50 782.50Q1295 852 1294 915Q1294 1171 1171 1309.50Q1048 1448 795 1448Q653 1448 538 1400Q423 1352 346 1270.50Q269 1189 217 1077Q165 965 142 841Q119 717 119 580Q119 275 264 114Q409-47 709-47Q934-47 1075 66L1073 18Q921-86 707-86Q389-86 233.50 86.50Q78 259 78 582M485 592Q478 544 485 496.50Q492 449 508 410.50Q524 372 562 348Q600 324 655 324Q710 324 753 347Q796 370 822 409.50Q848 449 863 495.50Q878 542 883 596L905 795Q912 843 905 888.50Q898 934 880.50 969.50Q863 1005 825.50 1026Q788 1047 735 1047Q663 1047 613 1010.50Q563 974 539 919.50Q515 865 506 793L485 592Z"  horiz-adv-x="1409" vert-adv-y="2048"  />

      
      <glyph glyph-name="uni41" unicode="&#x41;" d="M76 0L422 1436L485 1436L840 0L795 0L711 338L201 338L117 0L76 0M209 379L702 379L453 1382L209 379Z"  horiz-adv-x="915" vert-adv-y="2048"  />

      
      <glyph glyph-name="uni42" unicode="&#x42;" d="M82 0L82 1434L369 1434Q520 1434 582.50 1361Q645 1288 645 1137L645 1044Q645 917 600.50 849.50Q556 782 440 764Q674 730 674 457L674 330Q674 0 371 0L82 0M127 43L371 43Q507 43 568 116Q629 189 629 330L629 459Q629 611 557.50 676Q486 741 334 741L127 741L127 43M127 782L313 782Q470 782 535 834.50Q600 887 600 1038L600 1135Q600 1267 549.50 1329Q499 1391 369 1391L127 1391L127 782Z"  horiz-adv-x="751" vert-adv-y="2048"  />

      
      <glyph glyph-name="uni43" unicode="&#x43;" d="M80 352L80 1081Q80 1158 96.50 1222Q113 1286 147.50 1336.50Q182 1387 241 1415.50Q300 1444 379 1444Q459 1444 518 1415.50Q577 1387 612 1336.50Q647 1286 663.50 1222Q680 1158 680 1081L680 971L635 971L635 1083Q635 1226 574 1314.50Q513 1403 381 1403Q312 1403 261 1378Q210 1353 181 1308Q152 1263 138.50 1207Q125 1151 125 1083L125 350Q125 282 138.50 226.50Q152 171 181 126.50Q210 82 261 57.50Q312 33 381 33Q449 33 499.50 57.50Q550 82 579 126.50Q608 171 621.50 226.50Q635 282 635 350L635 508L680 508L680 352Q680 275 663.50 211Q647 147 612 96.50Q577 46 518 18Q459-10 379-10Q300-10 241 18Q182 46 147.50 96.50Q113 147 96.50 211Q80 275 80 352Z"  horiz-adv-x="757" vert-adv-y="2048"  />

      
      <glyph glyph-name="uni44" unicode="&#x44;" d="M82 0L82 1434L381 1434Q538 1434 615 1336Q692 1238 692 1075L692 356Q692 195 615.50 97.50Q539 0 383 0L82 0M127 43L381 43Q519 43 583 127Q647 211 647 354L647 1077Q647 1221 582 1306Q517 1391 381 1391L127 1391L127 43Z"  horiz-adv-x="770" vert-adv-y="2048"  />

      
      <glyph glyph-name="uni45" unicode="&#x45;" d="M82 0L82 1434L629 1434L629 1391L127 1391L127 748L549 748L549 707L127 707L127 43L629 43L629 0L82 0Z"  horiz-adv-x="706" vert-adv-y="2048"  />

      
      <glyph glyph-name="uni46" unicode="&#x46;" d="M82 0L82 1434L608 1434L608 1391L127 1391L127 713L528 713L528 670L127 670L127 0L82 0Z"  horiz-adv-x="681" vert-adv-y="2048"  />

      
      <glyph glyph-name="uni47" unicode="&#x47;" d="M80 352L80 1081Q80 1158 96.50 1222Q113 1286 147.50 1336.50Q182 1387 241 1415.50Q300 1444 379 1444Q459 1444 518 1415.50Q577 1387 612 1336.50Q647 1286 663.50 1222Q680 1158 680 1081L680 987L635 987L635 1083Q635 1226 574 1314.50Q513 1403 381 1403Q312 1403 261 1378Q210 1353 181 1308Q152 1263 138.50 1207Q125 1151 125 1083L125 350Q125 282 138.50 226.50Q152 171 181 126.50Q210 82 261 57.50Q312 33 381 33Q449 33 499.50 57.50Q550 82 579 126.50Q608 171 621.50 226.50Q635 282 635 350L635 676L412 676L412 717L680 717L680 352Q680 275 663.50 211Q647 147 612 96.50Q577 46 518 18Q459-10 379-10Q300-10 241 18Q182 46 147.50 96.50Q113 147 96.50 211Q80 275 80 352Z"  horiz-adv-x="759" vert-adv-y="2048"  />

      
      <glyph glyph-name="uni48" unicode="&#x48;" d="M82 0L82 1434L127 1434L127 737L645 737L645 1434L690 1434L690 0L645 0L645 696L127 696L127 0L82 0Z"  horiz-adv-x="772" vert-adv-y="2048"  />

      
      <glyph glyph-name="uni49" unicode="&#x49;" d="M82 0L82 1434L127 1434L127 0L82 0Z"  horiz-adv-x="208" vert-adv-y="2048"  />

      
      <glyph glyph-name="uni4a" unicode="&#x4a;" d="M74 0L74 43Q85 42 98 42Q124 42 160 45Q281 56 336 127Q391 198 391 348L391 1434L436 1434L436 350Q436 177 367.50 94Q299 11 164 2Q125-1 98-1Q85-1 74 0Z"  horiz-adv-x="516" vert-adv-y="2048"  />

      
      <glyph glyph-name="uni4b" unicode="&#x4b;" d="M82 0L82 1434L127 1434L127 625L659 1434L709 1434L264 756L745 0L696 0L236 713L127 549L127 0L82 0Z"  horiz-adv-x="821" vert-adv-y="2048"  />

      
      <glyph glyph-name="uni4c" unicode="&#x4c;" d="M82 0L82 1434L127 1434L127 43L608 43L608 0L82 0Z"  horiz-adv-x="681" vert-adv-y="2048"  />

      
      <glyph glyph-name="uni4d" unicode="&#x4d;" d="M82 0L82 1434L152 1434L504 74L856 1434L926 1434L926 0L881 0L881 1366L528 4L477 4L123 1366L123 0L82 0Z"  horiz-adv-x="1007" vert-adv-y="2048"  />

      
      <glyph glyph-name="uni4e" unicode="&#x4e;" d="M82 0L82 1434L145 1434L649 92L649 1434L692 1434L692 0L637 0L125 1368L125 0L82 0Z"  horiz-adv-x="774" vert-adv-y="2048"  />

      
      <glyph glyph-name="uni4f" unicode="&#x4f;" d="M80 352L80 1081Q80 1260 157 1352Q234 1444 383 1444Q535 1444 612.50 1352Q690 1260 690 1081L690 352Q690 173 612.50 81.50Q535-10 383-10Q234-10 157 82Q80 174 80 352M125 350Q125 31 383 31Q512 31 578.50 111.50Q645 192 645 350L645 1083Q645 1241 578.50 1322Q512 1403 383 1403Q255 1403 190 1322Q125 1241 125 1083L125 350Z"  horiz-adv-x="770" vert-adv-y="2048"  />

      
      <glyph glyph-name="uni50" unicode="&#x50;" d="M82 0L82 1434L365 1434Q662 1434 662 1087L662 944Q662 773 581.50 690.50Q501 608 332 608L127 608L127 0L82 0M127 651L332 651Q482 651 549 720Q616 789 616 942L616 1090Q616 1233 559 1312Q502 1391 365 1391L127 1391L127 651Z"  horiz-adv-x="737" vert-adv-y="2048"  />

      
      <glyph glyph-name="uni51" unicode="&#x51;" d="M80 352L80 1081Q80 1159 97.50 1223Q115 1287 150 1337.50Q185 1388 245 1416Q305 1444 385 1444Q465 1444 525 1416Q585 1388 621 1337.50Q657 1287 674.50 1223Q692 1159 692 1081L692 352Q692 185 614 88Q655 20 745 20L768 20L768-20L745-20Q635-20 586 59Q511-10 385-10Q280-10 209.50 39.50Q139 89 109.50 168Q80 247 80 352M125 350Q125 207 188 119Q251 31 385 31Q476 31 536.50 75Q597 119 622 188.50Q647 258 647 350L647 1083Q647 1151 632.50 1207.50Q618 1264 587.50 1308.50Q557 1353 505.50 1378Q454 1403 385 1403Q251 1403 188 1314.50Q125 1226 125 1083L125 350Z"  horiz-adv-x="843" vert-adv-y="2048"  />

      
      <glyph glyph-name="uni52" unicode="&#x52;" d="M82 0L82 1434L367 1434Q662 1434 662 1112L662 983Q662 850 607 777Q552 704 434 682Q662 646 662 395L662 170Q662 52 700 0L651 0Q616 54 616 170L616 395Q616 544 535.50 603Q455 662 303 662L127 662L127 0L82 0M127 705L303 705Q382 705 436.50 716.50Q491 728 533.50 757.50Q576 787 596 841.50Q616 896 616 977L616 1108Q616 1245 557 1318Q498 1391 365 1391L127 1391L127 705Z"  horiz-adv-x="778" vert-adv-y="2048"  />

      
      <glyph glyph-name="uni53" unicode="&#x53;" d="M78 346L78 416L121 416L121 344Q121 203 182.50 118Q244 33 377 33Q510 33 571.50 118Q633 203 633 344Q633 417 602.50 478Q572 539 524 582Q476 625 417.50 664.50Q359 704 300 745Q241 786 193 832Q145 878 114.50 944Q84 1010 84 1090Q84 1254 156.50 1348.50Q229 1443 379 1444Q458 1444 516.50 1416.50Q575 1389 609 1339Q643 1289 659.50 1226.50Q676 1164 676 1087L676 1061L631 1061L631 1090Q631 1157 617.50 1211.50Q604 1266 576 1310Q548 1354 498 1378.50Q448 1403 381 1403Q249 1403 189 1317.50Q129 1232 129 1092Q129 1018 159.50 956.50Q190 895 238 851Q286 807 344.50 767.50Q403 728 462 687Q521 646 569 600.50Q617 555 647.50 490Q678 425 678 346Q678 185 605 87.50Q532-10 377-10Q223-10 150.50 87.50Q78 185 78 346Z"  horiz-adv-x="755" vert-adv-y="2048"  />

      
      <glyph glyph-name="uni54" unicode="&#x54;" d="M45 1391L45 1434L717 1434L717 1391L403 1391L403 0L358 0L358 1391L45 1391Z"  horiz-adv-x="765" vert-adv-y="2048"  />

      
      <glyph glyph-name="uni55" unicode="&#x55;" d="M80 354L80 1434L125 1434L125 352Q125 284 138 228.50Q151 173 179.50 127.50Q208 82 258 56.50Q308 31 377 31Q446 31 496 56.50Q546 82 574.50 127.50Q603 173 616 228.50Q629 284 629 352L629 1434L672 1434L672 354Q672 293 662.50 240.50Q653 188 630.50 141Q608 94 574.50 61Q541 28 490.50 9Q440-10 377-10Q298-10 239 18.50Q180 47 146 98.50Q112 150 96 213.50Q80 277 80 354Z"  horiz-adv-x="751" vert-adv-y="2048"  />

      
      <glyph glyph-name="uni56" unicode="&#x56;" d="M76 1434L123 1434L459 51L795 1434L838 1434L494 0L426 0L76 1434Z"  horiz-adv-x="913" vert-adv-y="2048"  />

      
      <glyph glyph-name="uni57" unicode="&#x57;" d="M76 1434L121 1434L371 61L618 1425L674 1425L907 70L1149 1434L1190 1434L936 0L877 0L645 1327L399 0L334 0L76 1434Z"  horiz-adv-x="1265" vert-adv-y="2048"  />

      
      <glyph glyph-name="uni58" unicode="&#x58;" d="M76 0L426 745L100 1434L147 1434L457 784L766 1434L811 1434L485 745L834 0L784 0L453 705L123 0L76 0Z"  horiz-adv-x="909" vert-adv-y="2048"  />

      
      <glyph glyph-name="uni59" unicode="&#x59;" d="M74 1434L119 1434L432 641L745 1434L793 1434L453 580L453 0L408 0L408 580L74 1434Z"  horiz-adv-x="864" vert-adv-y="2048"  />

      
      <glyph glyph-name="uni5a" unicode="&#x5a;" d="M78 0L78 43L680 1391L106 1391L106 1434L729 1434L729 1389L125 43L719 43L719 0L78 0Z"  horiz-adv-x="808" vert-adv-y="2048"  />

      
      <glyph glyph-name="uni5b" unicode="&#x5b;" d="M84 0L84 1436L385 1436L385 1395L129 1395L129 41L385 41L385 0L84 0Z"  horiz-adv-x="460" vert-adv-y="2048"  />

      
      <glyph glyph-name="uni5c" unicode="&#x5c;" d="M74 1434L115 1434L680 0L639 0L74 1434Z"  horiz-adv-x="753" vert-adv-y="2048"  />

      
      <glyph glyph-name="uni5d" unicode="&#x5d;" d="M78 0L78 41L334 41L334 1395L78 1395L78 1436L379 1436L379 0L78 0Z"  horiz-adv-x="460" vert-adv-y="2048"  />

      
      <glyph glyph-name="uni5e" unicode="&#x5e;" d="M78 801L403 1434L444 1434L770 801L727 801L424 1389L121 801L78 801Z"  horiz-adv-x="847" vert-adv-y="2048"  />

      
      <glyph glyph-name="uni5f" unicode="&#x5f;" d="M72-20L971-20L971-57L72-57L72-20Z"  horiz-adv-x="1060" vert-adv-y="2048"  />

      
      <glyph glyph-name="uni60" unicode="&#x60;" d="M82 1737L135 1737L285 1554L242 1554L82 1737Z"  horiz-adv-x="362" vert-adv-y="2048"  />

      
      <glyph glyph-name="uni61" unicode="&#x61;" d="M76 0L422 1436L485 1436L840 0L795 0L711 338L201 338L117 0L76 0M209 379L702 379L453 1382L209 379Z"  horiz-adv-x="915" vert-adv-y="2048"  />

      
      <glyph glyph-name="uni62" unicode="&#x62;" d="M82 0L82 1434L369 1434Q520 1434 582.50 1361Q645 1288 645 1137L645 1044Q645 917 600.50 849.50Q556 782 440 764Q674 730 674 457L674 330Q674 0 371 0L82 0M127 43L371 43Q507 43 568 116Q629 189 629 330L629 459Q629 611 557.50 676Q486 741 334 741L127 741L127 43M127 782L313 782Q470 782 535 834.50Q600 887 600 1038L600 1135Q600 1267 549.50 1329Q499 1391 369 1391L127 1391L127 782Z"  horiz-adv-x="751" vert-adv-y="2048"  />

      
      <glyph glyph-name="uni63" unicode="&#x63;" d="M80 352L80 1081Q80 1158 96.50 1222Q113 1286 147.50 1336.50Q182 1387 241 1415.50Q300 1444 379 1444Q459 1444 518 1415.50Q577 1387 612 1336.50Q647 1286 663.50 1222Q680 1158 680 1081L680 971L635 971L635 1083Q635 1226 574 1314.50Q513 1403 381 1403Q312 1403 261 1378Q210 1353 181 1308Q152 1263 138.50 1207Q125 1151 125 1083L125 350Q125 282 138.50 226.50Q152 171 181 126.50Q210 82 261 57.50Q312 33 381 33Q449 33 499.50 57.50Q550 82 579 126.50Q608 171 621.50 226.50Q635 282 635 350L635 508L680 508L680 352Q680 275 663.50 211Q647 147 612 96.50Q577 46 518 18Q459-10 379-10Q300-10 241 18Q182 46 147.50 96.50Q113 147 96.50 211Q80 275 80 352Z"  horiz-adv-x="757" vert-adv-y="2048"  />

      
      <glyph glyph-name="uni64" unicode="&#x64;" d="M82 0L82 1434L381 1434Q538 1434 615 1336Q692 1238 692 1075L692 356Q692 195 615.50 97.50Q539 0 383 0L82 0M127 43L381 43Q519 43 583 127Q647 211 647 354L647 1077Q647 1221 582 1306Q517 1391 381 1391L127 1391L127 43Z"  horiz-adv-x="770" vert-adv-y="2048"  />

      
      <glyph glyph-name="uni65" unicode="&#x65;" d="M82 0L82 1434L629 1434L629 1391L127 1391L127 748L549 748L549 707L127 707L127 43L629 43L629 0L82 0Z"  horiz-adv-x="706" vert-adv-y="2048"  />

      
      <glyph glyph-name="uni66" unicode="&#x66;" d="M82 0L82 1434L608 1434L608 1391L127 1391L127 713L528 713L528 670L127 670L127 0L82 0Z"  horiz-adv-x="681" vert-adv-y="2048"  />

      
      <glyph glyph-name="uni67" unicode="&#x67;" d="M80 352L80 1081Q80 1158 96.50 1222Q113 1286 147.50 1336.50Q182 1387 241 1415.50Q300 1444 379 1444Q459 1444 518 1415.50Q577 1387 612 1336.50Q647 1286 663.50 1222Q680 1158 680 1081L680 987L635 987L635 1083Q635 1226 574 1314.50Q513 1403 381 1403Q312 1403 261 1378Q210 1353 181 1308Q152 1263 138.50 1207Q125 1151 125 1083L125 350Q125 282 138.50 226.50Q152 171 181 126.50Q210 82 261 57.50Q312 33 381 33Q449 33 499.50 57.50Q550 82 579 126.50Q608 171 621.50 226.50Q635 282 635 350L635 676L412 676L412 717L680 717L680 352Q680 275 663.50 211Q647 147 612 96.50Q577 46 518 18Q459-10 379-10Q300-10 241 18Q182 46 147.50 96.50Q113 147 96.50 211Q80 275 80 352Z"  horiz-adv-x="759" vert-adv-y="2048"  />

      
      <glyph glyph-name="uni68" unicode="&#x68;" d="M82 0L82 1434L127 1434L127 737L645 737L645 1434L690 1434L690 0L645 0L645 696L127 696L127 0L82 0Z"  horiz-adv-x="772" vert-adv-y="2048"  />

      
      <glyph glyph-name="uni69" unicode="&#x69;" d="M82 0L82 1434L127 1434L127 0L82 0Z"  horiz-adv-x="208" vert-adv-y="2048"  />

      
      <glyph glyph-name="uni6a" unicode="&#x6a;" d="M74 0L74 43Q85 42 98 42Q124 42 160 45Q281 56 336 127Q391 198 391 348L391 1434L436 1434L436 350Q436 177 367.50 94Q299 11 164 2Q125-1 98-1Q85-1 74 0Z"  horiz-adv-x="516" vert-adv-y="2048"  />

      
      <glyph glyph-name="uni6b" unicode="&#x6b;" d="M82 0L82 1434L127 1434L127 625L659 1434L709 1434L264 756L745 0L696 0L236 713L127 549L127 0L82 0Z"  horiz-adv-x="821" vert-adv-y="2048"  />

      
      <glyph glyph-name="uni6c" unicode="&#x6c;" d="M82 0L82 1434L127 1434L127 43L608 43L608 0L82 0Z"  horiz-adv-x="681" vert-adv-y="2048"  />

      
      <glyph glyph-name="uni6d" unicode="&#x6d;" d="M82 0L82 1434L152 1434L504 74L856 1434L926 1434L926 0L881 0L881 1366L528 4L477 4L123 1366L123 0L82 0Z"  horiz-adv-x="1007" vert-adv-y="2048"  />

      
      <glyph glyph-name="uni6e" unicode="&#x6e;" d="M82 0L82 1434L145 1434L649 92L649 1434L692 1434L692 0L637 0L125 1368L125 0L82 0Z"  horiz-adv-x="774" vert-adv-y="2048"  />

      
      <glyph glyph-name="uni6f" unicode="&#x6f;" d="M80 352L80 1081Q80 1243 154.50 1343.50Q229 1444 383 1444Q463 1444 523.50 1416Q584 1388 619.50 1337.50Q655 1287 672.50 1223Q690 1159 690 1081L690 352Q690 190 615 90Q540-10 383-10Q229-10 154.50 90Q80 190 80 352M125 350Q125 206 187 118.50Q249 31 383 31Q519 31 582 118.50Q645 206 645 350L645 1083Q645 1227 582 1315Q519 1403 383 1403Q249 1403 187 1315Q125 1227 125 1083L125 350Z"  horiz-adv-x="770" vert-adv-y="2048"  />

      
      <glyph glyph-name="uni70" unicode="&#x70;" d="M82 0L82 1434L365 1434Q662 1434 662 1087L662 944Q662 773 581.50 690.50Q501 608 332 608L127 608L127 0L82 0M127 651L332 651Q482 651 549 720Q616 789 616 942L616 1090Q616 1233 559 1312Q502 1391 365 1391L127 1391L127 651Z"  horiz-adv-x="735" vert-adv-y="2048"  />

      
      <glyph glyph-name="uni71" unicode="&#x71;" d="M80 352L80 1081Q80 1159 97.50 1223Q115 1287 150 1337.50Q185 1388 245 1416Q305 1444 385 1444Q465 1444 525 1416Q585 1388 621 1337.50Q657 1287 674.50 1223Q692 1159 692 1081L692 352Q692 185 614 88Q655 20 745 20L768 20L768-20L745-20Q635-20 586 59Q511-10 385-10Q280-10 209.50 39.50Q139 89 109.50 168Q80 247 80 352M125 350Q125 207 188 119Q251 31 385 31Q476 31 536.50 75Q597 119 622 188.50Q647 258 647 350L647 1083Q647 1151 632.50 1207.50Q618 1264 587.50 1308.50Q557 1353 505.50 1378Q454 1403 385 1403Q251 1403 188 1314.50Q125 1226 125 1083L125 350Z"  horiz-adv-x="790" vert-adv-y="2048"  />

      
      <glyph glyph-name="uni72" unicode="&#x72;" d="M82 0L82 1434L367 1434Q662 1434 662 1112L662 983Q662 850 607 777Q552 704 434 682Q662 646 662 395L662 170Q662 52 700 0L651 0Q616 54 616 170L616 395Q616 544 535.50 603Q455 662 303 662L127 662L127 0L82 0M127 705L303 705Q382 705 436.50 716.50Q491 728 533.50 757.50Q576 787 596 841.50Q616 896 616 977L616 1108Q616 1245 557 1318Q498 1391 365 1391L127 1391L127 705Z"  horiz-adv-x="778" vert-adv-y="2048"  />

      
      <glyph glyph-name="uni73" unicode="&#x73;" d="M78 346L78 416L121 416L121 344Q121 203 182.50 118Q244 33 377 33Q510 33 571.50 118Q633 203 633 344Q633 417 602.50 478Q572 539 524 582Q476 625 417.50 664.50Q359 704 300 745Q241 786 193 832Q145 878 114.50 944Q84 1010 84 1090Q84 1254 156.50 1348.50Q229 1443 379 1444Q458 1444 516.50 1416.50Q575 1389 609 1339Q643 1289 659.50 1226.50Q676 1164 676 1087L676 1061L631 1061L631 1090Q631 1157 617.50 1211.50Q604 1266 576 1310Q548 1354 498 1378.50Q448 1403 381 1403Q249 1403 189 1317.50Q129 1232 129 1092Q129 1018 159.50 956.50Q190 895 238 851Q286 807 344.50 767.50Q403 728 462 687Q521 646 569 600.50Q617 555 647.50 490Q678 425 678 346Q678 185 605 87.50Q532-10 377-10Q223-10 150.50 87.50Q78 185 78 346Z"  horiz-adv-x="755" vert-adv-y="2048"  />

      
      <glyph glyph-name="uni74" unicode="&#x74;" d="M39 1391L39 1434L709 1434L709 1391L395 1391L395 0L350 0L350 1391L39 1391Z"  horiz-adv-x="751" vert-adv-y="2048"  />

      
      <glyph glyph-name="uni75" unicode="&#x75;" d="M80 354L80 1434L125 1434L125 352Q125 284 138 228.50Q151 173 179.50 127.50Q208 82 258 56.50Q308 31 377 31Q446 31 496 56.50Q546 82 574.50 127.50Q603 173 616 228.50Q629 284 629 352L629 1434L672 1434L672 354Q672 293 662.50 240.50Q653 188 630.50 141Q608 94 574.50 61Q541 28 490.50 9Q440-10 377-10Q298-10 239 18.50Q180 47 146 98.50Q112 150 96 213.50Q80 277 80 354Z"  horiz-adv-x="751" vert-adv-y="2048"  />

      
      <glyph glyph-name="uni76" unicode="&#x76;" d="M76 1434L123 1434L459 51L795 1434L838 1434L494 0L426 0L76 1434Z"  horiz-adv-x="913" vert-adv-y="2048"  />

      
      <glyph glyph-name="uni77" unicode="&#x77;" d="M76 1434L121 1434L371 61L618 1425L674 1425L907 70L1149 1434L1190 1434L936 0L877 0L645 1327L399 0L334 0L76 1434Z"  horiz-adv-x="1265" vert-adv-y="2048"  />

      
      <glyph glyph-name="uni78" unicode="&#x78;" d="M76 0L426 745L100 1434L147 1434L457 784L766 1434L811 1434L485 745L834 0L784 0L453 705L123 0L76 0Z"  horiz-adv-x="909" vert-adv-y="2048"  />

      
      <glyph glyph-name="uni79" unicode="&#x79;" d="M74 1434L119 1434L432 641L745 1434L793 1434L453 580L453 0L408 0L408 580L74 1434Z"  horiz-adv-x="864" vert-adv-y="2048"  />

      
      <glyph glyph-name="uni7a" unicode="&#x7a;" d="M78 0L78 43L680 1391L106 1391L106 1434L729 1434L729 1389L125 43L719 43L719 0L78 0Z"  horiz-adv-x="808" vert-adv-y="2048"  />

      
      <glyph glyph-name="uni7b" unicode="&#x7b;" d="M76 692L76 741Q112 748 136.50 761Q161 774 175.50 789Q190 804 197.50 830.50Q205 857 207.50 880Q210 903 211 944L225 1229Q227 1276 235 1310Q243 1344 260 1374Q277 1404 309 1420Q341 1436 387 1436L449 1436L449 1395L397 1395Q365 1395 342 1385.50Q319 1376 306 1361.50Q293 1347 284.50 1321.50Q276 1296 273 1273.50Q270 1251 268 1217L254 938Q252 892 247.50 863Q243 834 230 802.50Q217 771 190 750.50Q163 730 121 717Q163 705 190 684.50Q217 664 230 632.50Q243 601 247.50 572Q252 543 254 496L268 219Q270 184 273 161.50Q276 139 284.50 114Q293 89 306 74.50Q319 60 342 50.50Q365 41 397 41L449 41L449 0L387 0Q341 0 309 15.50Q277 31 260 61Q243 91 235 125.50Q227 160 225 207L211 492Q210 532 207.50 554.50Q205 577 197 603.50Q189 630 175.50 645Q162 660 137 672.50Q112 685 76 692Z"  horiz-adv-x="524" vert-adv-y="2048"  />

      
      <glyph glyph-name="uni7c" unicode="&#x7c;" d="M141-16L141 1452L182 1452L182-16L141-16Z"  horiz-adv-x="321" vert-adv-y="2048"  />

      
      <glyph glyph-name="uni7d" unicode="&#x7d;" d="M76 0L76 41L127 41Q159 41 182 50.50Q205 60 218 74.50Q231 89 239.50 114Q248 139 251 161.50Q254 184 256 219L270 496Q272 543 276.50 572Q281 601 294 632.50Q307 664 334 684.50Q361 705 403 717Q361 730 334 750.50Q307 771 294 802.50Q281 834 276.50 863Q272 892 270 938L256 1217Q254 1251 251 1273.50Q248 1296 239.50 1321.50Q231 1347 218 1361.50Q205 1376 182 1385.50Q159 1395 127 1395L76 1395L76 1436L137 1436Q175 1436 203 1425Q231 1414 248 1396Q265 1378 276.50 1350.50Q288 1323 292.50 1294.50Q297 1266 299 1229L313 944Q316 845 340.50 801.50Q365 758 451 741L451 692Q365 676 340.50 633Q316 590 313 492L299 207Q297 159 289 125Q281 91 264 61Q247 31 215.50 15.50Q184 0 137 0L76 0Z"  horiz-adv-x="524" vert-adv-y="2048"  />

      
      <glyph glyph-name="uni7e" unicode="&#x7e;" d="M74 672Q150 797 252 797Q294 798 341.50 778.50Q389 759 424.50 734.50Q460 710 503.50 690.50Q547 671 582 672Q622 673 651.50 701.50Q681 730 711 780L739 758Q670 638 584 633Q544 631 497.50 650.50Q451 670 415.50 695Q380 720 334.50 740.50Q289 761 250 760Q166 760 100 651L74 672Z"  horiz-adv-x="813" vert-adv-y="2048"  />

      
      <glyph glyph-name="unia2" unicode="&#xa2;" d="M82 455L82 983Q82 1138 148.50 1237Q215 1336 358 1343L358 1438L399 1438L399 1343Q544 1337 611 1243.50Q678 1150 678 995L678 944L635 944L635 997Q635 1138 574.50 1220.50Q514 1303 379 1303Q311 1303 261 1278Q211 1253 182.50 1208Q154 1163 140.50 1107.50Q127 1052 127 985L127 453Q127 386 140.50 331Q154 276 182.50 231Q211 186 261 160.50Q311 135 379 135Q513 135 574 221Q635 307 635 449L635 541L678 541L678 451Q678 295 610.50 197.50Q543 100 399 94L399-4L358-4L358 94Q215 100 148.50 199.50Q82 299 82 455Z"  horiz-adv-x="757" vert-adv-y="2048"  />

      
      <glyph glyph-name="unia3" unicode="&#xa3;" d="M80 0L80 41Q326 300 283 514L104 514L104 553L276 553Q259 612 226.50 679.50Q194 747 168.50 794.50Q143 842 123.50 917Q104 992 104 1077Q104 1156 119.50 1220Q135 1284 168.50 1335.50Q202 1387 261 1415.50Q320 1444 401 1444Q481 1444 539.50 1414Q598 1384 630 1330.50Q662 1277 677 1213Q692 1149 692 1071L692 1006L649 1006L649 1073Q649 1141 637 1197Q625 1253 598 1301Q571 1349 521 1376Q471 1403 401 1403Q150 1403 150 1079Q150 995 170 920Q190 845 215 796.50Q240 748 271.50 680Q303 612 319 553L641 553L641 514L328 514Q347 414 306 303.50Q265 193 137 43L702 43L702 0L80 0Z"  horiz-adv-x="784" vert-adv-y="2048"  />

      
      <glyph glyph-name="unia5" unicode="&#xa5;" d="M74 1434L123 1434L455 616L791 1434L834 1434L479 563L713 563L713 532L477 532L477 362L713 362L713 332L477 332L477 0L432 0L432 332L197 332L197 362L432 362L432 532L197 532L197 563L428 563L74 1434Z"  horiz-adv-x="909" vert-adv-y="2048"  />

      
      <glyph glyph-name="unia8" unicode="&#xa8;" d="M111 1532L111 1698L152 1698L152 1532L111 1532M190 1532L190 1698L233 1698L233 1532L190 1532Z"  horiz-adv-x="342" vert-adv-y="2048"  />

      
      <glyph glyph-name="unia9" unicode="&#xa9;" d="M165.50 355Q165.50 355 121.75 436Q78 517 78 717Q78 917 165.50 1079Q253 1241 412 1334Q571 1427 770 1427Q919 1427 1048 1372.50Q1177 1318 1267.50 1223.50Q1358 1129 1410 997.50Q1462 866 1462 717Q1462 517 1374 355Q1286 193 1127 99.50Q968 6 770 6Q571 6 412 99.50Q253 193 165.50 355M113 717Q113 528 196 373.50Q279 219 430 129Q581 39 770 39Q959 39 1110 129Q1261 219 1344 373.50Q1427 528 1427 717Q1427 858 1378 983Q1329 1108 1243.50 1198Q1158 1288 1035 1340.50Q912 1393 770 1393Q628 1393 505 1340.50Q382 1288 296.50 1198Q211 1108 162 983Q113 858 113 717M551 520L551 913Q551 1026 602.50 1095.50Q654 1165 762 1165Q868 1165 918.50 1095.50Q969 1026 969 913L969 874L934 874L934 915Q934 1012 893.50 1071Q853 1130 762 1130Q671 1130 629.50 1070.50Q588 1011 588 915L588 518Q588 422 629.50 361.50Q671 301 762 301Q853 301 893.50 361Q934 421 934 518L934 578L969 578L969 520Q969 407 918.50 336.50Q868 266 762 266Q654 266 602.50 336.50Q551 407 551 520Z"  horiz-adv-x="1540" vert-adv-y="2048"  />

      
      <glyph glyph-name="uniab" unicode="&#xab;" d="M76 719L213 1210L254 1210L119 719L254 225L213 225L76 719M276 719L412 1210L455 1210L319 719L455 225L412 225L276 719Z"  horiz-adv-x="530" vert-adv-y="2048"  />

      
      <glyph glyph-name="uniad" unicode="&#xad;" d="M80 696L80 737L444 737L444 696L80 696Z"  horiz-adv-x="524" vert-adv-y="2048"  />

      
      <glyph glyph-name="uniae" unicode="&#xae;" d="M165.50 355Q165.50 355 121.75 436Q78 517 78 717Q78 917 165.50 1079Q253 1241 412 1334Q571 1427 770 1427Q919 1427 1048 1372.50Q1177 1318 1267.50 1223.50Q1358 1129 1410 997.50Q1462 866 1462 717Q1462 517 1374 355Q1286 193 1127 99.50Q968 6 770 6Q571 6 412 99.50Q253 193 165.50 355M113 717Q113 528 196 373.50Q279 219 430 129Q581 39 770 39Q959 39 1110 129Q1261 219 1344 373.50Q1427 528 1427 717Q1427 858 1378 983Q1329 1108 1243.50 1198Q1158 1288 1035 1340.50Q912 1393 770 1393Q628 1393 505 1340.50Q382 1288 296.50 1198Q211 1108 162 983Q113 858 113 717M578 279L578 1155L776 1155Q985 1155 985 928L985 899Q985 726 846 690Q987 652 987 492L987 397Q987 310 1014 279L973 279Q950 324 950 397L950 492Q950 597 893.50 635.50Q837 674 729 674L614 674L614 279L578 279M614 709L752 709Q853 709 900.50 752Q948 795 948 895L948 926Q948 1021 908 1070.50Q868 1120 776 1120L614 1120L614 709Z"  horiz-adv-x="1540" vert-adv-y="2048"  />

      
      <glyph glyph-name="unib4" unicode="&#xb4;" d="M78 1554L227 1737L279 1737L121 1554L78 1554Z"  horiz-adv-x="362" vert-adv-y="2048"  />

      
      <glyph glyph-name="unib8" unicode="&#xb8;" d="M78-180L115-180L115-186Q115-235 157.50-259Q200-283 254-285Q305-285 347-260.50Q389-236 389-188Q389-136 351.50-118Q314-100 254-100L244-100L244 4L272 4L272-80Q343-82 384.50-105Q426-128 426-188Q426-250 374-280.50Q322-311 254-309Q185-309 131.50-279Q78-249 78-188L78-180Z"  horiz-adv-x="503" vert-adv-y="2048"  />

      
      <glyph glyph-name="unibb" unicode="&#xbb;" d="M76 225L211 719L76 1210L119 1210L254 719L119 225L76 225M276 225L412 719L276 1210L319 1210L455 719L319 225L276 225Z"  horiz-adv-x="530" vert-adv-y="2048"  />

      
      <glyph glyph-name="uni02C6" unicode="&#x02C6;" d="M70 1569L238 1737L274 1737L442 1569L393 1569L256 1704L117 1569L70 1569Z"  horiz-adv-x="512" vert-adv-y="2048"  />

      
      <glyph glyph-name="uni02DA" unicode="&#x02DA;" d="M84 1667Q84 1719 121 1755.50Q158 1792 211 1792Q264 1792 301 1755.50Q338 1719 338 1667Q338 1613 301 1576.50Q264 1540 211 1540Q158 1540 121 1576.50Q84 1613 84 1667M113 1667Q113 1625 141 1598Q169 1571 211 1571Q252 1571 280.50 1598Q309 1625 309 1667Q309 1708 280.50 1734.50Q252 1761 211 1761Q169 1761 141 1734.50Q113 1708 113 1667Z"  horiz-adv-x="421" vert-adv-y="2048"  />

      
      <glyph glyph-name="uni02DC" unicode="&#x02DC;" d="M70 1579Q112 1658 180 1661Q220 1662 283 1623Q346 1584 375 1585Q412 1587 446 1649L475 1630Q438 1551 377 1548Q340 1547 278 1586Q216 1625 184 1624Q134 1624 98 1561L70 1579Z"  horiz-adv-x="544" vert-adv-y="2048"  />

      
      <glyph glyph-name="uni0401" unicode="&#x0401;" d="M82 0L82 1434L629 1434L629 1391L127 1391L127 748L549 748L549 707L127 707L127 43L629 43L629 0L82 0M258 1532L258 1698L299 1698L299 1532L258 1532M414 1532L414 1698L455 1698L455 1532L414 1532Z"  horiz-adv-x="706" vert-adv-y="2048"  />

      
      <glyph glyph-name="uni0410" unicode="&#x0410;" d="M76 0L422 1436L485 1436L840 0L795 0L711 338L201 338L117 0L76 0M209 379L702 379L453 1382L209 379Z"  horiz-adv-x="915" vert-adv-y="2048"  />

      
      <glyph glyph-name="uni0411" unicode="&#x0411;" d="M82 0L82 1434L641 1434L641 1391L127 1391L127 809L358 809Q529 809 609.50 739Q690 669 690 502L690 336Q690 172 616 86Q542 0 381 0L82 0M127 43L381 43Q521 43 583 116.50Q645 190 645 334L645 504Q645 652 577 709Q509 766 358 766L127 766L127 43Z"  horiz-adv-x="770" vert-adv-y="2048"  />

      
      <glyph glyph-name="uni0412" unicode="&#x0412;" d="M82 0L82 1434L369 1434Q520 1434 582.50 1361Q645 1288 645 1137L645 1044Q645 915 603 847.50Q561 780 446 762Q568 744 621 666.50Q674 589 674 457L674 330Q674 0 371 0L82 0M127 43L371 43Q507 43 568 116Q629 189 629 330L629 459Q629 611 557.50 676Q486 741 334 741L127 741L127 43M127 782L313 782Q470 782 535 834.50Q600 887 600 1038L600 1135Q600 1267 549.50 1329Q499 1391 369 1391L127 1391L127 782Z"  horiz-adv-x="751" vert-adv-y="2048"  />

      
      <glyph glyph-name="uni0413" unicode="&#x0413;" d="M82 0L82 1434L614 1434L614 1391L127 1391L127 0L82 0Z"  horiz-adv-x="694" vert-adv-y="2048"  />

      
      <glyph glyph-name="uni0414" unicode="&#x0414;" d="M76 43L178 43Q221 86 235.50 144Q250 202 254 289L313 1434L799 1434L799 43L926 43L926-201L881-201L881 0L121 0L121-201L76-201L76 43M229 43L754 43L754 1391L356 1391L299 287Q295 225 291 193.50Q287 162 272 118Q257 74 229 43Z"  horiz-adv-x="1003" vert-adv-y="2048"  />

      
      <glyph glyph-name="uni0415" unicode="&#x0415;" d="M82 0L82 1434L629 1434L629 1391L127 1391L127 748L549 748L549 707L127 707L127 43L629 43L629 0L82 0Z"  horiz-adv-x="706" vert-adv-y="2048"  />

      
      <glyph glyph-name="uni0416" unicode="&#x0416;" d="M74 0L483 788L96 1434L143 1434L532 788L621 637L621 1434L666 1434L666 637L756 793L1145 1434L1194 1434L807 788L1214 0L1167 0L778 748L666 565L666 0L621 0L621 565L512 748L121 0L74 0Z"  horiz-adv-x="1290" vert-adv-y="2048"  />

      
      <glyph glyph-name="uni0417" unicode="&#x0417;" d="M80 352L80 457L125 457L125 350Q125 282 138.50 226.50Q152 171 180.50 126Q209 81 259.50 56Q310 31 379 31Q448 31 499 56Q550 81 579 126Q608 171 621.50 227Q635 283 635 352L635 463Q635 579 567 653Q499 727 387 727L295 727L295 768L389 768Q494 768 564.50 848.50Q635 929 635 1038L635 1081Q635 1151 621.50 1207Q608 1263 579 1308Q550 1353 499 1378Q448 1403 379 1403Q245 1403 184 1315Q123 1227 123 1083L123 1022L82 1022L82 1083Q82 1160 98.50 1223.50Q115 1287 149 1337.50Q183 1388 242 1416Q301 1444 381 1444Q461 1444 520 1416Q579 1388 613 1337.50Q647 1287 663.50 1223Q680 1159 680 1081L680 1044Q680 940 624 859.50Q568 779 471 750Q572 726 626 648Q680 570 680 463L680 352Q680 189 608 89.50Q536-10 381-10Q226-10 153 89.50Q80 189 80 352Z"  horiz-adv-x="759" vert-adv-y="2048"  />

      
      <glyph glyph-name="uni0418" unicode="&#x0418;" d="M82 0L82 1434L125 1434L125 86L631 1434L692 1434L692 0L649 0L649 1364L389 680L137 0L82 0Z"  horiz-adv-x="774" vert-adv-y="2048"  />

      
      <glyph glyph-name="uni0419" unicode="&#x0419;" d="M82 0L82 1434L125 1434L125 86L631 1434L692 1434L692 0L649 0L649 1364L403 715L137 0L82 0M207 1686L244 1686Q245 1628 290 1597.50Q335 1567 401 1567Q466 1567 511 1597.50Q556 1628 559 1686L596 1686Q593 1616 536.50 1574Q480 1532 401 1532Q321 1532 264.50 1573.50Q208 1615 207 1686Z"  horiz-adv-x="774" vert-adv-y="2048"  />

      
      <glyph glyph-name="uni041A" unicode="&#x041A;" d="M82 0L82 1434L127 1434L127 625L659 1434L709 1434L264 756L745 0L696 0L236 713L127 549L127 0L82 0Z"  horiz-adv-x="821" vert-adv-y="2048"  />

      
      <glyph glyph-name="uni041B" unicode="&#x041B;" d="M74-2L74 41Q104 41 129.50 47.50Q155 54 173 62.50Q191 71 205.50 88.50Q220 106 229.50 119.50Q239 133 245.50 159.50Q252 186 255.50 201.50Q259 217 261.50 249.50Q264 282 264.50 296.50Q265 311 266 346L309 1434L807 1434L807 0L760 0L760 1391L352 1391L311 346Q309 310 308 289Q307 268 303.50 234.50Q300 201 295.50 181Q291 161 282.50 133.50Q274 106 263 89.50Q252 73 235.50 54Q219 35 198 24.50Q177 14 149 6.50Q121-1 88-2L74-2Z"  horiz-adv-x="888" vert-adv-y="2048"  />

      
      <glyph glyph-name="uni041C" unicode="&#x041C;" d="M82 0L82 1434L152 1434L504 74L856 1434L926 1434L926 0L881 0L881 1366L528 4L477 4L123 1366L123 0L82 0Z"  horiz-adv-x="1007" vert-adv-y="2048"  />

      
      <glyph glyph-name="uni041D" unicode="&#x041D;" d="M82 0L82 1434L127 1434L127 737L645 737L645 1434L690 1434L690 0L645 0L645 696L127 696L127 0L82 0Z"  horiz-adv-x="772" vert-adv-y="2048"  />

      
      <glyph glyph-name="uni041E" unicode="&#x041E;" d="M80 352L80 1081Q80 1243 154.50 1343.50Q229 1444 383 1444Q463 1444 523.50 1416Q584 1388 619.50 1337.50Q655 1287 672.50 1223Q690 1159 690 1081L690 352Q690 190 615 90Q540-10 383-10Q229-10 154.50 90Q80 190 80 352M125 350Q125 206 187 118.50Q249 31 383 31Q519 31 582 118.50Q645 206 645 350L645 1083Q645 1227 582 1315Q519 1403 383 1403Q249 1403 187 1315Q125 1227 125 1083L125 350Z"  horiz-adv-x="770" vert-adv-y="2048"  />

      
      <glyph glyph-name="uni041F" unicode="&#x041F;" d="M82 0L82 1434L690 1434L690 0L645 0L645 1391L127 1391L127 0L82 0Z"  horiz-adv-x="772" vert-adv-y="2048"  />

      
      <glyph glyph-name="uni0420" unicode="&#x0420;" d="M82 0L82 1434L365 1434Q662 1434 662 1087L662 944Q662 773 581.50 690.50Q501 608 332 608L127 608L127 0L82 0M127 651L332 651Q482 651 549 720Q616 789 616 942L616 1090Q616 1233 559 1312Q502 1391 365 1391L127 1391L127 651Z"  horiz-adv-x="735" vert-adv-y="2048"  />

      
      <glyph glyph-name="uni0421" unicode="&#x0421;" d="M80 352L80 1081Q80 1158 96.50 1222Q113 1286 147.50 1336.50Q182 1387 241 1415.50Q300 1444 379 1444Q459 1444 518 1415.50Q577 1387 612 1336.50Q647 1286 663.50 1222Q680 1158 680 1081L680 971L635 971L635 1083Q635 1226 574 1314.50Q513 1403 381 1403Q312 1403 261 1378Q210 1353 181 1308Q152 1263 138.50 1207Q125 1151 125 1083L125 350Q125 282 138.50 226.50Q152 171 181 126.50Q210 82 261 57.50Q312 33 381 33Q449 33 499.50 57.50Q550 82 579 126.50Q608 171 621.50 226.50Q635 282 635 350L635 508L680 508L680 352Q680 275 663.50 211Q647 147 612 96.50Q577 46 518 18Q459-10 379-10Q300-10 241 18Q182 46 147.50 96.50Q113 147 96.50 211Q80 275 80 352Z"  horiz-adv-x="757" vert-adv-y="2048"  />

      
      <glyph glyph-name="uni0422" unicode="&#x0422;" d="M74 1391L74 1434L745 1434L745 1391L432 1391L432 0L387 0L387 1391L74 1391Z"  horiz-adv-x="819" vert-adv-y="2048"  />

      
      <glyph glyph-name="uni0423" unicode="&#x0423;" d="M74 1434L121 1434L453 522L590 926L764 1434L813 1434L393 229Q355 108 301 53.50Q247-1 131 0L131 41Q180 41 215.50 53Q251 65 275.50 92Q300 119 315.50 149.50Q331 180 348 229L430 463L74 1434Z"  horiz-adv-x="886" vert-adv-y="2048"  />

      
      <glyph glyph-name="uni0424" unicode="&#x0424;" d="M80 516L80 907Q80 1084 157.50 1177Q235 1270 408 1270L537 1270L537 1434L580 1434L580 1270L709 1270Q881 1270 959.50 1176.50Q1038 1083 1038 907L1038 516Q1038 340 959.50 247Q881 154 709 154L580 154L580 0L537 0L537 154L408 154Q235 154 157.50 246.50Q80 339 80 516M125 514Q125 357 191 276Q257 195 408 195L537 195L537 1229L408 1229Q257 1229 191 1147.50Q125 1066 125 909L125 514M580 195L709 195Q860 195 926.50 276.50Q993 358 993 514L993 909Q993 1066 927 1147.50Q861 1229 709 1229L580 1229L580 195Z"  horiz-adv-x="1118" vert-adv-y="2048"  />

      
      <glyph glyph-name="uni0425" unicode="&#x0425;" d="M76 0L426 745L100 1434L147 1434L457 784L766 1434L811 1434L485 745L834 0L784 0L453 705L123 0L76 0Z"  horiz-adv-x="909" vert-adv-y="2048"  />

      
      <glyph glyph-name="uni0426" unicode="&#x0426;" d="M119 0L119 1434L162 1434L162 43L678 43L678 1434L725 1434L725 43L852 43L852-193L807-193L807 0L119 0Z"  horiz-adv-x="931" vert-adv-y="2048"  />

      
      <glyph glyph-name="uni0427" unicode="&#x0427;" d="M80 924L80 1434L125 1434L125 926Q125 837 149 767.50Q173 698 232 652Q291 606 379 606Q578 606 645 807L645 1434L690 1434L690 0L645 0L645 731Q561 565 371 565Q295 565 237.50 594Q180 623 146.50 673.50Q113 724 96.50 787Q80 850 80 924Z"  horiz-adv-x="772" vert-adv-y="2048"  />

      
      <glyph glyph-name="uni0428" unicode="&#x0428;" d="M82 0L82 1434L127 1434L127 43L541 43L541 1434L586 1434L586 43L999 43L999 1434L1044 1434L1044 0L82 0Z"  horiz-adv-x="1126" vert-adv-y="2048"  />

      
      <glyph glyph-name="uni0429" unicode="&#x0429;" d="M82 0L82 1434L127 1434L127 43L539 43L539 1434L584 1434L584 43L999 43L997 1434L1042 1434L1042 43L1171 43L1171-193L1126-193L1126 0L82 0Z"  horiz-adv-x="1249" vert-adv-y="2048"  />

      
      <glyph glyph-name="uni042A" unicode="&#x042A;" d="M20 1391L20 1434L272 1434L272 825L477 825Q646 825 726.50 742.50Q807 660 807 489L807 346Q807 0 510 0L227 0L227 1391L20 1391M272 43L510 43Q647 43 704.50 122Q762 201 762 344L762 492Q762 644 694 713Q626 782 477 782L272 782L272 43Z"  horiz-adv-x="884" vert-adv-y="2048"  />

      
      <glyph glyph-name="uni042B" unicode="&#x042B;" d="M82 0L82 1434L127 1434L127 825L330 825Q501 825 581.50 742.50Q662 660 662 489L662 346Q662 0 362 0L82 0M127 43L362 43Q499 43 557.50 122Q616 201 616 344L616 492Q616 644 548.50 713Q481 782 330 782L127 782L127 43M799 0L799 1434L844 1434L844 0L799 0Z"  horiz-adv-x="925" vert-adv-y="2048"  />

      
      <glyph glyph-name="uni042C" unicode="&#x042C;" d="M82 0L82 1434L127 1434L127 825L330 825Q501 825 581.50 742.50Q662 660 662 489L662 346Q662 0 362 0L82 0M127 43L362 43Q499 43 557.50 122Q616 201 616 344L616 492Q616 644 548.50 713Q481 782 330 782L127 782L127 43Z"  horiz-adv-x="739" vert-adv-y="2048"  />

      
      <glyph glyph-name="uni042D" unicode="&#x042D;" d="M78 352L78 481L123 481L123 350Q123 207 183 120Q243 33 375 33Q445 33 496 57.50Q547 82 576 126.50Q605 171 618 226.50Q631 282 631 350L631 721L307 721L307 762L631 762L631 1083Q631 1151 617.50 1206.50Q604 1262 575.50 1307.50Q547 1353 496 1378Q445 1403 375 1403Q243 1403 183 1314.50Q123 1226 123 1083L123 1001L80 1001L80 1081Q80 1243 152 1343.50Q224 1444 377 1444Q456 1444 515 1415.50Q574 1387 608.50 1336.50Q643 1286 659.50 1222Q676 1158 676 1081L676 352Q676 275 659.50 211Q643 147 608.50 96.50Q574 46 515 18Q456-10 377-10Q298-10 239 18Q180 46 145.50 96.50Q111 147 94.50 211Q78 275 78 352Z"  horiz-adv-x="755" vert-adv-y="2048"  />

      
      <glyph glyph-name="uni042E" unicode="&#x042E;" d="M82 0L82 1434L127 1434L127 737L406 737L406 1081Q406 1244 480 1344Q554 1444 709 1444Q789 1444 849 1416Q909 1388 945 1337.50Q981 1287 998.50 1223Q1016 1159 1016 1081L1016 352Q1016 247 986 168Q956 89 885 39.50Q814-10 709-10Q554-10 480 89.50Q406 189 406 352L406 696L127 696L127 0L82 0M451 350Q451 206 513 118.50Q575 31 709 31Q800 31 860.50 75Q921 119 946 188.50Q971 258 971 350L971 1083Q971 1151 956.50 1207.50Q942 1264 911.50 1308.50Q881 1353 829.50 1378Q778 1403 709 1403Q575 1403 513 1315Q451 1227 451 1083L451 350Z"  horiz-adv-x="1095" vert-adv-y="2048"  />

      
      <glyph glyph-name="uni042F" unicode="&#x042F;" d="M78 0Q117 53 117 170L117 395Q117 647 344 682Q226 704 171.50 777Q117 850 117 983L117 1112Q117 1434 412 1434L696 1434L696 0L651 0L651 662L475 662Q323 662 242.50 603Q162 544 162 395L162 170Q162 54 127 0L78 0M162 977Q162 896 182 841.50Q202 787 244.50 757.50Q287 728 341.50 716.50Q396 705 475 705L651 705L651 1391L414 1391Q281 1391 221.50 1318Q162 1245 162 1108L162 977Z"  horiz-adv-x="778" vert-adv-y="2048"  />

      
      <glyph glyph-name="uni0430" unicode="&#x0430;" d="M76 0L422 1436L485 1436L840 0L795 0L711 338L201 338L117 0L76 0M209 379L702 379L453 1382L209 379Z"  horiz-adv-x="915" vert-adv-y="2048"  />

      
      <glyph glyph-name="uni0431" unicode="&#x0431;" d="M82 0L82 1434L641 1434L641 1391L127 1391L127 809L358 809Q529 809 609.50 739Q690 669 690 502L690 336Q690 172 616 86Q542 0 381 0L82 0M127 43L381 43Q521 43 583 116.50Q645 190 645 334L645 504Q645 652 577 709Q509 766 358 766L127 766L127 43Z"  horiz-adv-x="770" vert-adv-y="2048"  />

      
      <glyph glyph-name="uni0432" unicode="&#x0432;" d="M82 0L82 1434L369 1434Q520 1434 582.50 1361Q645 1288 645 1137L645 1044Q645 917 600.50 849.50Q556 782 440 764Q674 730 674 457L674 330Q674 0 371 0L82 0M127 43L371 43Q507 43 568 116Q629 189 629 330L629 459Q629 611 557.50 676Q486 741 334 741L127 741L127 43M127 782L313 782Q470 782 535 834.50Q600 887 600 1038L600 1135Q600 1267 549.50 1329Q499 1391 369 1391L127 1391L127 782Z"  horiz-adv-x="751" vert-adv-y="2048"  />

      
      <glyph glyph-name="uni0433" unicode="&#x0433;" d="M82 0L82 1434L614 1434L614 1391L127 1391L127 0L82 0Z"  horiz-adv-x="694" vert-adv-y="2048"  />

      
      <glyph glyph-name="uni0434" unicode="&#x0434;" d="M76 43L178 43Q221 86 235.50 144Q250 202 254 289L313 1434L799 1434L799 43L926 43L926-201L881-201L881 0L121 0L121-201L76-201L76 43M229 43L754 43L754 1391L356 1391L299 287Q295 225 291 193.50Q287 162 272 118Q257 74 229 43Z"  horiz-adv-x="1003" vert-adv-y="2048"  />

      
      <glyph glyph-name="uni0435" unicode="&#x0435;" d="M82 0L82 1434L629 1434L629 1391L127 1391L127 748L549 748L549 707L127 707L127 43L629 43L629 0L82 0Z"  horiz-adv-x="706" vert-adv-y="2048"  />

      
      <glyph glyph-name="uni0436" unicode="&#x0436;" d="M74 0L483 788L96 1434L143 1434L532 786L621 633L621 1434L666 1434L666 633L752 784L1145 1434L1194 1434L807 788L1214 0L1167 0L778 748L666 563L666 0L621 0L621 565L512 748L121 0L74 0Z"  horiz-adv-x="1290" vert-adv-y="2048"  />

      
      <glyph glyph-name="uni0437" unicode="&#x0437;" d="M80 352L80 457L125 457L125 350Q125 282 138.50 226.50Q152 171 180.50 126Q209 81 259.50 56Q310 31 379 31Q448 31 499 56Q550 81 579 126Q608 171 621.50 227Q635 283 635 352L635 463Q635 579 567 653Q499 727 387 727L295 727L295 768L389 768Q494 768 564.50 848.50Q635 929 635 1038L635 1081Q635 1151 621.50 1207Q608 1263 579 1308Q550 1353 499 1378Q448 1403 379 1403Q245 1403 184 1315Q123 1227 123 1083L123 1022L82 1022L82 1083Q82 1160 98.50 1223.50Q115 1287 149 1337.50Q183 1388 242 1416Q301 1444 381 1444Q461 1444 520 1416Q579 1388 613 1337.50Q647 1287 663.50 1223Q680 1159 680 1081L680 1044Q680 940 624 859.50Q568 779 471 750Q572 726 626 648Q680 570 680 463L680 352Q680 189 608 89.50Q536-10 381-10Q226-10 153 89.50Q80 189 80 352Z"  horiz-adv-x="759" vert-adv-y="2048"  />

      
      <glyph glyph-name="uni0438" unicode="&#x0438;" d="M82 0L82 1434L125 1434L125 86L324 618L631 1434L692 1434L692 0L649 0L649 1364L387 668L137 0L82 0Z"  horiz-adv-x="774" vert-adv-y="2048"  />

      
      <glyph glyph-name="uni0439" unicode="&#x0439;" d="M82 0L82 1434L125 1434L125 86L342 670L631 1434L692 1434L692 0L649 0L649 1364L418 745L137 0L82 0M207 1679L244 1679Q245 1620 289.50 1590.50Q334 1561 401 1561Q467 1561 511.50 1590.50Q556 1620 559 1679L596 1679Q593 1608 537 1566Q481 1524 401 1524Q321 1524 264.50 1565.50Q208 1607 207 1679Z"  horiz-adv-x="774" vert-adv-y="2048"  />

      
      <glyph glyph-name="uni043A" unicode="&#x043A;" d="M82 0L82 1434L127 1434L127 625L659 1434L709 1434L264 756L745 0L696 0L236 713L127 549L127 0L82 0Z"  horiz-adv-x="821" vert-adv-y="2048"  />

      
      <glyph glyph-name="uni043B" unicode="&#x043B;" d="M74-2L74 41Q104 41 129.50 47.50Q155 54 173 62.50Q191 71 205.50 88.50Q220 106 229.50 119.50Q239 133 245.50 159.50Q252 186 255.50 201.50Q259 217 261.50 249.50Q264 282 264.50 296.50Q265 311 266 346L309 1434L807 1434L807 0L760 0L760 1391L352 1391L311 346Q309 310 308 289Q307 268 303.50 234.50Q300 201 295.50 181Q291 161 282.50 133.50Q274 106 263 89.50Q252 73 235.50 54Q219 35 198 24.50Q177 14 149 6.50Q121-1 88-2L74-2Z"  horiz-adv-x="888" vert-adv-y="2048"  />

      
      <glyph glyph-name="uni043C" unicode="&#x043C;" d="M82 0L82 1434L152 1434L504 74L856 1434L926 1434L926 0L881 0L881 1366L528 4L477 4L123 1366L123 0L82 0Z"  horiz-adv-x="1007" vert-adv-y="2048"  />

      
      <glyph glyph-name="uni043D" unicode="&#x043D;" d="M82 0L82 1434L127 1434L127 737L645 737L645 1434L690 1434L690 0L645 0L645 696L127 696L127 0L82 0Z"  horiz-adv-x="772" vert-adv-y="2048"  />

      
      <glyph glyph-name="uni043E" unicode="&#x043E;" d="M80 352L80 1081Q80 1243 154.50 1343.50Q229 1444 383 1444Q463 1444 523.50 1416Q584 1388 619.50 1337.50Q655 1287 672.50 1223Q690 1159 690 1081L690 352Q690 190 615 90Q540-10 383-10Q229-10 154.50 90Q80 190 80 352M125 350Q125 206 187 118.50Q249 31 383 31Q519 31 582 118.50Q645 206 645 350L645 1083Q645 1227 582 1315Q519 1403 383 1403Q249 1403 187 1315Q125 1227 125 1083L125 350Z"  horiz-adv-x="770" vert-adv-y="2048"  />

      
      <glyph glyph-name="uni043F" unicode="&#x043F;" d="M82 0L82 1434L690 1434L690 0L645 0L645 1391L127 1391L127 0L82 0Z"  horiz-adv-x="772" vert-adv-y="2048"  />

      
      <glyph glyph-name="uni0440" unicode="&#x0440;" d="M82 0L82 1434L365 1434Q662 1434 662 1087L662 944Q662 773 581.50 690.50Q501 608 332 608L127 608L127 0L82 0M127 651L332 651Q482 651 549 720Q616 789 616 942L616 1090Q616 1233 559 1312Q502 1391 365 1391L127 1391L127 651Z"  horiz-adv-x="735" vert-adv-y="2048"  />

      
      <glyph glyph-name="uni0441" unicode="&#x0441;" d="M80 352L80 1081Q80 1158 96.50 1222Q113 1286 147.50 1336.50Q182 1387 241 1415.50Q300 1444 379 1444Q459 1444 518 1415.50Q577 1387 612 1336.50Q647 1286 663.50 1222Q680 1158 680 1081L680 971L635 971L635 1083Q635 1226 574 1314.50Q513 1403 381 1403Q312 1403 261 1378Q210 1353 181 1308Q152 1263 138.50 1207Q125 1151 125 1083L125 350Q125 282 138.50 226.50Q152 171 181 126.50Q210 82 261 57.50Q312 33 381 33Q449 33 499.50 57.50Q550 82 579 126.50Q608 171 621.50 226.50Q635 282 635 350L635 508L680 508L680 352Q680 275 663.50 211Q647 147 612 96.50Q577 46 518 18Q459-10 379-10Q300-10 241 18Q182 46 147.50 96.50Q113 147 96.50 211Q80 275 80 352Z"  horiz-adv-x="757" vert-adv-y="2048"  />

      
      <glyph glyph-name="uni0442" unicode="&#x0442;" d="M74 1391L74 1434L745 1434L745 1391L432 1391L432 0L387 0L387 1391L74 1391Z"  horiz-adv-x="819" vert-adv-y="2048"  />

      
      <glyph glyph-name="uni0443" unicode="&#x0443;" d="M74 1434L121 1434L453 522L590 926L764 1434L813 1434L393 229Q355 108 301 53.50Q247-1 131 0L131 41Q180 41 215.50 53Q251 65 275.50 92Q300 119 315.50 149.50Q331 180 348 229L430 463L74 1434Z"  horiz-adv-x="886" vert-adv-y="2048"  />

      
      <glyph glyph-name="uni0444" unicode="&#x0444;" d="M80 516L80 907Q80 1084 157.50 1177Q235 1270 408 1270L537 1270L537 1434L580 1434L580 1270L709 1270Q881 1270 959.50 1176.50Q1038 1083 1038 907L1038 516Q1038 340 959.50 247Q881 154 709 154L580 154L580 0L537 0L537 154L408 154Q235 154 157.50 246.50Q80 339 80 516M125 514Q125 357 191 276Q257 195 408 195L537 195L537 1229L408 1229Q257 1229 191 1147.50Q125 1066 125 909L125 514M580 195L709 195Q860 195 926.50 276.50Q993 358 993 514L993 909Q993 1066 927 1147.50Q861 1229 709 1229L580 1229L580 195Z"  horiz-adv-x="1118" vert-adv-y="2048"  />

      
      <glyph glyph-name="uni0445" unicode="&#x0445;" d="M76 0L426 745L100 1434L147 1434L457 784L766 1434L811 1434L485 745L834 0L784 0L453 705L123 0L76 0Z"  horiz-adv-x="909" vert-adv-y="2048"  />

      
      <glyph glyph-name="uni0446" unicode="&#x0446;" d="M119 0L119 1434L162 1434L162 43L678 43L678 1434L725 1434L725 43L852 43L852-193L807-193L807 0L119 0Z"  horiz-adv-x="931" vert-adv-y="2048"  />

      
      <glyph glyph-name="uni0447" unicode="&#x0447;" d="M80 924L80 1434L125 1434L125 926Q125 837 149 767.50Q173 698 232 652Q291 606 379 606Q578 606 645 807L645 1434L690 1434L690 0L645 0L645 727Q563 565 371 565Q295 565 237.50 594Q180 623 146.50 673.50Q113 724 96.50 787Q80 850 80 924Z"  horiz-adv-x="772" vert-adv-y="2048"  />

      
      <glyph glyph-name="uni0448" unicode="&#x0448;" d="M82 0L82 1434L127 1434L127 43L541 43L541 1434L586 1434L586 43L999 43L999 1434L1044 1434L1044 0L82 0Z"  horiz-adv-x="1126" vert-adv-y="2048"  />

      
      <glyph glyph-name="uni0449" unicode="&#x0449;" d="M82 0L82 1434L127 1434L127 43L539 43L539 1434L584 1434L584 43L999 43L997 1434L1042 1434L1042 43L1171 43L1171-193L1126-193L1126 0L82 0Z"  horiz-adv-x="1249" vert-adv-y="2048"  />

      
      <glyph glyph-name="uni044A" unicode="&#x044A;" d="M20 1391L20 1434L272 1434L272 825L477 825Q646 825 726.50 742.50Q807 660 807 489L807 346Q807 0 510 0L227 0L227 1391L20 1391M272 43L510 43Q647 43 704.50 122Q762 201 762 344L762 492Q762 644 694 713Q626 782 477 782L272 782L272 43Z"  horiz-adv-x="884" vert-adv-y="2048"  />

      
      <glyph glyph-name="uni044B" unicode="&#x044B;" d="M82 0L82 1434L127 1434L127 825L330 825Q501 825 581.50 742.50Q662 660 662 489L662 346Q662 0 362 0L82 0M127 43L362 43Q499 43 557.50 122Q616 201 616 344L616 492Q616 644 548.50 713Q481 782 330 782L127 782L127 43M799 0L799 1434L844 1434L844 0L799 0Z"  horiz-adv-x="925" vert-adv-y="2048"  />

      
      <glyph glyph-name="uni044C" unicode="&#x044C;" d="M82 0L82 1434L127 1434L127 825L330 825Q501 825 581.50 742.50Q662 660 662 489L662 346Q662 0 362 0L82 0M127 43L362 43Q499 43 557.50 122Q616 201 616 344L616 492Q616 644 548.50 713Q481 782 330 782L127 782L127 43Z"  horiz-adv-x="739" vert-adv-y="2048"  />

      
      <glyph glyph-name="uni044D" unicode="&#x044D;" d="M78 352L78 481L123 481L123 350Q123 207 183 120Q243 33 375 33Q445 33 496 57.50Q547 82 576 126.50Q605 171 618 226.50Q631 282 631 350L631 721L307 721L307 762L631 762L631 1083Q631 1151 617.50 1206.50Q604 1262 575.50 1307.50Q547 1353 496 1378Q445 1403 375 1403Q243 1403 183 1314.50Q123 1226 123 1083L123 1001L80 1001L80 1081Q80 1243 152 1343.50Q224 1444 377 1444Q456 1444 515 1415.50Q574 1387 608.50 1336.50Q643 1286 659.50 1222Q676 1158 676 1081L676 352Q676 275 659.50 211Q643 147 608.50 96.50Q574 46 515 18Q456-10 377-10Q298-10 239 18Q180 46 145.50 96.50Q111 147 94.50 211Q78 275 78 352Z"  horiz-adv-x="755" vert-adv-y="2048"  />

      
      <glyph glyph-name="uni044E" unicode="&#x044E;" d="M82 0L82 1434L127 1434L127 737L406 737L406 1081Q406 1244 480 1344Q554 1444 709 1444Q789 1444 849 1416Q909 1388 945 1337.50Q981 1287 998.50 1223Q1016 1159 1016 1081L1016 352Q1016 247 986 168Q956 89 885 39.50Q814-10 709-10Q554-10 480 89.50Q406 189 406 352L406 696L127 696L127 0L82 0M451 350Q451 206 513 118.50Q575 31 709 31Q800 31 860.50 75Q921 119 946 188.50Q971 258 971 350L971 1083Q971 1151 956.50 1207.50Q942 1264 911.50 1308.50Q881 1353 829.50 1378Q778 1403 709 1403Q575 1403 513 1315Q451 1227 451 1083L451 350Z"  horiz-adv-x="1095" vert-adv-y="2048"  />

      
      <glyph glyph-name="uni044F" unicode="&#x044F;" d="M78 0Q117 53 117 170L117 395Q117 647 344 682Q226 704 171.50 777Q117 850 117 983L117 1112Q117 1434 412 1434L696 1434L696 0L651 0L651 662L475 662Q323 662 242.50 603Q162 544 162 395L162 170Q162 54 127 0L78 0M162 977Q162 896 182 841.50Q202 787 244.50 757.50Q287 728 341.50 716.50Q396 705 475 705L651 705L651 1391L414 1391Q281 1391 221.50 1318Q162 1245 162 1108L162 977Z"  horiz-adv-x="778" vert-adv-y="2048"  />

      
      <glyph glyph-name="uni0451" unicode="&#x0451;" d="M82 0L82 1434L629 1434L629 1391L127 1391L127 748L549 748L549 707L127 707L127 43L629 43L629 0L82 0M258 1532L258 1698L299 1698L299 1532L258 1532M414 1532L414 1698L455 1698L455 1532L414 1532Z"  horiz-adv-x="706" vert-adv-y="2048"  />

      
      <glyph glyph-name="uni2010" unicode="&#x2010;" d="M80 696L80 737L444 737L444 696L80 696Z"  horiz-adv-x="524" vert-adv-y="2048"  />

      
      <glyph glyph-name="uni2011" unicode="&#x2011;" d="M80 696L80 737L444 737L444 696L80 696Z"  horiz-adv-x="524" vert-adv-y="2048"  />

      
      <glyph glyph-name="uni2012" unicode="&#x2012;" d="M80 696L80 737L444 737L444 696L80 696Z"  horiz-adv-x="524" vert-adv-y="2048"  />

      
      <glyph glyph-name="uni2013" unicode="&#x2013;" d="M72 698L72 737L719 737L719 698L72 698Z"  horiz-adv-x="790" vert-adv-y="2048"  />

      
      <glyph glyph-name="uni2014" unicode="&#x2014;" d="M72 698L72 737L1049 737L1049 698L72 698Z"  horiz-adv-x="1120" vert-adv-y="2048"  />

      
      <glyph glyph-name="uni2018" unicode="&#x2018;" d="M82 1130L82 1294L127 1434L150 1434L127 1296L127 1130L82 1130Z"  horiz-adv-x="235" vert-adv-y="2048"  />

      
      <glyph glyph-name="uni2019" unicode="&#x2019;" d="M86 1130L109 1268L109 1434L154 1434L154 1270L109 1130L86 1130Z"  horiz-adv-x="235" vert-adv-y="2048"  />

      
      <glyph glyph-name="uni201A" unicode="&#x201A;" d="M86-137L109 0L109 166L154 166L154 2L109-137L86-137Z"  horiz-adv-x="235" vert-adv-y="2048"  />

      
      <glyph glyph-name="uni201C" unicode="&#x201C;" d="M82 1130L82 1294L127 1434L150 1434L127 1296L127 1130L82 1130M190 1130L190 1294L233 1434L258 1434L233 1296L233 1130L190 1130Z"  horiz-adv-x="342" vert-adv-y="2048"  />

      
      <glyph glyph-name="uni201D" unicode="&#x201D;" d="M82 1130L106 1268L106 1434L150 1434L150 1270L106 1130L82 1130M190 1130L213 1268L213 1434L258 1434L258 1270L213 1130L190 1130Z"  horiz-adv-x="342" vert-adv-y="2048"  />

      
      <glyph glyph-name="uni201E" unicode="&#x201E;" d="M86-137L109 0L109 166L154 166L154 2L109-137L86-137M207-137L231 0L231 166L274 166L274 2L231-137L207-137Z"  horiz-adv-x="356" vert-adv-y="2048"  />

      
      <glyph glyph-name="uni2022" unicode="&#x2022;" d="M151 649Q151 649 137 663Q123 677 123 717Q123 757 151 785Q179 813 217 813Q257 813 285 785Q313 757 313 717Q313 677 285 649Q257 621 217 621Q179 621 151 649Z"  horiz-adv-x="436" vert-adv-y="2048"  />

      
      <glyph glyph-name="uni2026" unicode="&#x2026;" d="M82 0L82 166L127 166L127 0L82 0M193 0L193 166L236 166L236 0L193 0M305 0L305 166L348 166L348 0L305 0Z"  horiz-adv-x="430" vert-adv-y="2048"  />

      
      <glyph glyph-name="uni2039" unicode="&#x2039;" d="M76 717L211 1210L256 1210L121 717L256 221L211 221L76 717Z"  horiz-adv-x="331" vert-adv-y="2048"  />

      
      <glyph glyph-name="uni203A" unicode="&#x203A;" d="M76 223L211 719L76 1212L119 1212L256 719L119 223L76 223Z"  horiz-adv-x="331" vert-adv-y="2048"  />

      
      <glyph glyph-name="uni20AC" unicode="&#x20AC;" d="M59 594L59 627L150 627L150 815L59 815L59 848L150 848L150 1081Q150 1158 166 1221.50Q182 1285 215.50 1336Q249 1387 307 1415.50Q365 1444 444 1444Q521 1444 578.50 1415.50Q636 1387 669.50 1336Q703 1285 719 1221.50Q735 1158 735 1081L735 1014L692 1014L692 1083Q692 1150 679 1205.50Q666 1261 638 1306.50Q610 1352 560.50 1377.50Q511 1403 444 1403Q390 1403 347 1386Q304 1369 276 1339.50Q248 1310 229.50 1269Q211 1228 203 1182Q195 1136 195 1083L195 848L618 848L618 815L195 815L195 627L618 627L618 594L195 594L195 350Q195 283 208 228Q221 173 248.50 128Q276 83 326 58Q376 33 444 33Q574 33 633 121Q692 209 692 350L692 432L735 432L735 352Q735 292 725.50 239.50Q716 187 694 140.50Q672 94 639 61Q606 28 556 9Q506-10 444-10Q365-10 307 18.50Q249 47 215.50 98.50Q182 150 166 213Q150 276 150 352L150 594L59 594Z"  horiz-adv-x="815" vert-adv-y="2048"  />

      
      <glyph glyph-name="uni2122" unicode="&#x2122;" d="M33 1401L33 1434L459 1434L459 1401L264 1401L264 705L229 705L229 1401L33 1401M561 705L561 1434L610 1434L831 768L1055 1434L1104 1434L1104 705L1069 705L1069 1376L850 717L813 717L594 1376L594 705L561 705Z"  horiz-adv-x="1181" vert-adv-y="2048"  />

      
      <glyph glyph-name="uni25FC" unicode="&#x25FC;" d="M0 0L0 1434L1434 1434L1434 0L0 0Z"  horiz-adv-x="1433" vert-adv-y="2048"  />

      

  </font>
</defs>
</svg>
