<?xml version="1.0" standalone="no"?>
  <!DOCTYPE svg PUBLIC "-//W3C//DTD SVG 1.1//EN" "http://www.w3.org/Graphics/SVG/1.1/DTD/svg11.dtd" >
  <svg>
  <metadata>
  Created by font-carrier
  </metadata>
  <defs>
  <font id="BebasNeueBook" horiz-adv-x="2048" vert-adv-y="2048" >
    <font-face
      
      font-family="BebasNeueBook"
      
      font-weight="400"
      
      font-stretch="normal"
      
      units-per-em="2048"
      
      ascent="1536"
      
      descent="-512"
      
    />
      <missing-glyph />

      

      
      <glyph glyph-name="uni21" unicode="&#x21;" d="M82 686L82 1436L176 1436L176 686L164 317L94 317L82 686M84 0L84 178L174 178L174 0L84 0Z"  horiz-adv-x="258" vert-adv-y="2048"  />

      
      <glyph glyph-name="uni22" unicode="&#x22;" d="M82 1436L174 1436L162 1079L92 1079L82 1436M248 1436L340 1436L328 1079L260 1079L248 1436Z"  horiz-adv-x="421" vert-adv-y="2048"  />

      
      <glyph glyph-name="uni23" unicode="&#x23;" d="M63 455L70 524L205 524L254 989L117 989L123 1059L260 1059L299 1436L379 1436L340 1059L580 1059L618 1436L698 1436L659 1059L784 1059L778 989L653 989L604 524L729 524L723 455L598 455L549 0L469 0L518 455L276 455L229 0L150 0L199 455L63 455M285 524L524 524L573 989L332 989L285 524Z"  horiz-adv-x="847" vert-adv-y="2048"  />

      
      <glyph glyph-name="uni24" unicode="&#x24;" d="M78 352L78 432L168 432L168 348Q168 82 385 82Q602 82 602 348Q602 417 573.50 475Q545 533 499 574.50Q453 616 398 654.50Q343 693 288 734Q233 775 187 821Q141 867 112.50 934Q84 1001 84 1081Q84 1237 149 1330Q214 1423 348 1436L348 1559L428 1559L428 1436Q520 1428 581 1378.50Q642 1329 668 1254.50Q694 1180 694 1081L694 1049L604 1049L604 1085Q604 1209 553 1280.50Q502 1352 391 1352Q280 1352 229 1280.50Q178 1209 178 1087Q178 1017 206.50 958.50Q235 900 281 858Q327 816 382 777Q437 738 492 697Q547 656 593 610Q639 564 667.50 498Q696 432 696 352Q696 201 630 105Q564 9 428-2L428-117L348-117L348-2Q210 8 144 103Q78 198 78 352Z"  horiz-adv-x="772" vert-adv-y="2048"  />

      
      <glyph glyph-name="uni25" unicode="&#x25;" d="M78 770L78 1206Q78 1310 125 1374Q172 1438 270 1438Q369 1438 417 1374Q465 1310 465 1206L465 770Q465 666 417 602.50Q369 539 270 539Q172 539 125 602.50Q78 666 78 770M141 766Q141 691 171 644.50Q201 598 270 598Q337 598 368 645Q399 692 399 766L399 1208Q399 1284 368.50 1331Q338 1378 270 1378Q141 1378 141 1208L141 766M303 0L868 1436L930 1436L365 0L303 0M774 229L774 659Q774 763 822 828Q870 893 969 893Q1068 893 1114.50 828.50Q1161 764 1161 659L1161 229Q1161 124 1114.50 60Q1068-4 969-4Q870-4 822 60.50Q774 125 774 229M840 225Q840 150 871 102.50Q902 55 969 55Q1037 55 1067.50 102.50Q1098 150 1098 225L1098 664Q1098 831 969 831Q901 831 870.50 785Q840 739 840 664L840 225Z"  horiz-adv-x="1239" vert-adv-y="2048"  />

      
      <glyph glyph-name="uni26" unicode="&#x26;" d="M82 319L82 455Q82 561 129.50 641Q177 721 270 752Q177 779 129.50 856.50Q82 934 82 1042L82 1077Q82 1251 168.50 1342.50Q255 1434 426 1434L629 1434L629 1348L426 1348Q176 1348 176 1081L176 1024Q176 925 228.50 860Q281 795 373 791L594 791L594 950L688 950L688 791L766 791L766 705L688 705L688 188Q688 142 689.50 118.50Q691 95 699.50 61.50Q708 28 725 0L627 0Q596 55 596 137Q564 64 501 26Q438-12 354-12Q218-12 150 76.50Q82 165 82 319M176 326Q176 209 228.50 141.50Q281 74 387 74Q478 74 535.50 127.50Q593 181 594 274L594 705L385 705Q285 699 230.50 632.50Q176 566 176 457L176 326Z"  horiz-adv-x="825" vert-adv-y="2048"  />

      
      <glyph glyph-name="uni27" unicode="&#x27;" d="M80 1436L170 1436L160 1079L90 1079L80 1436Z"  horiz-adv-x="249" vert-adv-y="2048"  />

      
      <glyph glyph-name="uni28" unicode="&#x28;" d="M88 317L88 1118Q88 1278 150 1357Q212 1436 365 1436L410 1436L410 1356L369 1356Q263 1356 222.50 1296Q182 1236 182 1118L182 317Q182 197 222 138.50Q262 80 369 80L410 80L410 0L365 0Q211 0 149.50 78.50Q88 157 88 317Z"  horiz-adv-x="473" vert-adv-y="2048"  />

      
      <glyph glyph-name="uni29" unicode="&#x29;" d="M63 0L63 80L104 80Q212 80 252.50 139Q293 198 293 317L293 1118Q293 1236 251.50 1296Q210 1356 104 1356L63 1356L63 1436L109 1436Q262 1436 324.50 1356.50Q387 1277 387 1118L387 317Q387 157 325 78.50Q263 0 109 0L63 0Z"  horiz-adv-x="473" vert-adv-y="2048"  />

      
      <glyph glyph-name="uni2a" unicode="&#x2a;" d="M68 1143L92 1219L383 1110L362 1423L442 1423L424 1110L715 1214L739 1139L436 1071L631 829L567 782L403 1047L240 784L174 829L371 1071L68 1143Z"  horiz-adv-x="806" vert-adv-y="2048"  />

      
      <glyph glyph-name="uni2b" unicode="&#x2b;" d="M72 682L72 752L362 752L362 1047L432 1047L432 752L725 752L725 682L432 682L432 383L362 383L362 682L72 682Z"  horiz-adv-x="794" vert-adv-y="2048"  />

      
      <glyph glyph-name="uni2c" unicode="&#x2c;" d="M92-156L133 0L102 0L102 180L193 180L193 8L133-156L92-156Z"  horiz-adv-x="274" vert-adv-y="2048"  />

      
      <glyph glyph-name="uni2d" unicode="&#x2d;" d="M78 674L78 760L455 760L455 674L78 674Z"  horiz-adv-x="532" vert-adv-y="2048"  />

      
      <glyph glyph-name="uni2e" unicode="&#x2e;" d="M82 0L82 180L174 180L174 0L82 0Z"  horiz-adv-x="256" vert-adv-y="2048"  />

      
      <glyph glyph-name="uni2f" unicode="&#x2f;" d="M55 0L621 1434L705 1434L139 0L55 0Z"  horiz-adv-x="759" vert-adv-y="2048"  />

      
      <glyph glyph-name="uni30" unicode="&#x30;" d="M76 350L76 1083Q76 1249 154.50 1347.50Q233 1446 391 1446Q549 1446 628 1347.50Q707 1249 707 1083L707 350Q707 185 628 86.50Q549-12 391-12Q233-12 154.50 86.50Q76 185 76 350M170 346Q170 220 224 147Q278 74 391 74Q504 74 558 147Q612 220 612 346L612 1090Q612 1214 558 1287Q504 1360 391 1360Q278 1360 224 1287Q170 1214 170 1090L170 346Z"  horiz-adv-x="780" vert-adv-y="2048"  />

      
      <glyph glyph-name="uni31" unicode="&#x31;" d="M131 1153L131 1235Q230 1242 287 1295Q344 1348 375 1436L449 1436L449 0L354 0L354 1274Q272 1165 131 1153Z"  horiz-adv-x="575" vert-adv-y="2048"  />

      
      <glyph glyph-name="uni32" unicode="&#x32;" d="M82 0L82 70Q82 173 111 264Q140 355 186 423Q232 491 288 554Q344 617 400 675.50Q456 734 502 793Q548 852 577 925Q606 998 606 1077Q606 1360 387 1360Q275 1360 223.50 1284Q172 1208 172 1083L172 985L82 985L82 1077Q82 1243 158 1344.50Q234 1446 391 1446Q550 1446 625 1347Q700 1248 700 1081Q700 997 671.50 919Q643 841 597 778.50Q551 716 495.50 655.50Q440 595 384.50 533.50Q329 472 282.50 409Q236 346 206.50 266.50Q177 187 176 102L176 86L688 86L688 0L82 0Z"  horiz-adv-x="772" vert-adv-y="2048"  />

      
      <glyph glyph-name="uni33" unicode="&#x33;" d="M78 350L78 432L168 432L168 346Q168 221 220 147.50Q272 74 385 74Q602 74 602 352L602 463Q602 576 547.50 638.50Q493 701 389 705L293 705L293 791L393 791Q489 797 545.50 862Q602 927 602 1030L602 1081Q602 1360 385 1360Q272 1360 220 1287.50Q168 1215 168 1090L168 1032L78 1032L78 1083Q78 1249 154 1347.50Q230 1446 387 1446Q544 1446 620 1347.50Q696 1249 696 1083L696 1049Q696 942 646.50 863Q597 784 506 752Q600 724 648 647Q696 570 696 461L696 350Q696 184 620 86Q544-12 387-12Q230-12 154 86Q78 184 78 350Z"  horiz-adv-x="774" vert-adv-y="2048"  />

      
      <glyph glyph-name="uni34" unicode="&#x34;" d="M63 317L63 406L539 1436L645 1436L645 403L766 403L766 317L645 317L645 0L553 0L553 317L63 317M150 403L553 403L553 1260L150 403Z"  horiz-adv-x="825" vert-adv-y="2048"  />

      
      <glyph glyph-name="uni35" unicode="&#x35;" d="M78 350L78 428L168 428L168 346Q168 223 221 149.50Q274 76 385 76Q498 76 551 149.50Q604 223 604 346L604 588Q604 711 551 784.50Q498 858 385 858Q307 858 254.50 816Q202 774 180 694L180 670L92 670L129 1436L668 1436L668 1348L215 1348L188 836Q257 946 420 946Q562 946 630 850.50Q698 755 698 596L698 350Q698 186 621 87Q544-12 387-12Q231-12 154.50 87Q78 186 78 350Z"  horiz-adv-x="774" vert-adv-y="2048"  />

      
      <glyph glyph-name="uni36" unicode="&#x36;" d="M76 350L76 1079Q76 1249 154 1347.50Q232 1446 393 1446Q551 1446 626.50 1350.50Q702 1255 702 1090L702 1073L612 1073L612 1096Q612 1219 560 1289.50Q508 1360 395 1360Q279 1360 224.50 1285Q170 1210 170 1077L170 745Q248 877 426 877Q570 877 639.50 781.50Q709 686 709 526L709 350Q709 185 630 86.50Q551-12 393-12Q234-12 155 86.50Q76 185 76 350M170 346Q170 221 224 148.50Q278 76 393 76Q506 76 560 148.50Q614 221 614 346L614 520Q614 643 560 715.50Q506 788 393 788Q279 788 224.50 715.50Q170 643 170 520L170 346Z"  horiz-adv-x="782" vert-adv-y="2048"  />

      
      <glyph glyph-name="uni37" unicode="&#x37;" d="M76 1348L76 1436L698 1436L698 1350L295 0L199 0L602 1348L76 1348Z"  horiz-adv-x="774" vert-adv-y="2048"  />

      
      <glyph glyph-name="uni38" unicode="&#x38;" d="M72 342L72 444Q72 694 264 752Q72 806 72 1053L72 1098Q72 1261 155 1353.50Q238 1446 397 1446Q555 1446 639 1353.50Q723 1261 723 1098L723 1053Q723 937 676 858Q629 779 532 752Q723 696 723 444L723 342Q723 179 640 83.50Q557-12 397-12Q236-12 154 83Q72 178 72 342M166 344Q166 216 224.50 145Q283 74 397 74Q511 74 569 145Q627 216 629 344L629 453Q629 705 397 705Q279 705 222.50 642.50Q166 580 166 453L166 344M166 1036Q166 791 397 791Q511 791 570 853Q629 915 629 1036L629 1096Q629 1223 569.50 1291.50Q510 1360 397 1360Q283 1360 224.50 1292Q166 1224 166 1096L166 1036Z"  horiz-adv-x="794" vert-adv-y="2048"  />

      
      <glyph glyph-name="uni39" unicode="&#x39;" d="M74 909L74 1083Q74 1249 152.50 1348.50Q231 1448 389 1448Q548 1448 626.50 1349Q705 1250 705 1083L705 354Q705 186 627 87Q549-12 389-12Q231-12 153.50 84.50Q76 181 76 346L76 365L166 365L166 342Q166 218 220 146Q274 74 387 74Q610 74 610 358L610 711Q577 632 514.50 595.50Q452 559 356 559Q212 559 143 653.50Q74 748 74 909M168 915Q168 791 222 718Q276 645 389 645Q502 645 556 718Q610 791 610 915L610 1090Q610 1214 556 1287Q502 1360 389 1360Q276 1360 222 1287Q168 1214 168 1090L168 915Z"  horiz-adv-x="782" vert-adv-y="2048"  />

      
      <glyph glyph-name="uni3a" unicode="&#x3a;" d="M82 0L82 180L174 180L174 0L82 0M82 780L82 961L174 961L174 780L82 780Z"  horiz-adv-x="256" vert-adv-y="2048"  />

      
      <glyph glyph-name="uni3b" unicode="&#x3b;" d="M92-156L133 0L102 0L102 180L193 180L193 8L133-156L92-156M102 780L102 961L193 961L193 780L102 780Z"  horiz-adv-x="274" vert-adv-y="2048"  />

      
      <glyph glyph-name="uni3c" unicode="&#x3c;" d="M74 682L74 752L676 1026L676 952L166 717L676 481L676 408L74 682Z"  horiz-adv-x="757" vert-adv-y="2048"  />

      
      <glyph glyph-name="uni3d" unicode="&#x3d;" d="M78 586L78 655L547 655L547 586L78 586M78 836L78 905L547 905L547 836L78 836Z"  horiz-adv-x="624" vert-adv-y="2048"  />

      
      <glyph glyph-name="uni3e" unicode="&#x3e;" d="M82 408L82 481L594 717L82 952L82 1026L684 752L684 682L82 408Z"  horiz-adv-x="757" vert-adv-y="2048"  />

      
      <glyph glyph-name="uni3f" unicode="&#x3f;" d="M68 983L68 1077Q68 1244 142 1345Q216 1446 373 1446Q454 1446 514 1418.50Q574 1391 609.50 1340.50Q645 1290 661.50 1225.50Q678 1161 678 1081Q678 992 647 915.50Q616 839 572 782Q528 725 484.50 670Q441 615 410 544.50Q379 474 379 395Q379 361 389 319L303 319Q293 361 293 399Q293 462 309 518.50Q325 575 350.50 618Q376 661 407 702.50Q438 744 469.50 785Q501 826 526.50 869Q552 912 568 967.50Q584 1023 584 1085Q584 1360 371 1360Q313 1360 270.50 1338.50Q228 1317 204 1278Q180 1239 169 1191Q158 1143 158 1083L158 983L68 983M299 0L299 178L389 178L389 0L299 0Z"  horiz-adv-x="743" vert-adv-y="2048"  />

      
      <glyph glyph-name="uni40" unicode="&#x40;" d="M70 586Q70 730 96 861.50Q122 993 179.50 1109.50Q237 1226 320.50 1311Q404 1396 527 1445.50Q650 1495 799 1495Q942 1495 1047.50 1453.50Q1153 1412 1217 1333.50Q1281 1255 1312 1151Q1343 1047 1343 915Q1343 756 1303.50 617Q1264 478 1182.50 386Q1101 294 993 293Q926 293 890.50 331.50Q855 370 852 436Q786 278 631 281Q552 282 503.50 326.50Q455 371 441 438.50Q427 506 436 594L457 797Q471 932 535.50 1012.50Q600 1093 715 1092Q863 1089 901 946L915 1081L999 1081L938 496Q933 446 951 409.50Q969 373 1016 373Q1074 374 1119.50 412Q1165 450 1193 507.50Q1221 565 1239 639.50Q1257 714 1264 782Q1271 850 1270 913Q1270 1154 1153 1286.50Q1036 1419 795 1419Q663 1419 555 1375Q447 1331 373 1254Q299 1177 248.50 1070.50Q198 964 175 842Q152 720 152 582Q152 290 290 135Q428-20 711-20Q940-20 1094 98L1087 12Q929-96 707-96Q385-96 227.50 82Q70 260 70 586M520 594Q514 549 520 507.50Q526 466 541 433.50Q556 401 588.50 381.50Q621 362 668 362Q757 361 805.50 426Q854 491 864 594L887 793Q897 887 860.50 947.50Q824 1008 737 1008Q648 1008 599 947.50Q550 887 539 786L520 594Z"  horiz-adv-x="1409" vert-adv-y="2048"  />

      
      <glyph glyph-name="uni41" unicode="&#x41;" d="M61 0L375 1436L512 1436L831 0L737 0L666 317L219 317L147 0L61 0M233 399L651 399L440 1327L233 399Z"  horiz-adv-x="892" vert-adv-y="2048"  />

      
      <glyph glyph-name="uni42" unicode="&#x42;" d="M82 0L82 1434L383 1434Q540 1434 608 1358Q676 1282 676 1128L676 1047Q676 924 633.50 855Q591 786 487 764Q702 721 702 457L702 332Q702 0 389 0L82 0M176 86L389 86Q504 86 556 148Q608 210 608 334L608 463Q608 599 546.50 657Q485 715 354 715L176 715L176 86M176 801L336 801Q468 801 525 849Q582 897 582 1028L582 1120Q582 1238 537 1293Q492 1348 381 1348L176 1348L176 801Z"  horiz-adv-x="774" vert-adv-y="2048"  />

      
      <glyph glyph-name="uni43" unicode="&#x43;" d="M76 350L76 1083Q76 1248 152 1347Q228 1446 385 1446Q542 1446 618 1347Q694 1248 694 1083L694 965L604 965L604 1090Q604 1214 552 1287Q500 1360 387 1360Q274 1360 222 1287Q170 1214 170 1090L170 344Q170 220 222 148Q274 76 387 76Q500 76 552 148Q604 220 604 344L604 514L694 514L694 350Q694 185 618 86.50Q542-12 385-12Q228-12 152 86.50Q76 185 76 350Z"  horiz-adv-x="765" vert-adv-y="2048"  />

      
      <glyph glyph-name="uni44" unicode="&#x44;" d="M82 0L82 1434L397 1434Q557 1434 636 1338Q715 1242 715 1077L715 356Q715 191 636 95.50Q557 0 397 0L82 0M176 86L395 86Q510 86 565.50 157Q621 228 621 352L621 1081Q621 1205 565 1276.50Q509 1348 395 1348L176 1348L176 86Z"  horiz-adv-x="788" vert-adv-y="2048"  />

      
      <glyph glyph-name="uni45" unicode="&#x45;" d="M82 0L82 1434L647 1434L647 1348L176 1348L176 770L567 770L567 684L176 684L176 86L647 86L647 0L82 0Z"  horiz-adv-x="718" vert-adv-y="2048"  />

      
      <glyph glyph-name="uni46" unicode="&#x46;" d="M82 0L82 1434L627 1434L627 1348L176 1348L176 735L547 735L547 649L176 649L176 0L82 0Z"  horiz-adv-x="688" vert-adv-y="2048"  />

      
      <glyph glyph-name="uni47" unicode="&#x47;" d="M76 350L76 1083Q76 1248 152 1347Q228 1446 385 1446Q542 1446 618 1347Q694 1248 694 1083L694 977L604 977L604 1090Q604 1214 552 1287Q500 1360 387 1360Q274 1360 222 1287Q170 1214 170 1090L170 344Q170 220 222 148Q274 76 387 76Q500 76 552 148Q604 220 604 344L604 653L414 653L414 739L694 739L694 350Q694 185 618 86.50Q542-12 385-12Q228-12 152 86.50Q76 185 76 350Z"  horiz-adv-x="770" vert-adv-y="2048"  />

      
      <glyph glyph-name="uni48" unicode="&#x48;" d="M82 0L82 1434L176 1434L176 760L623 760L623 1434L719 1434L719 0L623 0L623 674L176 674L176 0L82 0Z"  horiz-adv-x="800" vert-adv-y="2048"  />

      
      <glyph glyph-name="uni49" unicode="&#x49;" d="M82 0L82 1434L176 1434L176 0L82 0Z"  horiz-adv-x="258" vert-adv-y="2048"  />

      
      <glyph glyph-name="uni4a" unicode="&#x4a;" d="M59 0L59 86Q69 85 82 85Q107 85 143 88Q247 96 296.50 156.50Q346 217 346 346L346 1434L440 1434L440 352Q440 171 366 88.50Q292 6 154 0Q131-2 107.50-2Q84-2 59 0Z"  horiz-adv-x="518" vert-adv-y="2048"  />

      
      <glyph glyph-name="uni4b" unicode="&#x4b;" d="M82 0L82 1434L176 1434L176 676L643 1434L741 1434L332 766L768 0L670 0L274 674L176 518L176 0L82 0Z"  horiz-adv-x="827" vert-adv-y="2048"  />

      
      <glyph glyph-name="uni4c" unicode="&#x4c;" d="M82 0L82 1434L176 1434L176 86L627 86L627 0L82 0Z"  horiz-adv-x="686" vert-adv-y="2048"  />

      
      <glyph glyph-name="uni4d" unicode="&#x4d;" d="M82 0L82 1434L217 1434L518 166L817 1434L952 1434L952 0L862 0L862 1274L563 2L469 2L166 1270L166 0L82 0Z"  horiz-adv-x="1034" vert-adv-y="2048"  />

      
      <glyph glyph-name="uni4e" unicode="&#x4e;" d="M82 0L82 1434L205 1434L635 223L635 1434L721 1434L721 0L616 0L168 1278L168 0L82 0Z"  horiz-adv-x="800" vert-adv-y="2048"  />

      
      <glyph glyph-name="uni4f" unicode="&#x4f;" d="M76 350L76 1083Q76 1248 154.50 1347Q233 1446 389 1446Q548 1446 627.50 1347Q707 1248 707 1083L707 350Q707 185 627.50 86.50Q548-12 389-12Q233-12 154.50 86.50Q76 185 76 350M170 344Q170 219 223 146.50Q276 74 389 74Q504 74 558 147Q612 220 612 344L612 1090Q612 1214 558 1287Q504 1360 389 1360Q276 1360 223 1287.50Q170 1215 170 1090L170 344Z"  horiz-adv-x="780" vert-adv-y="2048"  />

      
      <glyph glyph-name="uni50" unicode="&#x50;" d="M82 0L82 1434L379 1434Q538 1434 612 1342Q686 1250 686 1085L686 930Q686 759 604.50 674.50Q523 590 354 590L176 590L176 0L82 0M176 676L354 676Q479 676 535.50 735Q592 794 592 924L592 1092Q592 1216 543 1282Q494 1348 379 1348L176 1348L176 676Z"  horiz-adv-x="749" vert-adv-y="2048"  />

      
      <glyph glyph-name="uni51" unicode="&#x51;" d="M76 350L76 1083Q76 1248 154.50 1347Q233 1446 391 1446Q549 1446 628 1347Q707 1248 707 1083L707 350Q707 193 639 102Q672 45 752 45L774 45L774-39L750-39Q632-39 580 45Q503-12 391-12Q233-12 154.50 86.50Q76 185 76 350M170 344Q170 220 224 147Q278 74 391 74Q504 74 558 147Q612 220 612 344L612 1090Q612 1214 558 1287Q504 1360 391 1360Q278 1360 224 1287Q170 1214 170 1090L170 344Z"  horiz-adv-x="835" vert-adv-y="2048"  />

      
      <glyph glyph-name="uni52" unicode="&#x52;" d="M82 0L82 1434L381 1434Q688 1434 688 1110L688 985Q688 736 481 688Q688 642 688 395L688 172Q688 53 723 0L625 0Q594 53 594 172L594 397Q594 532 526 586.50Q458 641 326 641L176 641L176 0L82 0M176 727L328 727Q464 727 529 778.50Q594 830 594 967L594 1102Q594 1222 543 1285Q492 1348 379 1348L176 1348L176 727Z"  horiz-adv-x="790" vert-adv-y="2048"  />

      
      <glyph glyph-name="uni53" unicode="&#x53;" d="M70 346L70 420L160 420L160 340Q160 217 212 146.50Q264 76 377 76Q490 76 542 146.50Q594 217 594 340Q594 410 565.50 468.50Q537 527 491 570Q445 613 390 653.50Q335 694 280 736.50Q225 779 179 826.50Q133 874 104.50 941.50Q76 1009 76 1090Q76 1257 151.50 1351Q227 1445 381 1446Q486 1446 556 1398.50Q626 1351 656 1272.50Q686 1194 686 1087L686 1057L596 1057L596 1094Q596 1216 545 1288Q494 1360 383 1360Q272 1360 221 1289Q170 1218 170 1096Q170 1026 198.50 966.50Q227 907 273 863.50Q319 820 374 779.50Q429 739 484 696.50Q539 654 585 607Q631 560 659.50 493Q688 426 688 346Q688 182 612 85Q536-12 379-12Q222-12 146 85Q70 182 70 346Z"  horiz-adv-x="757" vert-adv-y="2048"  />

      
      <glyph glyph-name="uni54" unicode="&#x54;" d="M37 1348L37 1434L715 1434L715 1348L424 1348L424 0L330 0L330 1348L37 1348Z"  horiz-adv-x="755" vert-adv-y="2048"  />

      
      <glyph glyph-name="uni55" unicode="&#x55;" d="M78 350L78 1434L172 1434L172 346Q172 221 223.50 147.50Q275 74 387 74Q499 74 550.50 147.50Q602 221 602 346L602 1434L690 1434L690 350Q690 186 615.50 87Q541-12 385-12Q229-12 153.50 87Q78 186 78 350Z"  horiz-adv-x="770" vert-adv-y="2048"  />

      
      <glyph glyph-name="uni56" unicode="&#x56;" d="M61 1434L158 1434L449 109L739 1434L827 1434L516 0L377 0L61 1434Z"  horiz-adv-x="888" vert-adv-y="2048"  />

      
      <glyph glyph-name="uni57" unicode="&#x57;" d="M63 1434L156 1434L371 127L580 1427L680 1427L881 131L1087 1434L1171 1434L942 0L819 0L627 1174L426 0L295 0L63 1434Z"  horiz-adv-x="1234" vert-adv-y="2048"  />

      
      <glyph glyph-name="uni58" unicode="&#x58;" d="M63 0L387 743L86 1434L184 1434L455 817L727 1434L817 1434L516 743L838 0L737 0L446 668L156 0L63 0Z"  horiz-adv-x="901" vert-adv-y="2048"  />

      
      <glyph glyph-name="uni59" unicode="&#x59;" d="M55 1434L154 1434L428 680L702 1434L795 1434L471 551L471 0L377 0L377 551L55 1434Z"  horiz-adv-x="849" vert-adv-y="2048"  />

      
      <glyph glyph-name="uni5a" unicode="&#x5a;" d="M70 0L70 86L625 1348L96 1348L96 1434L723 1434L723 1346L168 86L715 86L715 0L70 0Z"  horiz-adv-x="794" vert-adv-y="2048"  />

      
      <glyph glyph-name="uni5b" unicode="&#x5b;" d="M88 0L88 1436L408 1436L408 1356L182 1356L182 80L408 80L408 0L88 0Z"  horiz-adv-x="475" vert-adv-y="2048"  />

      
      <glyph glyph-name="uni5c" unicode="&#x5c;" d="M55 1434L139 1434L705 0L621 0L55 1434Z"  horiz-adv-x="759" vert-adv-y="2048"  />

      
      <glyph glyph-name="uni5d" unicode="&#x5d;" d="M70 0L70 80L295 80L295 1356L70 1356L70 1436L389 1436L389 0L70 0Z"  horiz-adv-x="475" vert-adv-y="2048"  />

      
      <glyph glyph-name="uni5e" unicode="&#x5e;" d="M68 801L383 1434L455 1434L770 801L690 801L418 1346L147 801L68 801Z"  horiz-adv-x="837" vert-adv-y="2048"  />

      
      <glyph glyph-name="uni5f" unicode="&#x5f;" d="M53-20L985-20L985-92L53-92L53-20Z"  horiz-adv-x="1050" vert-adv-y="2048"  />

      
      <glyph glyph-name="uni60" unicode="&#x60;" d="M84 1737L186 1737L332 1542L258 1542L84 1737Z"  horiz-adv-x="403" vert-adv-y="2048"  />

      
      <glyph glyph-name="uni61" unicode="&#x61;" d="M61 0L375 1436L512 1436L831 0L737 0L666 317L219 317L147 0L61 0M233 399L651 399L440 1327L233 399Z"  horiz-adv-x="892" vert-adv-y="2048"  />

      
      <glyph glyph-name="uni62" unicode="&#x62;" d="M82 0L82 1434L383 1434Q540 1434 608 1358Q676 1282 676 1128L676 1047Q676 924 633.50 855Q591 786 487 764Q702 721 702 457L702 332Q702 0 389 0L82 0M176 86L389 86Q504 86 556 148Q608 210 608 334L608 463Q608 599 546.50 657Q485 715 354 715L176 715L176 86M176 801L336 801Q468 801 525 849Q582 897 582 1028L582 1120Q582 1238 537 1293Q492 1348 381 1348L176 1348L176 801Z"  horiz-adv-x="774" vert-adv-y="2048"  />

      
      <glyph glyph-name="uni63" unicode="&#x63;" d="M76 350L76 1083Q76 1248 152 1347Q228 1446 385 1446Q542 1446 618 1347Q694 1248 694 1083L694 965L604 965L604 1090Q604 1214 552 1287Q500 1360 387 1360Q274 1360 222 1287Q170 1214 170 1090L170 344Q170 220 222 148Q274 76 387 76Q500 76 552 148Q604 220 604 344L604 514L694 514L694 350Q694 185 618 86.50Q542-12 385-12Q228-12 152 86.50Q76 185 76 350Z"  horiz-adv-x="765" vert-adv-y="2048"  />

      
      <glyph glyph-name="uni64" unicode="&#x64;" d="M82 0L82 1434L397 1434Q557 1434 636 1338Q715 1242 715 1077L715 356Q715 191 636 95.50Q557 0 397 0L82 0M176 86L395 86Q510 86 565.50 157Q621 228 621 352L621 1081Q621 1205 565 1276.50Q509 1348 395 1348L176 1348L176 86Z"  horiz-adv-x="788" vert-adv-y="2048"  />

      
      <glyph glyph-name="uni65" unicode="&#x65;" d="M82 0L82 1434L647 1434L647 1348L176 1348L176 770L567 770L567 684L176 684L176 86L647 86L647 0L82 0Z"  horiz-adv-x="718" vert-adv-y="2048"  />

      
      <glyph glyph-name="uni66" unicode="&#x66;" d="M82 0L82 1434L627 1434L627 1348L176 1348L176 735L547 735L547 649L176 649L176 0L82 0Z"  horiz-adv-x="688" vert-adv-y="2048"  />

      
      <glyph glyph-name="uni67" unicode="&#x67;" d="M76 350L76 1083Q76 1248 152 1347Q228 1446 385 1446Q542 1446 618 1347Q694 1248 694 1083L694 977L604 977L604 1090Q604 1214 552 1287Q500 1360 387 1360Q274 1360 222 1287Q170 1214 170 1090L170 344Q170 220 222 148Q274 76 387 76Q500 76 552 148Q604 220 604 344L604 653L414 653L414 739L694 739L694 350Q694 185 618 86.50Q542-12 385-12Q228-12 152 86.50Q76 185 76 350Z"  horiz-adv-x="770" vert-adv-y="2048"  />

      
      <glyph glyph-name="uni68" unicode="&#x68;" d="M82 0L82 1434L176 1434L176 760L623 760L623 1434L719 1434L719 0L623 0L623 674L176 674L176 0L82 0Z"  horiz-adv-x="800" vert-adv-y="2048"  />

      
      <glyph glyph-name="uni69" unicode="&#x69;" d="M82 0L82 1434L176 1434L176 0L82 0Z"  horiz-adv-x="258" vert-adv-y="2048"  />

      
      <glyph glyph-name="uni6a" unicode="&#x6a;" d="M59 0L59 86Q69 85 82 85Q107 85 143 88Q247 96 296.50 156.50Q346 217 346 346L346 1434L440 1434L440 352Q440 171 366 88.50Q292 6 154 0Q131-2 107.50-2Q84-2 59 0Z"  horiz-adv-x="518" vert-adv-y="2048"  />

      
      <glyph glyph-name="uni6b" unicode="&#x6b;" d="M82 0L82 1434L176 1434L176 676L643 1434L741 1434L332 766L768 0L670 0L274 674L176 518L176 0L82 0Z"  horiz-adv-x="827" vert-adv-y="2048"  />

      
      <glyph glyph-name="uni6c" unicode="&#x6c;" d="M82 0L82 1434L176 1434L176 86L627 86L627 0L82 0Z"  horiz-adv-x="686" vert-adv-y="2048"  />

      
      <glyph glyph-name="uni6d" unicode="&#x6d;" d="M82 0L82 1434L217 1434L518 166L817 1434L952 1434L952 0L862 0L862 1274L563 2L469 2L166 1270L166 0L82 0Z"  horiz-adv-x="1034" vert-adv-y="2048"  />

      
      <glyph glyph-name="uni6e" unicode="&#x6e;" d="M82 0L82 1434L205 1434L635 223L635 1434L721 1434L721 0L616 0L168 1278L168 0L82 0Z"  horiz-adv-x="800" vert-adv-y="2048"  />

      
      <glyph glyph-name="uni6f" unicode="&#x6f;" d="M76 350L76 1083Q76 1248 154.50 1347Q233 1446 389 1446Q548 1446 627.50 1347Q707 1248 707 1083L707 350Q707 185 627.50 86.50Q548-12 389-12Q233-12 154.50 86.50Q76 185 76 350M170 344Q170 219 223 146.50Q276 74 389 74Q504 74 558 147Q612 220 612 344L612 1090Q612 1214 558 1287Q504 1360 389 1360Q276 1360 223 1287.50Q170 1215 170 1090L170 344Z"  horiz-adv-x="780" vert-adv-y="2048"  />

      
      <glyph glyph-name="uni70" unicode="&#x70;" d="M82 0L82 1434L379 1434Q538 1434 612 1342Q686 1250 686 1085L686 930Q686 759 604.50 674.50Q523 590 354 590L176 590L176 0L82 0M176 676L354 676Q479 676 535.50 735Q592 794 592 924L592 1092Q592 1216 543 1282Q494 1348 379 1348L176 1348L176 676Z"  horiz-adv-x="745" vert-adv-y="2048"  />

      
      <glyph glyph-name="uni71" unicode="&#x71;" d="M76 350L76 1083Q76 1248 154.50 1347Q233 1446 391 1446Q549 1446 628 1347Q707 1248 707 1083L707 350Q707 193 639 102Q672 45 752 45L774 45L774-39L750-39Q632-39 580 45Q503-12 391-12Q233-12 154.50 86.50Q76 185 76 350M170 344Q170 220 224 147Q278 74 391 74Q504 74 558 147Q612 220 612 344L612 1090Q612 1214 558 1287Q504 1360 391 1360Q278 1360 224 1287Q170 1214 170 1090L170 344Z"  horiz-adv-x="796" vert-adv-y="2048"  />

      
      <glyph glyph-name="uni72" unicode="&#x72;" d="M82 0L82 1434L381 1434Q688 1434 688 1110L688 985Q688 736 481 688Q688 642 688 395L688 172Q688 53 723 0L625 0Q594 53 594 172L594 397Q594 532 526 586.50Q458 641 326 641L176 641L176 0L82 0M176 727L328 727Q464 727 529 778.50Q594 830 594 967L594 1102Q594 1222 543 1285Q492 1348 379 1348L176 1348L176 727Z"  horiz-adv-x="790" vert-adv-y="2048"  />

      
      <glyph glyph-name="uni73" unicode="&#x73;" d="M70 346L70 420L160 420L160 340Q160 217 212 146.50Q264 76 377 76Q490 76 542 146.50Q594 217 594 340Q594 410 565.50 468.50Q537 527 491 570Q445 613 390 653.50Q335 694 280 736.50Q225 779 179 826.50Q133 874 104.50 941.50Q76 1009 76 1090Q76 1257 151.50 1351Q227 1445 381 1446Q486 1446 556 1398.50Q626 1351 656 1272.50Q686 1194 686 1087L686 1057L596 1057L596 1094Q596 1216 545 1288Q494 1360 383 1360Q272 1360 221 1289Q170 1218 170 1096Q170 1026 198.50 966.50Q227 907 273 863.50Q319 820 374 779.50Q429 739 484 696.50Q539 654 585 607Q631 560 659.50 493Q688 426 688 346Q688 182 612 85Q536-12 379-12Q222-12 146 85Q70 182 70 346Z"  horiz-adv-x="757" vert-adv-y="2048"  />

      
      <glyph glyph-name="uni74" unicode="&#x74;" d="M33 1348L33 1434L711 1434L711 1348L418 1348L418 0L324 0L324 1348L33 1348Z"  horiz-adv-x="745" vert-adv-y="2048"  />

      
      <glyph glyph-name="uni75" unicode="&#x75;" d="M78 350L78 1434L172 1434L172 346Q172 221 223.50 147.50Q275 74 387 74Q499 74 550.50 147.50Q602 221 602 346L602 1434L690 1434L690 350Q690 186 615.50 87Q541-12 385-12Q229-12 153.50 87Q78 186 78 350Z"  horiz-adv-x="770" vert-adv-y="2048"  />

      
      <glyph glyph-name="uni76" unicode="&#x76;" d="M61 1434L158 1434L449 109L739 1434L827 1434L516 0L377 0L61 1434Z"  horiz-adv-x="888" vert-adv-y="2048"  />

      
      <glyph glyph-name="uni77" unicode="&#x77;" d="M63 1434L156 1434L371 127L580 1427L680 1427L881 131L1087 1434L1171 1434L942 0L819 0L627 1174L426 0L295 0L63 1434Z"  horiz-adv-x="1234" vert-adv-y="2048"  />

      
      <glyph glyph-name="uni78" unicode="&#x78;" d="M63 0L387 743L86 1434L184 1434L455 817L727 1434L817 1434L516 743L838 0L737 0L446 668L156 0L63 0Z"  horiz-adv-x="901" vert-adv-y="2048"  />

      
      <glyph glyph-name="uni79" unicode="&#x79;" d="M55 1434L154 1434L428 680L702 1434L795 1434L471 551L471 0L377 0L377 551L55 1434Z"  horiz-adv-x="849" vert-adv-y="2048"  />

      
      <glyph glyph-name="uni7a" unicode="&#x7a;" d="M70 0L70 86L625 1348L96 1348L96 1434L723 1434L723 1346L168 86L715 86L715 0L70 0Z"  horiz-adv-x="794" vert-adv-y="2048"  />

      
      <glyph glyph-name="uni7b" unicode="&#x7b;" d="M61 674L61 760Q140 773 163.50 811Q187 849 190 940L205 1223Q211 1324 253 1380Q295 1436 385 1436L461 1436L461 1356L416 1356Q347 1356 321.50 1314.50Q296 1273 291 1186L279 928Q277 887 272 858.50Q267 830 253.50 800Q240 770 213 749.50Q186 729 145 717Q222 696 248.50 644.50Q275 593 279 506L291 250Q296 162 321 121Q346 80 416 80L461 80L461 0L385 0Q295 0 253 55.50Q211 111 205 213L190 494Q187 585 163.50 624Q140 663 61 674Z"  horiz-adv-x="524" vert-adv-y="2048"  />

      
      <glyph glyph-name="uni7c" unicode="&#x7c;" d="M221-47L221 1483L299 1483L299-47L221-47Z"  horiz-adv-x="512" vert-adv-y="2048"  />

      
      <glyph glyph-name="uni7d" unicode="&#x7d;" d="M63 0L63 80L111 80Q179 80 203.50 121Q228 162 233 250L248 506Q250 549 254.50 577Q259 605 272.50 635.50Q286 666 313 686Q340 706 381 717Q340 729 313 749.50Q286 770 272.50 800Q259 830 254.50 858Q250 886 248 928L233 1186Q228 1273 203.50 1314.50Q179 1356 111 1356L63 1356L63 1436L139 1436Q230 1436 271 1380.50Q312 1325 319 1223L334 940Q339 848 362 810.50Q385 773 465 760L465 674Q423 668 397 655.50Q371 643 358 618Q345 593 341 567Q337 541 334 494L319 213Q313 110 271.50 55Q230 0 139 0L63 0Z"  horiz-adv-x="524" vert-adv-y="2048"  />

      
      <glyph glyph-name="uni7e" unicode="&#x7e;" d="M57 674Q102 746 149.50 780.50Q197 815 254 815Q305 817 364 784.50Q423 752 477.50 720Q532 688 573 690Q612 691 640 718Q668 745 705 801L754 754Q711 685 669 651Q627 617 575 614Q535 613 489.50 632.50Q444 652 409.50 676.50Q375 701 331.50 721.50Q288 742 252 741Q208 741 174 714Q140 687 106 631L57 674Z"  horiz-adv-x="813" vert-adv-y="2048"  />

      
      <glyph glyph-name="unia2" unicode="&#xa2;" d="M80 446L80 989Q80 1088 106 1163.50Q132 1239 193 1289.50Q254 1340 346 1348L346 1444L426 1444L426 1348Q565 1338 630.50 1245Q696 1152 696 999L696 934L606 934L606 1004Q606 1264 389 1264Q278 1264 226 1191.50Q174 1119 174 995L174 442Q174 318 226 245Q278 172 389 172Q502 172 554 243.50Q606 315 606 438L606 551L696 551L696 444Q696 289 630 193.50Q564 98 426 88L426-10L346-10L346 88Q254 96 193 146.50Q132 197 106 272Q80 347 80 446Z"  horiz-adv-x="772" vert-adv-y="2048"  />

      
      <glyph glyph-name="unia3" unicode="&#xa3;" d="M74 0L74 84Q173 160 233 266Q293 372 276 492L100 492L100 567L262 567Q246 621 214.50 686Q183 751 159.50 798Q136 845 117 920Q98 995 98 1081Q98 1247 172.50 1346.50Q247 1446 406 1446Q561 1446 634 1344.50Q707 1243 707 1077L707 989L618 989L618 1081Q618 1162 599.50 1221.50Q581 1281 532.50 1320.50Q484 1360 408 1360Q193 1360 193 1085Q193 1000 212 924.50Q231 849 255 801.50Q279 754 309 688.50Q339 623 354 567L655 567L655 492L362 492Q373 396 336.50 301Q300 206 193 86L711 86L711 0L74 0Z"  horiz-adv-x="790" vert-adv-y="2048"  />

      
      <glyph glyph-name="unia5" unicode="&#xa5;" d="M57 1434L158 1434L444 668L733 1434L823 1434L494 561L711 561L711 508L487 508L487 358L711 358L711 305L487 305L487 0L393 0L393 305L172 305L172 358L393 358L393 508L172 508L172 561L385 561L57 1434Z"  horiz-adv-x="882" vert-adv-y="2048"  />

      
      <glyph glyph-name="unia8" unicode="&#xa8;" d="M139 1526L139 1700L250 1700L250 1526L139 1526Z"  horiz-adv-x="389" vert-adv-y="2048"  />

      
      <glyph glyph-name="unia9" unicode="&#xa9;" d="M157 350.50Q157 350.50 112.50 432.25Q68 514 68 717Q68 920 157 1083.50Q246 1247 406 1340.50Q566 1434 766 1434Q915 1434 1045 1379.50Q1175 1325 1266.50 1230Q1358 1135 1411 1002Q1464 869 1464 717Q1464 565 1411 432Q1358 299 1266.50 204Q1175 109 1045 54.50Q915 0 766 0Q566 0 406 93.50Q246 187 157 350.50M213.50 1050Q213.50 1050 173.25 975.50Q133 901 133 717Q133 533 213.50 384Q294 235 439.50 149Q585 63 766 63Q947 63 1092 149Q1237 235 1317 384Q1397 533 1397 717Q1397 901 1317 1050Q1237 1199 1092 1284.50Q947 1370 766 1370Q585 1370 439.50 1284.50Q294 1199 213.50 1050M541 518L541 913Q541 1028 594.50 1096.50Q648 1165 758 1165Q866 1165 918.50 1096.50Q971 1028 971 913L971 864L905 864L905 918Q905 1102 758 1102Q682 1102 646 1051.50Q610 1001 610 918L610 516Q610 433 646 382.50Q682 332 758 332Q905 332 905 516L905 592L971 592L971 518Q971 404 918 335Q865 266 758 266Q648 266 594.50 335Q541 404 541 518Z"  horiz-adv-x="1531" vert-adv-y="2048"  />

      
      <glyph glyph-name="uniab" unicode="&#xab;" d="M63 719L199 1221L285 1221L152 719L285 207L199 207L63 719M301 719L434 1221L520 1221L387 719L520 207L434 207L301 719Z"  horiz-adv-x="583" vert-adv-y="2048"  />

      
      <glyph glyph-name="uniad" unicode="&#xad;" d="M78 674L78 760L455 760L455 674L78 674Z"  horiz-adv-x="532" vert-adv-y="2048"  />

      
      <glyph glyph-name="uniae" unicode="&#xae;" d="M157 350.50Q157 350.50 112.50 432.25Q68 514 68 717Q68 920 157 1083.50Q246 1247 406 1340.50Q566 1434 766 1434Q915 1434 1045 1379.50Q1175 1325 1266.50 1230Q1358 1135 1411 1002Q1464 869 1464 717Q1464 565 1411 432Q1358 299 1266.50 204Q1175 109 1045 54.50Q915 0 766 0Q566 0 406 93.50Q246 187 157 350.50M213.50 1050Q213.50 1050 173.25 975.50Q133 901 133 717Q133 533 213.50 384Q294 235 439.50 149Q585 63 766 63Q947 63 1092 149Q1237 235 1317 384Q1397 533 1397 717Q1397 901 1317 1050Q1237 1199 1092 1284.50Q947 1370 766 1370Q585 1370 439.50 1284.50Q294 1199 213.50 1050M563 279L563 1155L774 1155Q989 1155 989 928L989 901Q989 734 858 694Q989 654 989 492L989 397Q989 313 1014 279L942 279Q920 319 920 399L920 494Q920 588 872 623.50Q824 659 731 659L633 659L633 279L563 279M633 725L750 725Q838 725 879 762Q920 799 920 889L920 920Q920 1005 885.50 1047.50Q851 1090 770 1090L633 1090L633 725Z"  horiz-adv-x="1531" vert-adv-y="2048"  />

      
      <glyph glyph-name="unib4" unicode="&#xb4;" d="M72 1542L219 1737L315 1737L143 1542L72 1542Z"  horiz-adv-x="403" vert-adv-y="2048"  />

      
      <glyph glyph-name="unib8" unicode="&#xb8;" d="M72-174L139-174L139-184Q139-224 173.50-244Q208-264 252-266Q297-266 331-245Q365-224 365-182Q365-104 248-104L233-104L233 10L281 10L281-80Q354-82 394-104.50Q434-127 434-184Q434-251 382-280Q330-309 252-307Q177-307 124.50-277.50Q72-248 72-186L72-174Z"  horiz-adv-x="505" vert-adv-y="2048"  />

      
      <glyph glyph-name="unibb" unicode="&#xbb;" d="M63 207L197 719L63 1221L150 1221L285 719L150 207L63 207M301 207L432 719L301 1221L387 1221L520 719L387 207L301 207Z"  horiz-adv-x="583" vert-adv-y="2048"  />

      
      <glyph glyph-name="uni02C6" unicode="&#x02C6;" d="M43 1552L215 1737L297 1737L469 1552L381 1552L256 1681L131 1552L43 1552Z"  horiz-adv-x="512" vert-adv-y="2048"  />

      
      <glyph glyph-name="uni02DA" unicode="&#x02DA;" d="M86 1667Q86 1724 126 1763Q166 1802 223 1802Q280 1802 320 1763Q360 1724 360 1667Q360 1609 320 1569.50Q280 1530 223 1530Q166 1530 126 1569.50Q86 1609 86 1667M135 1667Q135 1629 160.50 1605Q186 1581 223 1581Q259 1581 285 1605.50Q311 1630 311 1667Q311 1703 285 1728Q259 1753 223 1753Q186 1753 160.50 1728.50Q135 1704 135 1667Z"  horiz-adv-x="446" vert-adv-y="2048"  />

      
      <glyph glyph-name="uni02DC" unicode="&#x02DC;" d="M45 1579Q91 1675 174 1675Q215 1676 276 1641.50Q337 1607 365 1608Q409 1608 440 1669L492 1636Q450 1541 373 1538Q333 1537 272.50 1572Q212 1607 182 1606Q128 1606 96 1544L45 1579Z"  horiz-adv-x="536" vert-adv-y="2048"  />

      
      <glyph glyph-name="uni0401" unicode="&#x0401;" d="M82 0L82 1434L647 1434L647 1348L176 1348L176 770L567 770L567 684L176 684L176 86L647 86L647 0L82 0M223 1526L223 1700L307 1700L307 1526L223 1526M422 1526L422 1700L506 1700L506 1526L422 1526Z"  horiz-adv-x="718" vert-adv-y="2048"  />

      
      <glyph glyph-name="uni0410" unicode="&#x0410;" d="M61 0L375 1436L512 1436L831 0L737 0L666 317L219 317L147 0L61 0M233 399L651 399L440 1327L233 399Z"  horiz-adv-x="892" vert-adv-y="2048"  />

      
      <glyph glyph-name="uni0411" unicode="&#x0411;" d="M82 0L82 1434L662 1434L662 1348L176 1348L176 823L381 823Q550 823 632.50 747.50Q715 672 715 504L715 342Q715 0 397 0L82 0M176 86L397 86Q514 86 567.50 148.50Q621 211 621 336L621 510Q621 637 564 686Q507 735 381 735L176 735L176 86Z"  horiz-adv-x="792" vert-adv-y="2048"  />

      
      <glyph glyph-name="uni0412" unicode="&#x0412;" d="M82 0L82 1434L383 1434Q540 1434 608 1358Q676 1282 676 1128L676 1047Q676 924 633.50 855Q591 786 487 764Q702 721 702 457L702 332Q702 0 389 0L82 0M176 86L389 86Q504 86 556 148Q608 210 608 334L608 463Q608 599 546.50 657Q485 715 354 715L176 715L176 86M176 801L336 801Q468 801 525 849Q582 897 582 1028L582 1120Q582 1238 537 1293Q492 1348 381 1348L176 1348L176 801Z"  horiz-adv-x="774" vert-adv-y="2048"  />

      
      <glyph glyph-name="uni0413" unicode="&#x0413;" d="M82 0L82 1434L633 1434L633 1348L176 1348L176 0L82 0Z"  horiz-adv-x="708" vert-adv-y="2048"  />

      
      <glyph glyph-name="uni0414" unicode="&#x0414;" d="M63 86L162 86Q201 126 215 180Q229 234 233 315L291 1434L815 1434L815 86L934 86L934-199L840-199L840 0L156 0L156-199L63-199L63 86M258 86L719 86L719 1348L379 1348L326 315Q321 229 307.50 177Q294 125 258 86Z"  horiz-adv-x="1001" vert-adv-y="2048"  />

      
      <glyph glyph-name="uni0415" unicode="&#x0415;" d="M82 0L82 1434L647 1434L647 1348L176 1348L176 770L567 770L567 684L176 684L176 86L647 86L647 0L82 0Z"  horiz-adv-x="718" vert-adv-y="2048"  />

      
      <glyph glyph-name="uni0416" unicode="&#x0416;" d="M57 0L432 805L74 1434L170 1434L590 696L590 1434L684 1434L684 696L1104 1434L1202 1434L846 807L1217 0L1120 0L780 717L684 553L684 0L590 0L590 555L496 717L156 0L57 0Z"  horiz-adv-x="1275" vert-adv-y="2048"  />

      
      <glyph glyph-name="uni0417" unicode="&#x0417;" d="M78 350L78 469L168 469L168 344Q168 220 220 147Q272 74 385 74Q602 74 602 352L602 463Q602 573 543 639Q484 705 381 705L301 705L301 791L387 791Q481 791 541.50 859Q602 927 602 1028L602 1081Q602 1360 385 1360Q272 1360 219 1287.50Q166 1215 166 1090L166 1012L80 1012L80 1085Q80 1250 155 1348Q230 1446 387 1446Q544 1446 620 1347.50Q696 1249 696 1083L696 1047Q696 940 645.50 861Q595 782 502 752Q597 725 646.50 647Q696 569 696 461L696 350Q696 184 620 86Q544-12 387-12Q230-12 154 86Q78 184 78 350Z"  horiz-adv-x="774" vert-adv-y="2048"  />

      
      <glyph glyph-name="uni0418" unicode="&#x0418;" d="M82 0L82 1434L168 1434L168 207L377 793L608 1434L721 1434L721 0L635 0L635 1268L420 674L184 0L82 0Z"  horiz-adv-x="800" vert-adv-y="2048"  />

      
      <glyph glyph-name="uni0419" unicode="&#x0419;" d="M82 0L82 1434L168 1434L168 207L354 729L608 1434L721 1434L721 0L635 0L635 1268L430 698L184 0L82 0M207 1704L272 1704Q273 1647 312.50 1619Q352 1591 412 1591Q473 1591 512.50 1619Q552 1647 555 1704L618 1704Q617 1623 560 1576.50Q503 1530 412 1530Q322 1530 265 1576.50Q208 1623 207 1704Z"  horiz-adv-x="802" vert-adv-y="2048"  />

      
      <glyph glyph-name="uni041A" unicode="&#x041A;" d="M82 0L82 1434L176 1434L176 676L643 1434L741 1434L332 766L768 0L670 0L274 674L176 518L176 0L82 0Z"  horiz-adv-x="827" vert-adv-y="2048"  />

      
      <glyph glyph-name="uni041B" unicode="&#x041B;" d="M59-2L59 84Q98 84 127.50 93Q157 102 176 121.50Q195 141 206.50 161.50Q218 182 224 216.50Q230 251 232.50 278Q235 305 236 348L279 1434L813 1434L813 0L717 0L717 1348L367 1348L330 350Q327 285 321 238.50Q315 192 298.50 144Q282 96 255.50 66.50Q229 37 184.50 18Q140-1 78-2L59-2Z"  horiz-adv-x="897" vert-adv-y="2048"  />

      
      <glyph glyph-name="uni041C" unicode="&#x041C;" d="M82 0L82 1434L217 1434L518 166L817 1434L952 1434L952 0L862 0L862 1274L563 2L469 2L166 1270L166 0L82 0Z"  horiz-adv-x="1034" vert-adv-y="2048"  />

      
      <glyph glyph-name="uni041D" unicode="&#x041D;" d="M82 0L82 1434L176 1434L176 760L623 760L623 1434L719 1434L719 0L623 0L623 674L176 674L176 0L82 0Z"  horiz-adv-x="800" vert-adv-y="2048"  />

      
      <glyph glyph-name="uni041E" unicode="&#x041E;" d="M76 350L76 1083Q76 1248 154.50 1347Q233 1446 389 1446Q548 1446 627.50 1347Q707 1248 707 1083L707 350Q707 185 627.50 86.50Q548-12 389-12Q233-12 154.50 86.50Q76 185 76 350M170 344Q170 219 223 146.50Q276 74 389 74Q504 74 558 147Q612 220 612 344L612 1090Q612 1214 558 1287Q504 1360 389 1360Q276 1360 223 1287.50Q170 1215 170 1090L170 344Z"  horiz-adv-x="780" vert-adv-y="2048"  />

      
      <glyph glyph-name="uni041F" unicode="&#x041F;" d="M82 0L82 1434L719 1434L719 0L623 0L623 1348L176 1348L176 0L82 0Z"  horiz-adv-x="800" vert-adv-y="2048"  />

      
      <glyph glyph-name="uni0420" unicode="&#x0420;" d="M82 0L82 1434L379 1434Q538 1434 612 1342Q686 1250 686 1085L686 930Q686 759 604.50 674.50Q523 590 354 590L176 590L176 0L82 0M176 676L354 676Q479 676 535.50 735Q592 794 592 924L592 1092Q592 1216 543 1282Q494 1348 379 1348L176 1348L176 676Z"  horiz-adv-x="745" vert-adv-y="2048"  />

      
      <glyph glyph-name="uni0421" unicode="&#x0421;" d="M76 350L76 1083Q76 1248 152 1347Q228 1446 385 1446Q542 1446 618 1347Q694 1248 694 1083L694 965L604 965L604 1090Q604 1214 552 1287Q500 1360 387 1360Q274 1360 222 1287Q170 1214 170 1090L170 344Q170 220 222 148Q274 76 387 76Q500 76 552 148Q604 220 604 344L604 514L694 514L694 350Q694 185 618 86.50Q542-12 385-12Q228-12 152 86.50Q76 185 76 350Z"  horiz-adv-x="765" vert-adv-y="2048"  />

      
      <glyph glyph-name="uni0422" unicode="&#x0422;" d="M57 1348L57 1434L737 1434L737 1348L444 1348L444 0L350 0L350 1348L57 1348Z"  horiz-adv-x="794" vert-adv-y="2048"  />

      
      <glyph glyph-name="uni0423" unicode="&#x0423;" d="M57 1434L154 1434L322 928L446 545L561 930L717 1434L815 1434L444 266Q425 195 404 149.50Q383 104 348 66.50Q313 29 259.50 13Q206-3 129 0L129 84Q223 83 268.50 122.50Q314 162 342 252L401 426L57 1434Z"  horiz-adv-x="872" vert-adv-y="2048"  />

      
      <glyph glyph-name="uni0424" unicode="&#x0424;" d="M76 516L76 907Q76 1083 155 1175.50Q234 1268 406 1268L522 1268L522 1434L614 1434L614 1268L731 1268Q1061 1268 1061 907L1061 516Q1061 156 731 156L614 156L614 0L522 0L522 156L406 156Q234 156 155 248Q76 340 76 516M168 510Q168 376 224.50 308Q281 240 406 240L522 240L522 1184L406 1184Q281 1184 224.50 1115.50Q168 1047 168 913L168 510M614 240L731 240Q855 240 912 308.50Q969 377 969 510L969 913Q969 1047 912.50 1115.50Q856 1184 731 1184L614 1184L614 240Z"  horiz-adv-x="1138" vert-adv-y="2048"  />

      
      <glyph glyph-name="uni0425" unicode="&#x0425;" d="M63 0L387 743L86 1434L184 1434L455 817L727 1434L817 1434L516 743L838 0L737 0L446 668L156 0L63 0Z"  horiz-adv-x="901" vert-adv-y="2048"  />

      
      <glyph glyph-name="uni0426" unicode="&#x0426;" d="M109 0L109 1434L201 1434L201 86L647 86L647 1434L743 1434L743 86L862 86L862-193L770-193L770 0L109 0Z"  horiz-adv-x="931" vert-adv-y="2048"  />

      
      <glyph glyph-name="uni0427" unicode="&#x0427;" d="M76 897L76 1434L170 1434L170 903Q170 785 225.50 709Q281 633 391 633Q568 633 616 819L616 1434L711 1434L711 0L616 0L616 688Q535 547 365 547Q267 547 200.50 595Q134 643 105 720Q76 797 76 897Z"  horiz-adv-x="792" vert-adv-y="2048"  />

      
      <glyph glyph-name="uni0428" unicode="&#x0428;" d="M82 0L82 1434L176 1434L176 86L530 86L530 1434L625 1434L625 86L979 86L979 1434L1073 1434L1073 0L82 0Z"  horiz-adv-x="1155" vert-adv-y="2048"  />

      
      <glyph glyph-name="uni0429" unicode="&#x0429;" d="M82 0L82 1434L176 1434L176 86L528 86L528 1434L623 1434L623 86L979 86L977 1434L1071 1434L1071 86L1192 86L1192-193L1100-193L1100 0L82 0Z"  horiz-adv-x="1259" vert-adv-y="2048"  />

      
      <glyph glyph-name="uni042A" unicode="&#x042A;" d="M20 1348L20 1434L309 1434L309 844L487 844Q656 844 737.50 759.50Q819 675 819 504L819 348Q819 0 512 0L215 0L215 1348L20 1348M309 86L512 86Q627 86 676 152Q725 218 725 342L725 510Q725 640 668 699Q611 758 487 758L309 758L309 86Z"  horiz-adv-x="890" vert-adv-y="2048"  />

      
      <glyph glyph-name="uni042B" unicode="&#x042B;" d="M82 0L82 1434L176 1434L176 844L352 844Q523 844 604.50 759.50Q686 675 686 504L686 348Q686 0 377 0L82 0M176 86L377 86Q492 86 542 152Q592 218 592 342L592 510Q592 640 534.50 699Q477 758 352 758L176 758L176 86M821 0L821 1434L915 1434L915 0L821 0Z"  horiz-adv-x="997" vert-adv-y="2048"  />

      
      <glyph glyph-name="uni042C" unicode="&#x042C;" d="M82 0L82 1434L176 1434L176 844L352 844Q523 844 604.50 759.50Q686 675 686 504L686 348Q686 0 377 0L82 0M176 86L377 86Q492 86 542 152Q592 218 592 342L592 510Q592 640 534.50 699Q477 758 352 758L176 758L176 86Z"  horiz-adv-x="757" vert-adv-y="2048"  />

      
      <glyph glyph-name="uni042D" unicode="&#x042D;" d="M72 350L72 489L162 489L162 344Q162 221 214 148.50Q266 76 377 76Q491 76 543.50 148Q596 220 596 344L596 698L303 698L303 784L596 784L596 1090Q596 1214 543.50 1287Q491 1360 377 1360Q266 1360 214 1287Q162 1214 162 1090L162 993L74 993L74 1083Q74 1248 149 1347Q224 1446 381 1446Q537 1446 613.50 1346.50Q690 1247 690 1083L690 350Q690 186 613.50 87Q537-12 381-12Q224-12 148 86.50Q72 185 72 350Z"  horiz-adv-x="765" vert-adv-y="2048"  />

      
      <glyph glyph-name="uni042E" unicode="&#x042E;" d="M82 0L82 1434L176 1434L176 760L424 760L424 1083Q424 1249 502 1347.50Q580 1446 739 1446Q897 1446 976 1347Q1055 1248 1055 1083L1055 350Q1055 185 976 86.50Q897-12 739-12Q580-12 502 86.50Q424 185 424 350L424 674L176 674L176 0L82 0M518 344Q518 219 571.50 146.50Q625 74 739 74Q852 74 906.50 147Q961 220 961 344L961 1090Q961 1214 906.50 1287Q852 1360 739 1360Q625 1360 571.50 1287.50Q518 1215 518 1090L518 344Z"  horiz-adv-x="1130" vert-adv-y="2048"  />

      
      <glyph glyph-name="uni042F" unicode="&#x042F;" d="M68 0Q102 52 102 172L102 395Q102 642 309 688Q102 736 102 985L102 1110Q102 1434 410 1434L709 1434L709 0L614 0L614 641L465 641Q333 641 265 586.50Q197 532 197 397L197 172Q197 53 166 0L68 0M197 967Q197 830 262 778.50Q327 727 463 727L614 727L614 1348L412 1348Q299 1348 248 1285Q197 1222 197 1102L197 967Z"  horiz-adv-x="790" vert-adv-y="2048"  />

      
      <glyph glyph-name="uni0430" unicode="&#x0430;" d="M61 0L375 1436L512 1436L831 0L737 0L666 317L219 317L147 0L61 0M233 399L651 399L440 1327L233 399Z"  horiz-adv-x="892" vert-adv-y="2048"  />

      
      <glyph glyph-name="uni0431" unicode="&#x0431;" d="M82 0L82 1434L662 1434L662 1348L176 1348L176 823L381 823Q550 823 632.50 747.50Q715 672 715 504L715 342Q715 0 397 0L82 0M176 86L397 86Q514 86 567.50 148.50Q621 211 621 336L621 510Q621 637 564 686Q507 735 381 735L176 735L176 86Z"  horiz-adv-x="792" vert-adv-y="2048"  />

      
      <glyph glyph-name="uni0432" unicode="&#x0432;" d="M82 0L82 1434L383 1434Q540 1434 608 1358Q676 1282 676 1128L676 1047Q676 924 633.50 855Q591 786 487 764Q702 721 702 457L702 332Q702 0 389 0L82 0M176 86L389 86Q504 86 556 148Q608 210 608 334L608 463Q608 599 546.50 657Q485 715 354 715L176 715L176 86M176 801L336 801Q468 801 525 849Q582 897 582 1028L582 1120Q582 1238 537 1293Q492 1348 381 1348L176 1348L176 801Z"  horiz-adv-x="774" vert-adv-y="2048"  />

      
      <glyph glyph-name="uni0433" unicode="&#x0433;" d="M82 0L82 1434L633 1434L633 1348L176 1348L176 0L82 0Z"  horiz-adv-x="708" vert-adv-y="2048"  />

      
      <glyph glyph-name="uni0434" unicode="&#x0434;" d="M63 86L162 86Q201 126 215 180Q229 234 233 315L291 1434L815 1434L815 86L934 86L934-199L840-199L840 0L156 0L156-199L63-199L63 86M258 86L719 86L719 1348L379 1348L326 315Q321 229 307.50 177Q294 125 258 86Z"  horiz-adv-x="1001" vert-adv-y="2048"  />

      
      <glyph glyph-name="uni0435" unicode="&#x0435;" d="M82 0L82 1434L647 1434L647 1348L176 1348L176 770L567 770L567 684L176 684L176 86L647 86L647 0L82 0Z"  horiz-adv-x="718" vert-adv-y="2048"  />

      
      <glyph glyph-name="uni0436" unicode="&#x0436;" d="M57 0L432 805L74 1434L170 1434L590 696L590 1434L684 1434L684 696L1104 1434L1202 1434L846 807L1217 0L1120 0L780 717L684 553L684 0L590 0L590 555L496 717L156 0L57 0Z"  horiz-adv-x="1275" vert-adv-y="2048"  />

      
      <glyph glyph-name="uni0437" unicode="&#x0437;" d="M78 350L78 469L168 469L168 344Q168 220 220 147Q272 74 385 74Q602 74 602 352L602 463Q602 573 543 639Q484 705 381 705L301 705L301 791L387 791Q481 791 541.50 859Q602 927 602 1028L602 1081Q602 1360 385 1360Q272 1360 219 1287.50Q166 1215 166 1090L166 1012L80 1012L80 1085Q80 1250 155 1348Q230 1446 387 1446Q544 1446 620 1347.50Q696 1249 696 1083L696 1047Q696 940 645.50 861Q595 782 502 752Q597 725 646.50 647Q696 569 696 461L696 350Q696 184 620 86Q544-12 387-12Q230-12 154 86Q78 184 78 350Z"  horiz-adv-x="774" vert-adv-y="2048"  />

      
      <glyph glyph-name="uni0438" unicode="&#x0438;" d="M82 0L82 1434L168 1434L168 207L334 680L608 1434L721 1434L721 0L635 0L635 1268L418 666L184 0L82 0Z"  horiz-adv-x="800" vert-adv-y="2048"  />

      
      <glyph glyph-name="uni0439" unicode="&#x0439;" d="M82 0L82 1434L168 1434L168 207L348 717L608 1434L721 1434L721 0L635 0L635 1268L184 0L82 0M207 1700L272 1700Q273 1642 312.50 1613.50Q352 1585 412 1585Q473 1585 512.50 1613.50Q552 1642 555 1700L618 1700Q617 1618 560 1572Q503 1526 412 1526Q322 1526 265 1572.50Q208 1619 207 1700Z"  horiz-adv-x="802" vert-adv-y="2048"  />

      
      <glyph glyph-name="uni043A" unicode="&#x043A;" d="M82 0L82 1434L176 1434L176 676L643 1434L741 1434L332 766L768 0L670 0L274 674L176 518L176 0L82 0Z"  horiz-adv-x="827" vert-adv-y="2048"  />

      
      <glyph glyph-name="uni043B" unicode="&#x043B;" d="M59-2L59 84Q98 84 127.50 93Q157 102 176 121.50Q195 141 206.50 161.50Q218 182 224 216.50Q230 251 232.50 278Q235 305 236 348L279 1434L813 1434L813 0L717 0L717 1348L367 1348L330 350Q327 285 321 238.50Q315 192 298.50 144Q282 96 255.50 66.50Q229 37 184.50 18Q140-1 78-2L59-2Z"  horiz-adv-x="897" vert-adv-y="2048"  />

      
      <glyph glyph-name="uni043C" unicode="&#x043C;" d="M82 0L82 1434L217 1434L518 166L817 1434L952 1434L952 0L862 0L862 1274L563 2L469 2L166 1270L166 0L82 0Z"  horiz-adv-x="1034" vert-adv-y="2048"  />

      
      <glyph glyph-name="uni043D" unicode="&#x043D;" d="M82 0L82 1434L176 1434L176 760L623 760L623 1434L719 1434L719 0L623 0L623 674L176 674L176 0L82 0Z"  horiz-adv-x="800" vert-adv-y="2048"  />

      
      <glyph glyph-name="uni043E" unicode="&#x043E;" d="M76 350L76 1083Q76 1248 154.50 1347Q233 1446 389 1446Q548 1446 627.50 1347Q707 1248 707 1083L707 350Q707 185 627.50 86.50Q548-12 389-12Q233-12 154.50 86.50Q76 185 76 350M170 344Q170 219 223 146.50Q276 74 389 74Q504 74 558 147Q612 220 612 344L612 1090Q612 1214 558 1287Q504 1360 389 1360Q276 1360 223 1287.50Q170 1215 170 1090L170 344Z"  horiz-adv-x="780" vert-adv-y="2048"  />

      
      <glyph glyph-name="uni043F" unicode="&#x043F;" d="M82 0L82 1434L719 1434L719 0L623 0L623 1348L176 1348L176 0L82 0Z"  horiz-adv-x="800" vert-adv-y="2048"  />

      
      <glyph glyph-name="uni0440" unicode="&#x0440;" d="M82 0L82 1434L379 1434Q538 1434 612 1342Q686 1250 686 1085L686 930Q686 759 604.50 674.50Q523 590 354 590L176 590L176 0L82 0M176 676L354 676Q479 676 535.50 735Q592 794 592 924L592 1092Q592 1216 543 1282Q494 1348 379 1348L176 1348L176 676Z"  horiz-adv-x="745" vert-adv-y="2048"  />

      
      <glyph glyph-name="uni0441" unicode="&#x0441;" d="M76 350L76 1083Q76 1248 152 1347Q228 1446 385 1446Q542 1446 618 1347Q694 1248 694 1083L694 965L604 965L604 1090Q604 1214 552 1287Q500 1360 387 1360Q274 1360 222 1287Q170 1214 170 1090L170 344Q170 220 222 148Q274 76 387 76Q500 76 552 148Q604 220 604 344L604 514L694 514L694 350Q694 185 618 86.50Q542-12 385-12Q228-12 152 86.50Q76 185 76 350Z"  horiz-adv-x="765" vert-adv-y="2048"  />

      
      <glyph glyph-name="uni0442" unicode="&#x0442;" d="M57 1348L57 1434L737 1434L737 1348L444 1348L444 0L350 0L350 1348L57 1348Z"  horiz-adv-x="794" vert-adv-y="2048"  />

      
      <glyph glyph-name="uni0443" unicode="&#x0443;" d="M57 1434L154 1434L322 928L446 545L561 930L717 1434L815 1434L444 266Q425 195 404 149.50Q383 104 348 66.50Q313 29 259.50 13Q206-3 129 0L129 84Q223 83 268.50 122.50Q314 162 342 252L401 426L57 1434Z"  horiz-adv-x="872" vert-adv-y="2048"  />

      
      <glyph glyph-name="uni0444" unicode="&#x0444;" d="M76 516L76 907Q76 1083 155 1175.50Q234 1268 406 1268L522 1268L522 1434L614 1434L614 1268L731 1268Q1061 1268 1061 907L1061 516Q1061 156 731 156L614 156L614 0L522 0L522 156L406 156Q234 156 155 248Q76 340 76 516M168 510Q168 376 224.50 308Q281 240 406 240L522 240L522 1184L406 1184Q281 1184 224.50 1115.50Q168 1047 168 913L168 510M614 240L731 240Q855 240 912 308.50Q969 377 969 510L969 913Q969 1047 912.50 1115.50Q856 1184 731 1184L614 1184L614 240Z"  horiz-adv-x="1138" vert-adv-y="2048"  />

      
      <glyph glyph-name="uni0445" unicode="&#x0445;" d="M63 0L387 743L86 1434L184 1434L455 817L727 1434L817 1434L516 743L838 0L737 0L446 668L156 0L63 0Z"  horiz-adv-x="901" vert-adv-y="2048"  />

      
      <glyph glyph-name="uni0446" unicode="&#x0446;" d="M109 0L109 1434L201 1434L201 86L647 86L647 1434L743 1434L743 86L862 86L862-193L770-193L770 0L109 0Z"  horiz-adv-x="931" vert-adv-y="2048"  />

      
      <glyph glyph-name="uni0447" unicode="&#x0447;" d="M76 897L76 1434L170 1434L170 903Q170 785 225.50 709Q281 633 391 633Q568 633 616 819L616 1434L711 1434L711 0L616 0L616 688Q535 547 365 547Q267 547 200.50 595Q134 643 105 720Q76 797 76 897Z"  horiz-adv-x="792" vert-adv-y="2048"  />

      
      <glyph glyph-name="uni0448" unicode="&#x0448;" d="M82 0L82 1434L176 1434L176 86L530 86L530 1434L625 1434L625 86L979 86L979 1434L1073 1434L1073 0L82 0Z"  horiz-adv-x="1155" vert-adv-y="2048"  />

      
      <glyph glyph-name="uni0449" unicode="&#x0449;" d="M82 0L82 1434L176 1434L176 86L528 86L528 1434L623 1434L623 86L979 86L977 1434L1071 1434L1071 86L1192 86L1192-193L1100-193L1100 0L82 0Z"  horiz-adv-x="1259" vert-adv-y="2048"  />

      
      <glyph glyph-name="uni044A" unicode="&#x044A;" d="M20 1348L20 1434L309 1434L309 844L487 844Q656 844 737.50 759.50Q819 675 819 504L819 348Q819 0 512 0L215 0L215 1348L20 1348M309 86L512 86Q627 86 676 152Q725 218 725 342L725 510Q725 640 668 699Q611 758 487 758L309 758L309 86Z"  horiz-adv-x="890" vert-adv-y="2048"  />

      
      <glyph glyph-name="uni044B" unicode="&#x044B;" d="M82 0L82 1434L176 1434L176 844L352 844Q523 844 604.50 759.50Q686 675 686 504L686 348Q686 0 377 0L82 0M176 86L377 86Q492 86 542 152Q592 218 592 342L592 510Q592 640 534.50 699Q477 758 352 758L176 758L176 86M821 0L821 1434L915 1434L915 0L821 0Z"  horiz-adv-x="997" vert-adv-y="2048"  />

      
      <glyph glyph-name="uni044C" unicode="&#x044C;" d="M82 0L82 1434L176 1434L176 844L352 844Q523 844 604.50 759.50Q686 675 686 504L686 348Q686 0 377 0L82 0M176 86L377 86Q492 86 542 152Q592 218 592 342L592 510Q592 640 534.50 699Q477 758 352 758L176 758L176 86Z"  horiz-adv-x="757" vert-adv-y="2048"  />

      
      <glyph glyph-name="uni044D" unicode="&#x044D;" d="M72 350L72 489L162 489L162 344Q162 221 214 148.50Q266 76 377 76Q491 76 543.50 148Q596 220 596 344L596 698L303 698L303 784L596 784L596 1090Q596 1214 543.50 1287Q491 1360 377 1360Q266 1360 214 1287Q162 1214 162 1090L162 993L74 993L74 1083Q74 1248 149 1347Q224 1446 381 1446Q537 1446 613.50 1346.50Q690 1247 690 1083L690 350Q690 186 613.50 87Q537-12 381-12Q224-12 148 86.50Q72 185 72 350Z"  horiz-adv-x="765" vert-adv-y="2048"  />

      
      <glyph glyph-name="uni044E" unicode="&#x044E;" d="M82 0L82 1434L176 1434L176 760L424 760L424 1083Q424 1249 502 1347.50Q580 1446 739 1446Q897 1446 976 1347Q1055 1248 1055 1083L1055 350Q1055 185 976 86.50Q897-12 739-12Q580-12 502 86.50Q424 185 424 350L424 674L176 674L176 0L82 0M518 344Q518 219 571.50 146.50Q625 74 739 74Q852 74 906.50 147Q961 220 961 344L961 1090Q961 1214 906.50 1287Q852 1360 739 1360Q625 1360 571.50 1287.50Q518 1215 518 1090L518 344Z"  horiz-adv-x="1130" vert-adv-y="2048"  />

      
      <glyph glyph-name="uni044F" unicode="&#x044F;" d="M68 0Q102 52 102 172L102 395Q102 642 309 688Q102 736 102 985L102 1110Q102 1434 410 1434L709 1434L709 0L614 0L614 641L465 641Q333 641 265 586.50Q197 532 197 397L197 172Q197 53 166 0L68 0M197 967Q197 830 262 778.50Q327 727 463 727L614 727L614 1348L412 1348Q299 1348 248 1285Q197 1222 197 1102L197 967Z"  horiz-adv-x="790" vert-adv-y="2048"  />

      
      <glyph glyph-name="uni0451" unicode="&#x0451;" d="M82 0L82 1434L647 1434L647 1348L176 1348L176 770L567 770L567 684L176 684L176 86L647 86L647 0L82 0M223 1526L223 1700L307 1700L307 1526L223 1526M422 1526L422 1700L506 1700L506 1526L422 1526Z"  horiz-adv-x="718" vert-adv-y="2048"  />

      
      <glyph glyph-name="uni2010" unicode="&#x2010;" d="M78 674L78 760L455 760L455 674L78 674Z"  horiz-adv-x="532" vert-adv-y="2048"  />

      
      <glyph glyph-name="uni2011" unicode="&#x2011;" d="M78 674L78 760L455 760L455 674L78 674Z"  horiz-adv-x="532" vert-adv-y="2048"  />

      
      <glyph glyph-name="uni2012" unicode="&#x2012;" d="M78 674L78 760L455 760L455 674L78 674Z"  horiz-adv-x="532" vert-adv-y="2048"  />

      
      <glyph glyph-name="uni2013" unicode="&#x2013;" d="M53 678L53 756L803 756L803 678L53 678Z"  horiz-adv-x="854" vert-adv-y="2048"  />

      
      <glyph glyph-name="uni2014" unicode="&#x2014;" d="M53 678L53 756L1321 756L1321 678L53 678Z"  horiz-adv-x="1372" vert-adv-y="2048"  />

      
      <glyph glyph-name="uni2018" unicode="&#x2018;" d="M82 1098L82 1270L141 1434L182 1434L141 1278L174 1278L174 1098L82 1098Z"  horiz-adv-x="274" vert-adv-y="2048"  />

      
      <glyph glyph-name="uni2019" unicode="&#x2019;" d="M92 1098L133 1253L102 1253L102 1434L193 1434L193 1262L133 1098L92 1098Z"  horiz-adv-x="274" vert-adv-y="2048"  />

      
      <glyph glyph-name="uni201A" unicode="&#x201A;" d="M92-156L133 0L102 0L102 180L193 180L193 8L133-156L92-156Z"  horiz-adv-x="274" vert-adv-y="2048"  />

      
      <glyph glyph-name="uni201C" unicode="&#x201C;" d="M82 1098L82 1270L141 1434L182 1434L141 1278L174 1278L174 1098L82 1098M242 1098L242 1270L301 1434L344 1434L301 1278L334 1278L334 1098L242 1098Z"  horiz-adv-x="434" vert-adv-y="2048"  />

      
      <glyph glyph-name="uni201D" unicode="&#x201D;" d="M82 1098L125 1253L92 1253L92 1434L184 1434L184 1262L125 1098L82 1098M244 1098L285 1253L252 1253L252 1434L344 1434L344 1262L285 1098L244 1098Z"  horiz-adv-x="434" vert-adv-y="2048"  />

      
      <glyph glyph-name="uni201E" unicode="&#x201E;" d="M92-156L133 0L102 0L102 180L193 180L193 8L133-156L92-156M262-156L305 0L272 0L272 180L362 180L362 8L305-156L262-156Z"  horiz-adv-x="444" vert-adv-y="2048"  />

      
      <glyph glyph-name="uni2022" unicode="&#x2022;" d="M165.50 612.50Q165.50 612.50 144.25 634.25Q123 656 123 717Q123 778 165.50 821Q208 864 268 864Q330 864 373 821Q416 778 416 717Q416 656 373 612.50Q330 569 268 569Q208 569 165.50 612.50Z"  horiz-adv-x="538" vert-adv-y="2048"  />

      
      <glyph glyph-name="uni2026" unicode="&#x2026;" d="M82 0L82 180L174 180L174 0L82 0M244 0L244 180L334 180L334 0L244 0M408 0L408 180L498 180L498 0L408 0Z"  horiz-adv-x="579" vert-adv-y="2048"  />

      
      <glyph glyph-name="uni2039" unicode="&#x2039;" d="M63 717L197 1225L287 1225L156 717L287 199L197 199L63 717Z"  horiz-adv-x="350" vert-adv-y="2048"  />

      
      <glyph glyph-name="uni203A" unicode="&#x203A;" d="M63 201L195 719L63 1227L154 1227L287 719L154 201L63 201Z"  horiz-adv-x="350" vert-adv-y="2048"  />

      
      <glyph glyph-name="uni20AC" unicode="&#x20AC;" d="M53 584L53 637L135 637L135 805L53 805L53 860L135 860L135 1083Q135 1247 209 1346.50Q283 1446 438 1446Q593 1446 667 1346.50Q741 1247 741 1083L741 1006L651 1006L651 1090Q651 1213 601 1286.50Q551 1360 440 1360Q331 1360 280 1286.50Q229 1213 229 1090L229 860L625 860L625 805L229 805L229 637L625 637L625 584L229 584L229 344Q229 221 279 148.50Q329 76 440 76Q551 76 601 148.50Q651 221 651 344L651 438L741 438L741 350Q741 186 667 87Q593-12 438-12Q283-12 209 87Q135 186 135 350L135 584L53 584Z"  horiz-adv-x="813" vert-adv-y="2048"  />

      
      <glyph glyph-name="uni2122" unicode="&#x2122;" d="M29 1374L29 1434L461 1434L461 1374L279 1374L279 705L213 705L213 1374L29 1374M557 705L557 1434L647 1434L838 811L1026 1434L1116 1434L1116 705L1055 705L1055 1333L868 713L805 713L616 1333L616 705L557 705Z"  horiz-adv-x="1187" vert-adv-y="2048"  />

      
      <glyph glyph-name="uni25FC" unicode="&#x25FC;" d="M0 0L0 1434L1434 1434L1434 0L0 0Z"  horiz-adv-x="1433" vert-adv-y="2048"  />

      

  </font>
</defs>
</svg>
