<?xml version="1.0" standalone="no"?>
  <!DOCTYPE svg PUBLIC "-//W3C//DTD SVG 1.1//EN" "http://www.w3.org/Graphics/SVG/1.1/DTD/svg11.dtd" >
  <svg>
  <metadata>
  Created by font-carrier
  </metadata>
  <defs>
  <font id="BebasNeue-Thin" horiz-adv-x="2048" vert-adv-y="2048" >
    <font-face
      
      font-family="BebasNeue-Thin"
      
      font-weight="400"
      
      font-stretch="normal"
      
      units-per-em="2048"
      
      ascent="1536"
      
      descent="-512"
      
    />
      <missing-glyph />

      

      
      <glyph glyph-name="uni21" unicode="&#x21;" d="M82 0L82 158L102 158L102 0L82 0M82 602L82 1436L102 1436L102 602L100 317L84 317L82 602Z"  horiz-adv-x="184" vert-adv-y="2048"  />

      
      <glyph glyph-name="uni22" unicode="&#x22;" d="M82 1118L82 1436L102 1436L102 1118L82 1118M182 1118L182 1436L203 1436L203 1118L182 1118Z"  horiz-adv-x="284" vert-adv-y="2048"  />

      
      <glyph glyph-name="uni23" unicode="&#x23;" d="M82 481L82 500L238 500L291 1016L135 1016L135 1034L293 1034L334 1436L354 1436L313 1034L614 1034L655 1436L676 1436L635 1034L770 1034L770 1016L633 1016L580 500L715 500L715 481L578 481L526 0L506 0L557 481L256 481L205 0L184 0L236 481L82 481M258 500L559 500L612 1016L311 1016L258 500Z"  horiz-adv-x="851" vert-adv-y="2048"  />

      
      <glyph glyph-name="uni24" unicode="&#x24;" d="M82 346L82 414L102 414L102 346Q102 195 167.50 102.50Q233 10 377 10Q521 10 586 102.50Q651 195 651 346Q651 421 620 482.50Q589 544 539.50 587.50Q490 631 430 670Q370 709 309.50 749.50Q249 790 199.50 835Q150 880 119 945Q88 1010 88 1090Q88 1250 156 1344Q224 1438 369 1444L369 1577L389 1577L389 1444Q464 1442 520 1412.50Q576 1383 608 1333Q640 1283 655 1221.50Q670 1160 670 1087L670 1063L649 1063L649 1087Q649 1158 635 1216Q621 1274 590.50 1322Q560 1370 506.50 1396.50Q453 1423 379 1423Q305 1423 251.50 1397Q198 1371 167.50 1323.50Q137 1276 123 1218.50Q109 1161 109 1090Q109 1030 128.50 978.50Q148 927 180.50 888.50Q213 850 255 816Q297 782 343.50 752Q390 722 437 692Q484 662 526 627Q568 592 600.50 553Q633 514 652.50 461Q672 408 672 346Q672 272 656.50 210.50Q641 149 608.50 99.50Q576 50 520 21Q464-8 389-10L389-129L369-129L369-10Q292-9 235.50 19.50Q179 48 146 97.50Q113 147 97.50 209Q82 271 82 346Z"  horiz-adv-x="751" vert-adv-y="2048"  />

      
      <glyph glyph-name="uni25" unicode="&#x25;" d="M82 784L82 1200Q82 1301 124.50 1368.50Q167 1436 262 1436Q357 1436 399.50 1368.50Q442 1301 442 1200L442 784Q442 683 399.50 617Q357 551 262 551Q167 551 124.50 617Q82 683 82 784M102 784Q102 725 114.50 680.50Q127 636 164.50 603.50Q202 571 262 571Q348 571 385 631.50Q422 692 422 784L422 1200Q422 1243 414.50 1279Q407 1315 389.50 1347Q372 1379 339.50 1397Q307 1415 262 1415Q202 1415 164.50 1382Q127 1349 114.50 1304Q102 1259 102 1200L102 784M311 0L877 1436L899 1436L334 0L311 0M772 236L772 643Q772 744 814.50 810.50Q857 877 952 877Q1048 877 1090.50 811Q1133 745 1133 643L1133 236Q1133 134 1090.50 67Q1048 0 952 0Q857 0 814.50 67.50Q772 135 772 236M793 236Q793 193 800.50 157Q808 121 825 89Q842 57 874.50 38.50Q907 20 952 20Q998 20 1030.50 38.50Q1063 57 1080 89Q1097 121 1104.50 157Q1112 193 1112 236L1112 643Q1112 702 1099.50 746.50Q1087 791 1049.50 823.50Q1012 856 952 856Q866 856 829.50 795.50Q793 735 793 643L793 236Z"  horiz-adv-x="1214" vert-adv-y="2048"  />

      
      <glyph glyph-name="uni26" unicode="&#x26;" d="M82 324L82 453Q82 556 135 638Q188 720 287 748Q187 771 134.50 852Q82 933 82 1036L82 1077Q82 1250 169 1342Q256 1434 428 1434L602 1434L602 1413L428 1413Q102 1413 102 1077L102 1036Q102 928 164 846.50Q226 765 332 758L623 758L623 918L643 918L643 758L731 758L731 739L643 739L643 197Q643 150 644.50 125Q646 100 656 64.50Q666 29 686 0L662 0Q625 63 625 150Q594 73 524.50 31.50Q455-10 367-10Q222-10 152 81.50Q82 173 82 324M102 324Q102 182 167 96Q232 10 367 10Q478 10 550.50 77Q623 144 623 254L623 739L346 739Q232 729 167 649Q102 569 102 453L102 324Z"  horiz-adv-x="813" vert-adv-y="2048"  />

      
      <glyph glyph-name="uni27" unicode="&#x27;" d="M82 1118L82 1436L102 1436L102 1118L82 1118Z"  horiz-adv-x="184" vert-adv-y="2048"  />

      
      <glyph glyph-name="uni28" unicode="&#x28;" d="M82 319L82 1116Q82 1190 93.50 1244.50Q105 1299 132 1344Q159 1389 211 1412.50Q263 1436 338 1436L369 1436L369 1415L338 1415Q281 1415 238.50 1400Q196 1385 170.50 1359.50Q145 1334 129 1295Q113 1256 107.50 1213.50Q102 1171 102 1116L102 319Q102 248 111.50 198Q121 148 145.50 105.50Q170 63 218 41.50Q266 20 338 20L369 20L369 0L338 0Q277 0 231.50 16Q186 32 157.50 59Q129 86 112 127.50Q95 169 88.50 214.50Q82 260 82 319Z"  horiz-adv-x="450" vert-adv-y="2048"  />

      
      <glyph glyph-name="uni29" unicode="&#x29;" d="M82 0L82 20L113 20Q185 20 232.50 41.50Q280 63 304.50 105.50Q329 148 338.50 198Q348 248 348 319L348 1116Q348 1186 338.50 1236Q329 1286 304 1329Q279 1372 231.50 1393.50Q184 1415 113 1415L82 1415L82 1436L113 1436Q188 1436 240 1412.50Q292 1389 319 1344Q346 1299 357.50 1244.50Q369 1190 369 1116L369 319Q369 260 362.50 214.50Q356 169 339 127.50Q322 86 293.50 59Q265 32 219.50 16Q174 0 113 0L82 0Z"  horiz-adv-x="450" vert-adv-y="2048"  />

      
      <glyph glyph-name="uni2a" unicode="&#x2a;" d="M102 1182L109 1202L391 1118L391 1417L412 1417L412 1118L696 1196L702 1176L416 1102L586 858L569 846L401 1090L233 848L217 858L387 1102L102 1182Z"  horiz-adv-x="804" vert-adv-y="2048"  />

      
      <glyph glyph-name="uni2b" unicode="&#x2b;" d="M82 707L82 727L383 727L383 1030L403 1030L403 727L705 727L705 707L403 707L403 399L383 399L383 707L82 707Z"  horiz-adv-x="786" vert-adv-y="2048"  />

      
      <glyph glyph-name="uni2c" unicode="&#x2c;" d="M82-127L115 0L113 0L113 160L133 160L133 0L96-127L82-127Z"  horiz-adv-x="215" vert-adv-y="2048"  />

      
      <glyph glyph-name="uni2d" unicode="&#x2d;" d="M82 709L82 727L438 727L438 709L82 709Z"  horiz-adv-x="520" vert-adv-y="2048"  />

      
      <glyph glyph-name="uni2e" unicode="&#x2e;" d="M82 0L82 160L102 160L102 0L82 0Z"  horiz-adv-x="184" vert-adv-y="2048"  />

      
      <glyph glyph-name="uni2f" unicode="&#x2f;" d="M82 0L647 1434L668 1434L102 0L82 0Z"  horiz-adv-x="749" vert-adv-y="2048"  />

      
      <glyph glyph-name="uni30" unicode="&#x30;" d="M82 354L82 1081Q82 1158 98.50 1222Q115 1286 150 1336.50Q185 1387 244 1415.50Q303 1444 383 1444Q462 1444 521 1415.50Q580 1387 614.50 1336.50Q649 1286 665.50 1222Q682 1158 682 1081L682 354Q682 277 665.50 213Q649 149 614.50 98Q580 47 521 18.50Q462-10 383-10Q303-10 244 18.50Q185 47 150 98Q115 149 98.50 213Q82 277 82 354M102 354Q102 296 111 246.50Q120 197 141.50 153Q163 109 194.50 77.50Q226 46 274.50 28Q323 10 383 10Q458 10 513.50 37Q569 64 600.50 112.50Q632 161 647 221Q662 281 662 354L662 1081Q662 1154 647 1214Q632 1274 600.50 1322.50Q569 1371 513.50 1398Q458 1425 383 1425Q323 1425 274.50 1407Q226 1389 194.50 1357.50Q163 1326 141.50 1282Q120 1238 111 1188.50Q102 1139 102 1081L102 354Z"  horiz-adv-x="763" vert-adv-y="2048"  />

      
      <glyph glyph-name="uni31" unicode="&#x31;" d="M82 1204L82 1225Q170 1235 230.50 1291Q291 1347 322 1436L350 1436L350 0L330 0L330 1399Q295 1317 231.50 1265.50Q168 1214 82 1204Z"  horiz-adv-x="442" vert-adv-y="2048"  />

      
      <glyph glyph-name="uni32" unicode="&#x32;" d="M82 0L82 10Q82 122 113.50 222Q145 322 195 397Q245 472 305 540.50Q365 609 425.50 671Q486 733 536 793.50Q586 854 617.50 926Q649 998 649 1075Q649 1425 375 1425Q300 1425 245 1396Q190 1367 160 1315.50Q130 1264 116 1203.50Q102 1143 102 1071L102 1004L82 1004L82 1071Q82 1148 97 1212Q112 1276 145 1330Q178 1384 236.50 1414Q295 1444 375 1444Q441 1444 492.50 1424.50Q544 1405 577 1371.50Q610 1338 631.50 1290.50Q653 1243 661.50 1190Q670 1137 670 1075Q670 996 639 922.50Q608 849 559 788Q510 727 450 665.50Q390 604 329.50 537Q269 470 219 398Q169 326 136.50 230Q104 134 102 27L102 20L664 20L664 0L82 0Z"  horiz-adv-x="751" vert-adv-y="2048"  />

      
      <glyph glyph-name="uni33" unicode="&#x33;" d="M82 354L82 414L102 414L102 354Q102 282 116.50 222.50Q131 163 161.50 114Q192 65 247 37.50Q302 10 377 10Q452 10 506.50 37.50Q561 65 592 114Q623 163 637 222Q651 281 651 354L651 463Q651 583 585.50 657.50Q520 732 401 739L293 739L293 758L401 758Q514 767 582.50 849.50Q651 932 651 1047L651 1081Q651 1154 637 1213Q623 1272 592 1321Q561 1370 506.50 1397.50Q452 1425 377 1425Q302 1425 247 1397.50Q192 1370 161.50 1321Q131 1272 116.50 1212.50Q102 1153 102 1081L102 1044L82 1044L82 1081Q82 1158 97.50 1221.50Q113 1285 146.50 1336Q180 1387 239 1415.50Q298 1444 377 1444Q456 1444 515 1415.50Q574 1387 607.50 1336Q641 1285 656.50 1221.50Q672 1158 672 1081L672 1047Q672 944 615 861.50Q558 779 461 750Q563 724 617.50 647Q672 570 672 463L672 354Q672 293 662.50 240.50Q653 188 631 141Q609 94 575.50 61Q542 28 491.50 9Q441-10 377-10Q313-10 262.50 9Q212 28 178.50 61Q145 94 123 141Q101 188 91.50 240.50Q82 293 82 354Z"  horiz-adv-x="753" vert-adv-y="2048"  />

      
      <glyph glyph-name="uni34" unicode="&#x34;" d="M82 348L82 371L594 1436L623 1436L623 369L752 369L752 348L623 348L623 0L602 0L602 348L82 348M102 369L602 369L602 1405L102 369Z"  horiz-adv-x="833" vert-adv-y="2048"  />

      
      <glyph glyph-name="uni35" unicode="&#x35;" d="M82 354L82 408L102 408L102 354Q102 283 116.50 223Q131 163 162 114Q193 65 248 37.50Q303 10 377 10Q437 10 484 28.50Q531 47 562 78.50Q593 110 613.50 154.50Q634 199 642.50 248Q651 297 651 354L651 557Q651 629 636.50 688Q622 747 591 795.50Q560 844 505.50 871.50Q451 899 377 899Q286 899 221 852.50Q156 806 123 721L123 709L102 709L139 1436L645 1436L645 1415L158 1415L127 772Q202 920 377 920Q456 920 514.50 891Q573 862 606.50 810.50Q640 759 656 695.50Q672 632 672 557L672 354Q672 278 656 214.50Q640 151 606.50 99.50Q573 48 514.50 19Q456-10 377-10Q298-10 239.50 19Q181 48 147.50 99.50Q114 151 98 214.50Q82 278 82 354Z"  horiz-adv-x="753" vert-adv-y="2048"  />

      
      <glyph glyph-name="uni36" unicode="&#x36;" d="M82 354L82 1081Q82 1158 98.50 1222Q115 1286 150 1336.50Q185 1387 244 1415.50Q303 1444 383 1444Q462 1444 520.50 1417Q579 1390 612.50 1340.50Q646 1291 662 1229Q678 1167 678 1090L678 1083L657 1083L657 1090Q657 1162 643 1220.50Q629 1279 598 1326Q567 1373 512.50 1399Q458 1425 383 1425Q323 1425 274.50 1407Q226 1389 194.50 1357.50Q163 1326 141.50 1282Q120 1238 111 1188.50Q102 1139 102 1081L102 637Q133 737 204.50 790.50Q276 844 383 844Q463 844 522 815.50Q581 787 616 736Q651 685 667.50 621.50Q684 558 684 481L684 354Q684 277 667.50 213Q651 149 616 98Q581 47 522 18.50Q463-10 383-10Q303-10 244 18.50Q185 47 150 98Q115 149 98.50 213Q82 277 82 354M102 354Q102 296 111 246.50Q120 197 141.50 153Q163 109 194.50 77.50Q226 46 274.50 28Q323 10 383 10Q443 10 491.50 28Q540 46 571.50 77.50Q603 109 624.50 153Q646 197 655 246.50Q664 296 664 354L664 481Q664 553 649 612.50Q634 672 602 720.50Q570 769 514 796Q458 823 383 823Q308 823 252 796Q196 769 164 720.50Q132 672 117 612.50Q102 553 102 481L102 354Z"  horiz-adv-x="765" vert-adv-y="2048"  />

      
      <glyph glyph-name="uni37" unicode="&#x37;" d="M82 1415L82 1436L672 1436L672 1413L229 0L207 0L649 1415L82 1415Z"  horiz-adv-x="753" vert-adv-y="2048"  />

      
      <glyph glyph-name="uni38" unicode="&#x38;" d="M82 342L82 436Q82 565 133 645Q184 725 303 750Q82 792 82 1057L82 1104Q82 1260 160.50 1352Q239 1444 391 1444Q544 1444 623 1352Q702 1260 702 1104L702 1057Q702 935 649.50 853Q597 771 485 750Q702 706 702 436L702 342Q702 182 624.50 86Q547-10 391-10Q236-10 159 86Q82 182 82 342M102 342Q102 191 173.50 100.50Q245 10 391 10Q538 10 610 100.50Q682 191 682 342L682 436Q682 586 611 661.50Q540 737 391 737Q102 737 102 436L102 342M102 1057Q102 912 174.50 835Q247 758 391 758Q537 758 609.50 835Q682 912 682 1057L682 1104Q682 1251 608.50 1338Q535 1425 391 1425Q248 1425 175 1338Q102 1251 102 1104L102 1057Z"  horiz-adv-x="784" vert-adv-y="2048"  />

      
      <glyph glyph-name="uni39" unicode="&#x39;" d="M82 348L82 356L102 356L102 348Q102 197 170 103.50Q238 10 383 10Q443 10 491.50 28Q540 46 571.50 77.50Q603 109 624.50 153Q646 197 655 246.50Q664 296 664 354L664 799Q633 699 561.50 645.50Q490 592 383 592Q303 592 244 620.50Q185 649 150 699.50Q115 750 98.50 813.50Q82 877 82 954L82 1081Q82 1158 98.50 1222.50Q115 1287 150 1338Q185 1389 244 1417.50Q303 1446 383 1446Q463 1446 522 1417.50Q581 1389 616 1338Q651 1287 667.50 1222.50Q684 1158 684 1081L684 354Q684 277 667.50 213Q651 149 616 98Q581 47 522 18.50Q463-10 383-10Q229-10 155.50 88.50Q82 187 82 348M102 954Q102 882 117 822.50Q132 763 164 714.50Q196 666 252 639Q308 612 383 612Q458 612 514 639Q570 666 602 714.50Q634 763 649 822.50Q664 882 664 954L664 1081Q664 1139 655 1188.50Q646 1238 624.50 1282Q603 1326 571.50 1357.50Q540 1389 491.50 1407Q443 1425 383 1425Q323 1425 274.50 1407Q226 1389 194.50 1357.50Q163 1326 141.50 1282Q120 1238 111 1188.50Q102 1139 102 1081L102 954Z"  horiz-adv-x="765" vert-adv-y="2048"  />

      
      <glyph glyph-name="uni3a" unicode="&#x3a;" d="M82 0L82 160L102 160L102 0L82 0M82 780L82 940L102 940L102 780L82 780Z"  horiz-adv-x="184" vert-adv-y="2048"  />

      
      <glyph glyph-name="uni3b" unicode="&#x3b;" d="M82-127L115 0L113 0L113 160L133 160L133 0L96-127L82-127M113 780L113 940L133 940L133 780L113 780Z"  horiz-adv-x="215" vert-adv-y="2048"  />

      
      <glyph glyph-name="uni3c" unicode="&#x3c;" d="M82 707L82 727L647 1016L647 993L106 717L647 440L647 418L82 707Z"  horiz-adv-x="729" vert-adv-y="2048"  />

      
      <glyph glyph-name="uni3d" unicode="&#x3d;" d="M82 649L82 668L438 668L438 649L82 649M82 854L82 872L438 872L438 854L82 854Z"  horiz-adv-x="520" vert-adv-y="2048"  />

      
      <glyph glyph-name="uni3e" unicode="&#x3e;" d="M82 418L82 440L623 717L82 993L82 1016L647 727L647 707L82 418Z"  horiz-adv-x="729" vert-adv-y="2048"  />

      
      <glyph glyph-name="uni3f" unicode="&#x3f;" d="M82 1004L82 1071Q82 1147 97 1211Q112 1275 144 1329Q176 1383 234.50 1413.50Q293 1444 373 1444Q454 1444 512.50 1415Q571 1386 603 1333Q635 1280 649.50 1216.50Q664 1153 664 1075Q664 995 631 923Q598 851 551.50 795Q505 739 458.50 682.50Q412 626 379 552Q346 478 346 395Q346 360 356 322L336 322Q326 364 326 395Q327 481 359.50 556.50Q392 632 438.50 689Q485 746 531.50 802Q578 858 610.50 928Q643 998 643 1075Q643 1425 373 1425Q298 1425 243 1395.50Q188 1366 158.50 1314.50Q129 1263 115.50 1203Q102 1143 102 1071L102 1004L82 1004M334 0L334 158L354 158L354 0L334 0Z"  horiz-adv-x="745" vert-adv-y="2048"  />

      
      <glyph glyph-name="uni40" unicode="&#x40;" d="M82 580Q82 696 99.50 804.50Q117 913 152 1015Q187 1117 245.50 1201.50Q304 1286 380.50 1349.50Q457 1413 563 1448Q669 1483 795 1483Q1062 1483 1194.50 1335.50Q1327 1188 1327 918Q1327 863 1321 803Q1315 743 1302 672Q1289 601 1264 539Q1239 477 1205 425Q1171 373 1119 342Q1067 311 1004 311Q945 311 915 353.50Q885 396 883 459Q814 285 649 285Q585 285 541 312Q497 339 476.50 386Q456 433 449.50 485Q443 537 449 596L469 797Q475 857 493.50 907.50Q512 958 543 999Q574 1040 622.50 1063.50Q671 1087 733 1087Q892 1087 930 934L944 1075L965 1075L903 496Q898 431 921 381.50Q944 332 1004 332Q1055 332 1098.50 355Q1142 378 1173 415.50Q1204 453 1228 504Q1252 555 1267 608Q1282 661 1291.50 718.50Q1301 776 1304 824Q1307 872 1307 915Q1307 1178 1180.50 1320Q1054 1462 795 1462Q649 1462 530 1412Q411 1362 332.50 1278.50Q254 1195 201 1080.50Q148 966 125 841Q102 716 102 580Q102-59 707-59Q932-59 1065 49L1065 23Q917-80 707-80Q391-80 236.50 90Q82 260 82 580M469 592Q461 542 468 491Q475 440 491.50 398.50Q508 357 549 331Q590 305 649 305Q708 305 754 330Q800 355 828 397.50Q856 440 871.50 489.50Q887 539 893 596L915 797Q923 848 915.50 896.50Q908 945 890 983Q872 1021 831.50 1044Q791 1067 733 1067Q675 1067 630 1045Q585 1023 556.50 983.50Q528 944 511.50 897.50Q495 851 489 795L469 592Z"  horiz-adv-x="1409" vert-adv-y="2048"  />

      
      <glyph glyph-name="uni41" unicode="&#x41;" d="M82 0L444 1436L473 1436L844 0L823 0L733 348L190 348L102 0L82 0M197 369L727 369L459 1409L197 369Z"  horiz-adv-x="925" vert-adv-y="2048"  />

      
      <glyph glyph-name="uni42" unicode="&#x42;" d="M82 0L82 1434L362 1434Q510 1434 570.50 1361.50Q631 1289 631 1141L631 1042Q631 913 585 845.50Q539 778 418 764Q659 737 659 457L659 328Q659 0 362 0L82 0M102 20L362 20Q508 20 573.50 99Q639 178 639 328L639 457Q639 616 562 685Q485 754 324 754L102 754L102 20M102 774L301 774Q386 774 440.50 785Q495 796 535 825Q575 854 592.50 907Q610 960 610 1042L610 1141Q610 1281 555.50 1347Q501 1413 362 1413L102 1413L102 774Z"  horiz-adv-x="741" vert-adv-y="2048"  />

      
      <glyph glyph-name="uni43" unicode="&#x43;" d="M82 352L82 1081Q82 1156 98 1219.50Q114 1283 147.50 1334.50Q181 1386 239.50 1415Q298 1444 377 1444Q456 1444 514.50 1415Q573 1386 606.50 1334.50Q640 1283 656 1219.50Q672 1156 672 1081L672 973L651 973L651 1081Q651 1153 636.50 1212Q622 1271 591 1319.50Q560 1368 505.50 1395.50Q451 1423 377 1423Q303 1423 248 1395.50Q193 1368 162 1319.50Q131 1271 116.50 1211.50Q102 1152 102 1081L102 352Q102 281 116.50 221.50Q131 162 162 113.50Q193 65 248 37.50Q303 10 377 10Q451 10 505.50 37.50Q560 65 591 113.50Q622 162 636.50 221Q651 280 651 352L651 504L672 504L672 352Q672 277 656 213.50Q640 150 606.50 99Q573 48 514.50 19Q456-10 377-10Q298-10 239.50 19Q181 48 147.50 99Q114 150 98 213.50Q82 277 82 352Z"  horiz-adv-x="753" vert-adv-y="2048"  />

      
      <glyph glyph-name="uni44" unicode="&#x44;" d="M82 0L82 1434L373 1434Q529 1434 604.50 1335Q680 1236 680 1075L680 356Q680 252 650 174.50Q620 97 550 48.50Q480 0 375 0L82 0M102 20L375 20Q522 20 590.50 112Q659 204 659 356L659 1075Q659 1228 589.50 1320.50Q520 1413 373 1413L102 1413L102 20Z"  horiz-adv-x="761" vert-adv-y="2048"  />

      
      <glyph glyph-name="uni45" unicode="&#x45;" d="M82 0L82 1434L618 1434L618 1413L102 1413L102 737L539 737L539 717L102 717L102 20L618 20L618 0L82 0Z"  horiz-adv-x="700" vert-adv-y="2048"  />

      
      <glyph glyph-name="uni46" unicode="&#x46;" d="M82 0L82 1434L598 1434L598 1413L102 1413L102 700L518 700L518 680L102 680L102 0L82 0Z"  horiz-adv-x="679" vert-adv-y="2048"  />

      
      <glyph glyph-name="uni47" unicode="&#x47;" d="M82 352L82 1081Q82 1156 98 1219.50Q114 1283 147.50 1334.50Q181 1386 239.50 1415Q298 1444 377 1444Q456 1444 514.50 1415Q573 1386 606.50 1334.50Q640 1283 656 1219.50Q672 1156 672 1081L672 991L651 991L651 1081Q651 1153 636.50 1212Q622 1271 591 1319.50Q560 1368 505.50 1395.50Q451 1423 377 1423Q303 1423 248 1395.50Q193 1368 162 1319.50Q131 1271 116.50 1211.50Q102 1152 102 1081L102 352Q102 281 116.50 221.50Q131 162 162 113.50Q193 65 248 37.50Q303 10 377 10Q451 10 505.50 37.50Q560 65 591 113.50Q622 162 636.50 221Q651 280 651 352L651 686L410 686L410 707L672 707L672 352Q672 277 656 213.50Q640 150 606.50 99Q573 48 514.50 19Q456-10 377-10Q298-10 239.50 19Q181 48 147.50 99Q114 150 98 213.50Q82 277 82 352Z"  horiz-adv-x="753" vert-adv-y="2048"  />

      
      <glyph glyph-name="uni48" unicode="&#x48;" d="M82 0L82 1434L102 1434L102 727L655 727L655 1434L676 1434L676 0L655 0L655 707L102 707L102 0L82 0Z"  horiz-adv-x="757" vert-adv-y="2048"  />

      
      <glyph glyph-name="uni49" unicode="&#x49;" d="M82 0L82 1434L102 1434L102 0L82 0Z"  horiz-adv-x="184" vert-adv-y="2048"  />

      
      <glyph glyph-name="uni4a" unicode="&#x4a;" d="M82 0L82 20Q89 19 99 19Q124 19 168 23Q297 35 355.50 112Q414 189 414 350L414 1434L434 1434L434 350Q434 180 368 96.50Q302 13 168 2Q132-1 106-1Q93-1 82 0Z"  horiz-adv-x="516" vert-adv-y="2048"  />

      
      <glyph glyph-name="uni4b" unicode="&#x4b;" d="M82 0L82 1434L102 1434L102 600L668 1434L692 1434L229 750L735 0L711 0L217 731L102 563L102 0L82 0Z"  horiz-adv-x="817" vert-adv-y="2048"  />

      
      <glyph glyph-name="uni4c" unicode="&#x4c;" d="M82 0L82 1434L102 1434L102 20L598 20L598 0L82 0Z"  horiz-adv-x="679" vert-adv-y="2048"  />

      
      <glyph glyph-name="uni4d" unicode="&#x4d;" d="M82 0L82 1434L119 1434L496 27L877 1434L911 1434L911 0L891 0L891 1413L510 4L481 4L102 1413L102 0L82 0Z"  horiz-adv-x="993" vert-adv-y="2048"  />

      
      <glyph glyph-name="uni4e" unicode="&#x4e;" d="M82 0L82 1434L117 1434L657 27L657 1434L678 1434L678 0L647 0L102 1413L102 0L82 0Z"  horiz-adv-x="759" vert-adv-y="2048"  />

      
      <glyph glyph-name="uni4f" unicode="&#x4f;" d="M82 352L82 1081Q82 1158 98.50 1221.50Q115 1285 149.50 1336Q184 1387 243 1415.50Q302 1444 381 1444Q461 1444 520 1415.50Q579 1387 614 1336Q649 1285 665.50 1221.50Q682 1158 682 1081L682 352Q682 275 665.50 211.50Q649 148 614 97.50Q579 47 520 18.50Q461-10 381-10Q302-10 243 18.50Q184 47 149.50 97.50Q115 148 98.50 211.50Q82 275 82 352M102 352Q102 279 117 219.50Q132 160 163.50 112Q195 64 250.50 37Q306 10 381 10Q456 10 512 37Q568 64 600 112Q632 160 647 219.50Q662 279 662 352L662 1081Q662 1153 647 1212.50Q632 1272 600 1320.50Q568 1369 512 1396Q456 1423 381 1423Q306 1423 250.50 1396Q195 1369 163.50 1320.50Q132 1272 117 1212.50Q102 1153 102 1081L102 352Z"  horiz-adv-x="763" vert-adv-y="2048"  />

      
      <glyph glyph-name="uni50" unicode="&#x50;" d="M82 0L82 1434L358 1434Q649 1434 649 1090L649 950Q649 780 569.50 699Q490 618 319 618L102 618L102 0L82 0M102 639L319 639Q482 639 555.50 713.50Q629 788 629 950L629 1090Q629 1242 567 1327.50Q505 1413 358 1413L102 1413L102 639Z"  horiz-adv-x="731" vert-adv-y="2048"  />

      
      <glyph glyph-name="uni51" unicode="&#x51;" d="M82 352L82 1081Q82 1158 98.50 1221.50Q115 1285 150 1336Q185 1387 244 1415.50Q303 1444 383 1444Q463 1444 522 1415.50Q581 1387 616 1336Q651 1285 667.50 1221.50Q684 1158 684 1081L684 352Q684 178 602 80Q647 8 743 8L766 8L766-12L743-12Q640-12 588 66Q512-10 383-10Q303-10 244 18.50Q185 47 150 97.50Q115 148 98.50 211.50Q82 275 82 352M102 352Q102 279 117 219.50Q132 160 164 112Q196 64 252 37Q308 10 383 10Q458 10 514 37Q570 64 602 112Q634 160 649 219.50Q664 279 664 352L664 1081Q664 1153 649 1212.50Q634 1272 602 1320.50Q570 1369 514 1396Q458 1423 383 1423Q308 1423 252 1396Q196 1369 164 1320.50Q132 1272 117 1212.50Q102 1153 102 1081L102 352Z"  horiz-adv-x="847" vert-adv-y="2048"  />

      
      <glyph glyph-name="uni52" unicode="&#x52;" d="M82 0L82 1434L358 1434Q649 1434 649 1112L649 983Q649 847 591.50 773Q534 699 410 680Q649 647 649 395L649 170Q649 50 690 0L666 0Q629 56 629 170L629 395Q629 476 605 531.50Q581 587 534 617Q487 647 428.50 659.50Q370 672 291 672L102 672L102 0L82 0M102 692L291 692Q376 692 434.50 704.50Q493 717 539 748Q585 779 607 837.50Q629 896 629 983L629 1112Q629 1257 565 1335Q501 1413 358 1413L102 1413L102 692Z"  horiz-adv-x="772" vert-adv-y="2048"  />

      
      <glyph glyph-name="uni53" unicode="&#x53;" d="M82 346L82 414L102 414L102 346Q102 195 167.50 102.50Q233 10 377 10Q521 10 586 102.50Q651 195 651 346Q651 421 620 482.50Q589 544 539.50 587.50Q490 631 430 670Q370 709 309.50 749.50Q249 790 199.50 835Q150 880 119 945Q88 1010 88 1090Q88 1254 159 1348.50Q230 1443 379 1444Q457 1444 514.50 1416Q572 1388 605.50 1337.50Q639 1287 654.50 1224.50Q670 1162 670 1087L670 1063L649 1063L649 1087Q649 1158 635 1216Q621 1274 590.50 1322Q560 1370 506.50 1396.50Q453 1423 379 1423Q305 1423 251.50 1397Q198 1371 167.50 1323.50Q137 1276 123 1218.50Q109 1161 109 1090Q109 1030 128.50 978.50Q148 927 180.50 888.50Q213 850 255 816Q297 782 343.50 752Q390 722 437 692Q484 662 526 627Q568 592 600.50 553Q633 514 652.50 461Q672 408 672 346Q672 187 601 88.50Q530-10 377-10Q224-10 153 88.50Q82 187 82 346Z"  horiz-adv-x="753" vert-adv-y="2048"  />

      
      <glyph glyph-name="uni54" unicode="&#x54;" d="M49 1413L49 1434L717 1434L717 1413L393 1413L393 0L373 0L373 1413L49 1413Z"  horiz-adv-x="772" vert-adv-y="2048"  />

      
      <glyph glyph-name="uni55" unicode="&#x55;" d="M82 356L82 1434L102 1434L102 356Q102 284 115.50 224.50Q129 165 159 115.50Q189 66 243.50 38Q298 10 373 10Q447 10 501 38Q555 66 584.50 115.50Q614 165 627.50 224.50Q641 284 641 356L641 1434L662 1434L662 356Q662 280 647 217Q632 154 599.50 101.50Q567 49 509 19.50Q451-10 373-10Q294-10 235.50 19.50Q177 49 144.50 101.50Q112 154 97 217Q82 280 82 356Z"  horiz-adv-x="743" vert-adv-y="2048"  />

      
      <glyph glyph-name="uni56" unicode="&#x56;" d="M82 1434L104 1434L465 23L821 1434L844 1434L481 0L451 0L82 1434Z"  horiz-adv-x="925" vert-adv-y="2048"  />

      
      <glyph glyph-name="uni57" unicode="&#x57;" d="M82 1434L102 1434L371 29L637 1425L670 1425L920 39L1180 1434L1200 1434L932 0L905 0L653 1405L385 0L354 0L82 1434Z"  horiz-adv-x="1282" vert-adv-y="2048"  />

      
      <glyph glyph-name="uni58" unicode="&#x58;" d="M82 0L446 745L106 1434L129 1434L457 768L784 1434L807 1434L469 745L831 0L809 0L457 723L106 0L82 0Z"  horiz-adv-x="913" vert-adv-y="2048"  />

      
      <glyph glyph-name="uni59" unicode="&#x59;" d="M82 1434L102 1434L434 623L768 1434L791 1434L444 594L444 0L424 0L424 594L82 1434Z"  horiz-adv-x="872" vert-adv-y="2048"  />

      
      <glyph glyph-name="uni5a" unicode="&#x5a;" d="M82 0L82 23L709 1413L113 1413L113 1434L731 1434L731 1409L104 20L721 20L721 0L82 0Z"  horiz-adv-x="815" vert-adv-y="2048"  />

      
      <glyph glyph-name="uni5b" unicode="&#x5b;" d="M82 0L82 1436L373 1436L373 1415L102 1415L102 20L373 20L373 0L82 0Z"  horiz-adv-x="454" vert-adv-y="2048"  />

      
      <glyph glyph-name="uni5c" unicode="&#x5c;" d="M82 1434L102 1434L668 0L647 0L82 1434Z"  horiz-adv-x="749" vert-adv-y="2048"  />

      
      <glyph glyph-name="uni5d" unicode="&#x5d;" d="M82 0L82 20L352 20L352 1415L82 1415L82 1436L373 1436L373 0L82 0Z"  horiz-adv-x="454" vert-adv-y="2048"  />

      
      <glyph glyph-name="uni5e" unicode="&#x5e;" d="M82 801L414 1434L438 1434L770 801L745 801L426 1411L106 801L82 801Z"  horiz-adv-x="851" vert-adv-y="2048"  />

      
      <glyph glyph-name="uni5f" unicode="&#x5f;" d="M82-20L963-20L963-39L82-39L82-20Z"  horiz-adv-x="1064" vert-adv-y="2048"  />

      
      <glyph glyph-name="uni60" unicode="&#x60;" d="M82 1737L111 1737L260 1561L233 1561L82 1737Z"  horiz-adv-x="342" vert-adv-y="2048"  />

      
      <glyph glyph-name="uni61" unicode="&#x61;" d="M82 0L444 1436L473 1436L844 0L823 0L733 348L190 348L102 0L82 0M197 369L727 369L459 1409L197 369Z"  horiz-adv-x="925" vert-adv-y="2048"  />

      
      <glyph glyph-name="uni62" unicode="&#x62;" d="M82 0L82 1434L362 1434Q510 1434 570.50 1361.50Q631 1289 631 1141L631 1042Q631 913 585 845.50Q539 778 418 764Q659 737 659 457L659 328Q659 0 362 0L82 0M102 20L362 20Q508 20 573.50 99Q639 178 639 328L639 457Q639 616 562 685Q485 754 324 754L102 754L102 20M102 774L301 774Q386 774 440.50 785Q495 796 535 825Q575 854 592.50 907Q610 960 610 1042L610 1141Q610 1281 555.50 1347Q501 1413 362 1413L102 1413L102 774Z"  horiz-adv-x="741" vert-adv-y="2048"  />

      
      <glyph glyph-name="uni63" unicode="&#x63;" d="M82 352L82 1081Q82 1156 98 1219.50Q114 1283 147.50 1334.50Q181 1386 239.50 1415Q298 1444 377 1444Q456 1444 514.50 1415Q573 1386 606.50 1334.50Q640 1283 656 1219.50Q672 1156 672 1081L672 973L651 973L651 1081Q651 1153 636.50 1212Q622 1271 591 1319.50Q560 1368 505.50 1395.50Q451 1423 377 1423Q303 1423 248 1395.50Q193 1368 162 1319.50Q131 1271 116.50 1211.50Q102 1152 102 1081L102 352Q102 281 116.50 221.50Q131 162 162 113.50Q193 65 248 37.50Q303 10 377 10Q451 10 505.50 37.50Q560 65 591 113.50Q622 162 636.50 221Q651 280 651 352L651 504L672 504L672 352Q672 277 656 213.50Q640 150 606.50 99Q573 48 514.50 19Q456-10 377-10Q298-10 239.50 19Q181 48 147.50 99Q114 150 98 213.50Q82 277 82 352Z"  horiz-adv-x="753" vert-adv-y="2048"  />

      
      <glyph glyph-name="uni64" unicode="&#x64;" d="M82 0L82 1434L373 1434Q529 1434 604.50 1335Q680 1236 680 1075L680 356Q680 252 650 174.50Q620 97 550 48.50Q480 0 375 0L82 0M102 20L375 20Q522 20 590.50 112Q659 204 659 356L659 1075Q659 1228 589.50 1320.50Q520 1413 373 1413L102 1413L102 20Z"  horiz-adv-x="761" vert-adv-y="2048"  />

      
      <glyph glyph-name="uni65" unicode="&#x65;" d="M82 0L82 1434L618 1434L618 1413L102 1413L102 737L539 737L539 717L102 717L102 20L618 20L618 0L82 0Z"  horiz-adv-x="700" vert-adv-y="2048"  />

      
      <glyph glyph-name="uni66" unicode="&#x66;" d="M82 0L82 1434L598 1434L598 1413L102 1413L102 700L518 700L518 680L102 680L102 0L82 0Z"  horiz-adv-x="679" vert-adv-y="2048"  />

      
      <glyph glyph-name="uni67" unicode="&#x67;" d="M82 352L82 1081Q82 1156 98 1219.50Q114 1283 147.50 1334.50Q181 1386 239.50 1415Q298 1444 377 1444Q456 1444 514.50 1415Q573 1386 606.50 1334.50Q640 1283 656 1219.50Q672 1156 672 1081L672 991L651 991L651 1081Q651 1153 636.50 1212Q622 1271 591 1319.50Q560 1368 505.50 1395.50Q451 1423 377 1423Q303 1423 248 1395.50Q193 1368 162 1319.50Q131 1271 116.50 1211.50Q102 1152 102 1081L102 352Q102 281 116.50 221.50Q131 162 162 113.50Q193 65 248 37.50Q303 10 377 10Q451 10 505.50 37.50Q560 65 591 113.50Q622 162 636.50 221Q651 280 651 352L651 686L410 686L410 707L672 707L672 352Q672 277 656 213.50Q640 150 606.50 99Q573 48 514.50 19Q456-10 377-10Q298-10 239.50 19Q181 48 147.50 99Q114 150 98 213.50Q82 277 82 352Z"  horiz-adv-x="753" vert-adv-y="2048"  />

      
      <glyph glyph-name="uni68" unicode="&#x68;" d="M82 0L82 1434L102 1434L102 727L655 727L655 1434L676 1434L676 0L655 0L655 707L102 707L102 0L82 0Z"  horiz-adv-x="757" vert-adv-y="2048"  />

      
      <glyph glyph-name="uni69" unicode="&#x69;" d="M82 0L82 1434L102 1434L102 0L82 0Z"  horiz-adv-x="184" vert-adv-y="2048"  />

      
      <glyph glyph-name="uni6a" unicode="&#x6a;" d="M82 0L82 20Q89 19 99 19Q124 19 168 23Q297 35 355.50 112Q414 189 414 350L414 1434L434 1434L434 350Q434 180 368 96.50Q302 13 168 2Q132-1 106-1Q93-1 82 0Z"  horiz-adv-x="516" vert-adv-y="2048"  />

      
      <glyph glyph-name="uni6b" unicode="&#x6b;" d="M82 0L82 1434L102 1434L102 600L668 1434L692 1434L229 750L735 0L711 0L217 731L102 563L102 0L82 0Z"  horiz-adv-x="817" vert-adv-y="2048"  />

      
      <glyph glyph-name="uni6c" unicode="&#x6c;" d="M82 0L82 1434L102 1434L102 20L598 20L598 0L82 0Z"  horiz-adv-x="679" vert-adv-y="2048"  />

      
      <glyph glyph-name="uni6d" unicode="&#x6d;" d="M82 0L82 1434L119 1434L496 27L877 1434L911 1434L911 0L891 0L891 1413L510 4L481 4L102 1413L102 0L82 0Z"  horiz-adv-x="993" vert-adv-y="2048"  />

      
      <glyph glyph-name="uni6e" unicode="&#x6e;" d="M82 0L82 1434L117 1434L657 27L657 1434L678 1434L678 0L647 0L102 1413L102 0L82 0Z"  horiz-adv-x="759" vert-adv-y="2048"  />

      
      <glyph glyph-name="uni6f" unicode="&#x6f;" d="M82 352L82 1081Q82 1158 98.50 1221.50Q115 1285 149.50 1336Q184 1387 243 1415.50Q302 1444 381 1444Q461 1444 520 1415.50Q579 1387 614 1336Q649 1285 665.50 1221.50Q682 1158 682 1081L682 352Q682 275 665.50 211.50Q649 148 614 97.50Q579 47 520 18.50Q461-10 381-10Q302-10 243 18.50Q184 47 149.50 97.50Q115 148 98.50 211.50Q82 275 82 352M102 352Q102 279 117 219.50Q132 160 163.50 112Q195 64 250.50 37Q306 10 381 10Q456 10 512 37Q568 64 600 112Q632 160 647 219.50Q662 279 662 352L662 1081Q662 1153 647 1212.50Q632 1272 600 1320.50Q568 1369 512 1396Q456 1423 381 1423Q306 1423 250.50 1396Q195 1369 163.50 1320.50Q132 1272 117 1212.50Q102 1153 102 1081L102 352Z"  horiz-adv-x="763" vert-adv-y="2048"  />

      
      <glyph glyph-name="uni70" unicode="&#x70;" d="M82 0L82 1434L358 1434Q649 1434 649 1090L649 950Q649 780 569.50 699Q490 618 319 618L102 618L102 0L82 0M102 639L319 639Q482 639 555.50 713.50Q629 788 629 950L629 1090Q629 1242 567 1327.50Q505 1413 358 1413L102 1413L102 639Z"  horiz-adv-x="731" vert-adv-y="2048"  />

      
      <glyph glyph-name="uni71" unicode="&#x71;" d="M82 352L82 1081Q82 1158 98.50 1221.50Q115 1285 150 1336Q185 1387 244 1415.50Q303 1444 383 1444Q463 1444 522 1415.50Q581 1387 616 1336Q651 1285 667.50 1221.50Q684 1158 684 1081L684 352Q684 178 602 80Q647 8 743 8L766 8L766-12L743-12Q640-12 588 66Q512-10 383-10Q303-10 244 18.50Q185 47 150 97.50Q115 148 98.50 211.50Q82 275 82 352M102 352Q102 279 117 219.50Q132 160 164 112Q196 64 252 37Q308 10 383 10Q458 10 514 37Q570 64 602 112Q634 160 649 219.50Q664 279 664 352L664 1081Q664 1153 649 1212.50Q634 1272 602 1320.50Q570 1369 514 1396Q458 1423 383 1423Q308 1423 252 1396Q196 1369 164 1320.50Q132 1272 117 1212.50Q102 1153 102 1081L102 352Z"  horiz-adv-x="788" vert-adv-y="2048"  />

      
      <glyph glyph-name="uni72" unicode="&#x72;" d="M82 0L82 1434L358 1434Q649 1434 649 1112L649 983Q649 847 591.50 773Q534 699 410 680Q649 647 649 395L649 170Q649 50 690 0L666 0Q629 56 629 170L629 395Q629 476 605 531.50Q581 587 534 617Q487 647 428.50 659.50Q370 672 291 672L102 672L102 0L82 0M102 692L291 692Q376 692 434.50 704.50Q493 717 539 748Q585 779 607 837.50Q629 896 629 983L629 1112Q629 1257 565 1335Q501 1413 358 1413L102 1413L102 692Z"  horiz-adv-x="772" vert-adv-y="2048"  />

      
      <glyph glyph-name="uni73" unicode="&#x73;" d="M82 346L82 414L102 414L102 346Q102 195 167.50 102.50Q233 10 377 10Q521 10 586 102.50Q651 195 651 346Q651 421 620 482.50Q589 544 539.50 587.50Q490 631 430 670Q370 709 309.50 749.50Q249 790 199.50 835Q150 880 119 945Q88 1010 88 1090Q88 1254 159 1348.50Q230 1443 379 1444Q457 1444 514.50 1416Q572 1388 605.50 1337.50Q639 1287 654.50 1224.50Q670 1162 670 1087L670 1063L649 1063L649 1087Q649 1158 635 1216Q621 1274 590.50 1322Q560 1370 506.50 1396.50Q453 1423 379 1423Q305 1423 251.50 1397Q198 1371 167.50 1323.50Q137 1276 123 1218.50Q109 1161 109 1090Q109 1030 128.50 978.50Q148 927 180.50 888.50Q213 850 255 816Q297 782 343.50 752Q390 722 437 692Q484 662 526 627Q568 592 600.50 553Q633 514 652.50 461Q672 408 672 346Q672 187 601 88.50Q530-10 377-10Q224-10 153 88.50Q82 187 82 346Z"  horiz-adv-x="753" vert-adv-y="2048"  />

      
      <glyph glyph-name="uni74" unicode="&#x74;" d="M41 1413L41 1434L709 1434L709 1413L385 1413L385 0L365 0L365 1413L41 1413Z"  horiz-adv-x="755" vert-adv-y="2048"  />

      
      <glyph glyph-name="uni75" unicode="&#x75;" d="M82 356L82 1434L102 1434L102 356Q102 284 115.50 224.50Q129 165 159 115.50Q189 66 243.50 38Q298 10 373 10Q447 10 501 38Q555 66 584.50 115.50Q614 165 627.50 224.50Q641 284 641 356L641 1434L662 1434L662 356Q662 280 647 217Q632 154 599.50 101.50Q567 49 509 19.50Q451-10 373-10Q294-10 235.50 19.50Q177 49 144.50 101.50Q112 154 97 217Q82 280 82 356Z"  horiz-adv-x="743" vert-adv-y="2048"  />

      
      <glyph glyph-name="uni76" unicode="&#x76;" d="M82 1434L104 1434L465 23L821 1434L844 1434L481 0L451 0L82 1434Z"  horiz-adv-x="925" vert-adv-y="2048"  />

      
      <glyph glyph-name="uni77" unicode="&#x77;" d="M82 1434L102 1434L371 29L637 1425L670 1425L920 39L1180 1434L1200 1434L932 0L905 0L653 1405L385 0L354 0L82 1434Z"  horiz-adv-x="1282" vert-adv-y="2048"  />

      
      <glyph glyph-name="uni78" unicode="&#x78;" d="M82 0L446 745L106 1434L129 1434L457 768L784 1434L807 1434L469 745L831 0L809 0L457 723L106 0L82 0Z"  horiz-adv-x="913" vert-adv-y="2048"  />

      
      <glyph glyph-name="uni79" unicode="&#x79;" d="M82 1434L102 1434L434 623L768 1434L791 1434L444 594L444 0L424 0L424 594L82 1434Z"  horiz-adv-x="872" vert-adv-y="2048"  />

      
      <glyph glyph-name="uni7a" unicode="&#x7a;" d="M82 0L82 23L709 1413L113 1413L113 1434L731 1434L731 1409L104 20L721 20L721 0L82 0Z"  horiz-adv-x="815" vert-adv-y="2048"  />

      
      <glyph glyph-name="uni7b" unicode="&#x7b;" d="M82 702L82 731Q120 740 145.50 754.50Q171 769 185.50 784.50Q200 800 207.50 829Q215 858 217.50 880.50Q220 903 221 946L236 1231Q238 1269 241.50 1295Q245 1321 255 1349.50Q265 1378 281 1395.50Q297 1413 324.50 1424.50Q352 1436 389 1436L442 1436L442 1415L389 1415Q356 1415 332 1404.50Q308 1394 294.50 1379Q281 1364 272.50 1337.50Q264 1311 261 1288.50Q258 1266 256 1231L242 944Q241 905 238.50 881Q236 857 228 828Q220 799 206 780Q192 761 168 744Q144 727 109 717Q152 705 179 684.50Q206 664 219 631Q232 598 236 568.50Q240 539 242 489L256 205Q258 170 261 147.50Q264 125 272.50 98Q281 71 294.50 56Q308 41 332 30.50Q356 20 389 20L442 20L442 0L389 0Q343 0 312 15.50Q281 31 266 62Q251 93 245 125Q239 157 236 205L221 489Q220 531 217.50 553.50Q215 576 207.50 605Q200 634 185.50 649.50Q171 665 145.50 679.50Q120 694 82 702Z"  horiz-adv-x="524" vert-adv-y="2048"  />

      
      <glyph glyph-name="uni7c" unicode="&#x7c;" d="M102 0L102 1436L123 1436L123 0L102 0Z"  horiz-adv-x="225" vert-adv-y="2048"  />

      
      <glyph glyph-name="uni7d" unicode="&#x7d;" d="M82 0L82 20L135 20Q168 20 192 30.50Q216 41 229.50 56Q243 71 251.50 98Q260 125 263 147.50Q266 170 268 205L283 489Q285 539 289 568.50Q293 598 306 631Q319 664 346 684.50Q373 705 416 717Q381 727 357 744Q333 761 319 780Q305 799 297 828Q289 857 286.50 881Q284 905 283 944L268 1231Q266 1266 263 1288.50Q260 1311 251.50 1337.50Q243 1364 229.50 1379Q216 1394 192 1404.50Q168 1415 135 1415L82 1415L82 1436L135 1436Q181 1436 212 1420.50Q243 1405 258.50 1373.50Q274 1342 280 1310Q286 1278 289 1231L303 946Q304 903 306.50 880.50Q309 858 316.50 829Q324 800 338.50 784.50Q353 769 378.50 754.50Q404 740 442 731L442 702Q404 694 378.50 679.50Q353 665 338.50 649.50Q324 634 316.50 605Q309 576 306.50 553.50Q304 531 303 489L289 205Q286 157 280 125Q274 93 258.50 62Q243 31 212 15.50Q181 0 135 0L82 0Z"  horiz-adv-x="524" vert-adv-y="2048"  />

      
      <glyph glyph-name="uni7e" unicode="&#x7e;" d="M82 672Q149 785 250 788Q292 789 340 769.50Q388 750 424 725Q460 700 504.50 680.50Q549 661 586 662Q658 667 713 770L731 760Q669 646 588 641Q548 639 501.50 659Q455 679 419 704Q383 729 336.50 749Q290 769 250 768Q159 768 98 662L82 672Z"  horiz-adv-x="813" vert-adv-y="2048"  />

      
      <glyph glyph-name="unia2" unicode="&#xa2;" d="M82 459L82 979Q82 1053 97.50 1115Q113 1177 145 1228Q177 1279 233 1309Q289 1339 365 1341L365 1434L385 1434L385 1341Q533 1338 601.50 1243.50Q670 1149 670 993L670 948L649 948L649 993Q649 1065 634.50 1122.50Q620 1180 589 1225.50Q558 1271 504 1296Q450 1321 375 1321Q301 1321 246.50 1293.50Q192 1266 161.50 1217.50Q131 1169 116.50 1110Q102 1051 102 979L102 459Q102 388 116.50 329Q131 270 161.50 221Q192 172 246.50 144.50Q301 117 375 117Q449 117 503.50 143.50Q558 170 589 217.50Q620 265 634.50 324Q649 383 649 455L649 537L670 537L670 455Q670 380 654.50 318Q639 256 606.50 206Q574 156 517.50 127Q461 98 385 96L385 0L365 0L365 96Q289 98 233 128Q177 158 145 209Q113 260 97.50 322.50Q82 385 82 459Z"  horiz-adv-x="751" vert-adv-y="2048"  />

      
      <glyph glyph-name="unia3" unicode="&#xa3;" d="M82 0L82 20Q106 49 126 73.50Q146 98 169 129.50Q192 161 209.50 190.50Q227 220 244 253Q261 286 272 319Q283 352 289.50 386Q296 420 295.50 455.50Q295 491 287 526L106 526L106 547L283 547Q266 609 233.50 677.50Q201 746 175 794Q149 842 129 916.50Q109 991 109 1075Q109 1137 117.50 1189.50Q126 1242 147 1290Q168 1338 200.50 1371.50Q233 1405 283.50 1424.50Q334 1444 399 1444Q479 1444 536.50 1413.50Q594 1383 625.50 1328.50Q657 1274 671.50 1210Q686 1146 686 1069L686 1014L666 1014L666 1069Q666 1141 653 1201Q640 1261 611 1313Q582 1365 528 1394Q474 1423 399 1423Q129 1423 129 1075Q129 992 149.50 917Q170 842 196 794Q222 746 254 677Q286 608 303 547L635 547L635 526L309 526Q331 421 289.50 302.50Q248 184 109 20L698 20L698 0L82 0Z"  horiz-adv-x="780" vert-adv-y="2048"  />

      
      <glyph glyph-name="unia5" unicode="&#xa5;" d="M82 1434L104 1434L461 592L819 1434L840 1434L471 565L715 565L715 545L471 545L471 365L715 365L715 344L471 344L471 0L451 0L451 344L209 344L209 365L451 365L451 545L209 545L209 565L449 565L82 1434Z"  horiz-adv-x="921" vert-adv-y="2048"  />

      
      <glyph glyph-name="unia8" unicode="&#xa8;" d="M82 1536L82 1696L102 1696L102 1536L82 1536M217 1536L217 1696L238 1696L238 1536L217 1536Z"  horiz-adv-x="319" vert-adv-y="2048"  />

      
      <glyph glyph-name="unia9" unicode="&#xa9;" d="M169 357.50Q169 357.50 125.50 438.25Q82 519 82 717Q82 915 169 1076.50Q256 1238 414.50 1331.50Q573 1425 772 1425Q920 1425 1049 1370Q1178 1315 1268.50 1220.50Q1359 1126 1410.50 995.50Q1462 865 1462 717Q1462 569 1410.50 438Q1359 307 1268.50 212.50Q1178 118 1049 63Q920 8 772 8Q573 8 414.50 102Q256 196 169 357.50M152 987.50Q152 987.50 127 924.25Q102 861 102 717Q102 573 152 446Q202 319 289.50 226.50Q377 134 502 80.50Q627 27 772 27Q917 27 1042 80.50Q1167 134 1254.50 226.50Q1342 319 1392 446Q1442 573 1442 717Q1442 861 1392 987.50Q1342 1114 1254.50 1206Q1167 1298 1042 1351.50Q917 1405 772 1405Q627 1405 502 1351.50Q377 1298 289.50 1206Q202 1114 152 987.50M557 520L557 913Q557 1024 607 1094.50Q657 1165 764 1165Q870 1165 919.50 1094.50Q969 1024 969 913L969 879L948 879L948 913Q948 1016 904.50 1080.50Q861 1145 764 1145Q713 1145 676 1126.50Q639 1108 618 1075Q597 1042 587.50 1002Q578 962 578 913L578 520Q578 417 622 352Q666 287 764 287Q861 287 904.50 352Q948 417 948 520L948 571L969 571L969 520Q969 409 919.50 337.50Q870 266 764 266Q657 266 607 337.50Q557 409 557 520Z"  horiz-adv-x="1544" vert-adv-y="2048"  />

      
      <glyph glyph-name="uniab" unicode="&#xab;" d="M82 719L219 1206L240 1206L102 719L240 233L219 233L82 719M264 719L401 1206L422 1206L285 719L422 233L401 233L264 719Z"  horiz-adv-x="503" vert-adv-y="2048"  />

      
      <glyph glyph-name="uniad" unicode="&#xad;" d="M82 709L82 727L438 727L438 709L82 709Z"  horiz-adv-x="520" vert-adv-y="2048"  />

      
      <glyph glyph-name="uniae" unicode="&#xae;" d="M169 357.50Q169 357.50 125.50 438.25Q82 519 82 717Q82 915 169 1076.50Q256 1238 414.50 1331.50Q573 1425 772 1425Q920 1425 1049 1370Q1178 1315 1268.50 1220.50Q1359 1126 1410.50 995.50Q1462 865 1462 717Q1462 569 1410.50 438Q1359 307 1268.50 212.50Q1178 118 1049 63Q920 8 772 8Q573 8 414.50 102Q256 196 169 357.50M152 987.50Q152 987.50 127 924.25Q102 861 102 717Q102 573 152 446Q202 319 289.50 226.50Q377 134 502 80.50Q627 27 772 27Q917 27 1042 80.50Q1167 134 1254.50 226.50Q1342 319 1392 446Q1442 573 1442 717Q1442 861 1392 987.50Q1342 1114 1254.50 1206Q1167 1298 1042 1351.50Q917 1405 772 1405Q627 1405 502 1351.50Q377 1298 289.50 1206Q202 1114 152 987.50M584 279L584 1155L778 1155Q983 1155 983 928L983 899Q983 814 950.50 760.50Q918 707 840 688Q985 652 985 492L985 397Q985 310 1014 279L989 279Q965 321 965 397L965 492Q965 549 948 587Q931 625 897 645Q863 665 823 672.50Q783 680 727 680L604 680L604 279L584 279M604 700L752 700Q860 700 911.50 746.50Q963 793 963 899L963 928Q963 1028 920 1081.50Q877 1135 778 1135L604 1135L604 700Z"  horiz-adv-x="1544" vert-adv-y="2048"  />

      
      <glyph glyph-name="unib4" unicode="&#xb4;" d="M82 1561L231 1737L260 1737L109 1561L82 1561Z"  horiz-adv-x="342" vert-adv-y="2048"  />

      
      <glyph glyph-name="unib8" unicode="&#xb8;" d="M82-182L102-182L102-188Q102-223 128-248Q154-273 186.50-282.50Q219-292 254-293Q309-293 355-267.50Q401-242 401-190Q401-161 388.50-141.50Q376-122 353.50-113Q331-104 309-101Q287-98 258-98L248-98L248 0L268 0L268-80Q422-84 422-190Q422-251 370-282Q318-313 254-311Q188-311 135-280Q82-249 82-188L82-182Z"  horiz-adv-x="503" vert-adv-y="2048"  />

      
      <glyph glyph-name="unibb" unicode="&#xbb;" d="M82 233L219 719L82 1206L102 1206L240 719L102 233L82 233M264 233L401 719L264 1206L285 1206L422 719L285 233L264 233Z"  horiz-adv-x="503" vert-adv-y="2048"  />

      
      <glyph glyph-name="uni02C6" unicode="&#x02C6;" d="M82 1577L248 1737L262 1737L430 1577L399 1577L256 1716L111 1577L82 1577Z"  horiz-adv-x="512" vert-adv-y="2048"  />

      
      <glyph glyph-name="uni02DA" unicode="&#x02DA;" d="M82 1667Q82 1718 118 1752Q154 1786 205 1786Q256 1786 292 1752Q328 1718 328 1667Q328 1615 292.50 1580.50Q257 1546 205 1546Q153 1546 117.50 1580.50Q82 1615 82 1667M102 1667Q102 1623 132 1595Q162 1567 205 1567Q247 1567 277 1595.50Q307 1624 307 1667Q307 1709 277 1737Q247 1765 205 1765Q162 1765 132 1737Q102 1709 102 1667Z"  horiz-adv-x="409" vert-adv-y="2048"  />

      
      <glyph glyph-name="uni02DC" unicode="&#x02DC;" d="M82 1579Q124 1650 184 1653Q222 1654 286 1613.50Q350 1573 379 1575Q418 1577 449 1638L467 1628Q430 1556 379 1554Q343 1552 280 1592.50Q217 1633 184 1632Q134 1632 100 1569L82 1579Z"  horiz-adv-x="548" vert-adv-y="2048"  />

      
      <glyph glyph-name="uni0401" unicode="&#x0401;" d="M82 0L82 1434L618 1434L618 1413L102 1413L102 737L539 737L539 717L102 717L102 20L618 20L618 0L82 0M274 1536L274 1696L295 1696L295 1536L274 1536M410 1536L410 1696L430 1696L430 1536L410 1536Z"  horiz-adv-x="700" vert-adv-y="2048"  />

      
      <glyph glyph-name="uni0410" unicode="&#x0410;" d="M82 0L444 1436L473 1436L844 0L823 0L733 348L190 348L102 0L82 0M197 369L727 369L459 1409L197 369Z"  horiz-adv-x="925" vert-adv-y="2048"  />

      
      <glyph glyph-name="uni0411" unicode="&#x0411;" d="M82 0L82 1434L631 1434L631 1413L102 1413L102 801L348 801Q519 801 598.50 734.50Q678 668 678 502L678 334Q678 171 605.50 85.50Q533 0 373 0L82 0M102 20L373 20Q524 20 590.50 100Q657 180 657 334L657 502Q657 660 584.50 720Q512 780 348 780L102 780L102 20Z"  horiz-adv-x="759" vert-adv-y="2048"  />

      
      <glyph glyph-name="uni0412" unicode="&#x0412;" d="M82 0L82 1434L362 1434Q510 1434 570.50 1361.50Q631 1289 631 1141L631 1042Q631 913 585 845.50Q539 778 418 764Q659 737 659 457L659 328Q659 0 362 0L82 0M102 20L362 20Q508 20 573.50 99Q639 178 639 328L639 457Q639 616 562 685Q485 754 324 754L102 754L102 20M102 774L301 774Q386 774 440.50 785Q495 796 535 825Q575 854 592.50 907Q610 960 610 1042L610 1141Q610 1281 555.50 1347Q501 1413 362 1413L102 1413L102 774Z"  horiz-adv-x="741" vert-adv-y="2048"  />

      
      <glyph glyph-name="uni0413" unicode="&#x0413;" d="M82 0L82 1434L606 1434L606 1413L102 1413L102 0L82 0Z"  horiz-adv-x="688" vert-adv-y="2048"  />

      
      <glyph glyph-name="uni0414" unicode="&#x0414;" d="M82 20L186 20Q218 52 235.50 97.50Q253 143 257 178Q261 213 264 274L326 1434L791 1434L791 20L922 20L922-203L901-203L901 0L102 0L102-203L82-203L82 20M215 20L770 20L770 1413L346 1413L285 272Q282 212 278.50 178.50Q275 145 259.50 99Q244 53 215 20Z"  horiz-adv-x="1003" vert-adv-y="2048"  />

      
      <glyph glyph-name="uni0415" unicode="&#x0415;" d="M82 0L82 1434L618 1434L618 1413L102 1413L102 737L539 737L539 717L102 717L102 20L618 20L618 0L82 0Z"  horiz-adv-x="700" vert-adv-y="2048"  />

      
      <glyph glyph-name="uni0416" unicode="&#x0416;" d="M82 0L508 780L106 1434L129 1434L637 606L637 1434L657 1434L657 606L1165 1434L1190 1434L788 780L1214 0L1192 0L776 762L657 569L657 0L637 0L637 571L520 762L104 0L82 0Z"  horiz-adv-x="1296" vert-adv-y="2048"  />

      
      <glyph glyph-name="uni0417" unicode="&#x0417;" d="M82 352L82 451L102 451L102 352Q102 280 116.50 221Q131 162 161.50 113.50Q192 65 247 37.50Q302 10 377 10Q452 10 506.50 37.50Q561 65 592 113.50Q623 162 637 221Q651 280 651 352L651 463Q651 581 579 659Q507 737 389 737L293 737L293 758L389 758Q500 758 575.50 845Q651 932 651 1044L651 1081Q651 1153 637 1212.50Q623 1272 592 1320.50Q561 1369 506.50 1396Q452 1423 377 1423Q302 1423 247 1396Q192 1369 161.50 1320.50Q131 1272 116.50 1212.50Q102 1153 102 1081L102 1026L82 1026L82 1081Q82 1157 98 1220.50Q114 1284 147 1335Q180 1386 239 1415Q298 1444 377 1444Q456 1444 515 1415Q574 1386 607 1335Q640 1284 656 1220.50Q672 1157 672 1081L672 1044Q672 941 613.50 859Q555 777 455 748Q559 727 615.50 648.50Q672 570 672 463L672 352Q672 276 656 213Q640 150 607 98.50Q574 47 515 18.50Q456-10 377-10Q298-10 239 18.50Q180 47 147 98.50Q114 150 98 213Q82 276 82 352Z"  horiz-adv-x="753" vert-adv-y="2048"  />

      
      <glyph glyph-name="uni0418" unicode="&#x0418;" d="M82 0L82 1434L102 1434L102 27L385 764L643 1434L678 1434L678 0L657 0L657 1413L375 682L113 0L82 0Z"  horiz-adv-x="759" vert-adv-y="2048"  />

      
      <glyph glyph-name="uni0419" unicode="&#x0419;" d="M82 0L82 1434L102 1434L102 27L643 1434L678 1434L678 0L657 0L657 1413L113 0L82 0M207 1677L229 1677Q230 1617 278.50 1584.50Q327 1552 395 1552Q461 1552 509.50 1584.50Q558 1617 561 1677L584 1677Q581 1611 525.50 1572.50Q470 1534 395 1534Q319 1534 263.50 1572Q208 1610 207 1677Z"  horiz-adv-x="759" vert-adv-y="2048"  />

      
      <glyph glyph-name="uni041A" unicode="&#x041A;" d="M82 0L82 1434L102 1434L102 600L668 1434L692 1434L229 750L735 0L711 0L217 731L102 563L102 0L82 0Z"  horiz-adv-x="817" vert-adv-y="2048"  />

      
      <glyph glyph-name="uni041B" unicode="&#x041B;" d="M82-2L82 18Q137 18 175.50 37.50Q214 57 233.50 85.50Q253 114 263.50 159.50Q274 205 277 242.50Q280 280 281 332Q281 341 281 346L326 1434L803 1434L803 0L782 0L782 1413L346 1413L301 344Q294 204 283 156Q252 28 143 4Q119-1 92-2L82-2Z"  horiz-adv-x="884" vert-adv-y="2048"  />

      
      <glyph glyph-name="uni041C" unicode="&#x041C;" d="M82 0L82 1434L119 1434L496 27L877 1434L911 1434L911 0L891 0L891 1413L510 4L481 4L102 1413L102 0L82 0Z"  horiz-adv-x="993" vert-adv-y="2048"  />

      
      <glyph glyph-name="uni041D" unicode="&#x041D;" d="M82 0L82 1434L102 1434L102 727L655 727L655 1434L676 1434L676 0L655 0L655 707L102 707L102 0L82 0Z"  horiz-adv-x="757" vert-adv-y="2048"  />

      
      <glyph glyph-name="uni041E" unicode="&#x041E;" d="M82 352L82 1081Q82 1158 98.50 1221.50Q115 1285 149.50 1336Q184 1387 243 1415.50Q302 1444 381 1444Q461 1444 520 1415.50Q579 1387 614 1336Q649 1285 665.50 1221.50Q682 1158 682 1081L682 352Q682 275 665.50 211.50Q649 148 614 97.50Q579 47 520 18.50Q461-10 381-10Q302-10 243 18.50Q184 47 149.50 97.50Q115 148 98.50 211.50Q82 275 82 352M102 352Q102 279 117 219.50Q132 160 163.50 112Q195 64 250.50 37Q306 10 381 10Q456 10 512 37Q568 64 600 112Q632 160 647 219.50Q662 279 662 352L662 1081Q662 1153 647 1212.50Q632 1272 600 1320.50Q568 1369 512 1396Q456 1423 381 1423Q306 1423 250.50 1396Q195 1369 163.50 1320.50Q132 1272 117 1212.50Q102 1153 102 1081L102 352Z"  horiz-adv-x="763" vert-adv-y="2048"  />

      
      <glyph glyph-name="uni041F" unicode="&#x041F;" d="M82 0L82 1434L676 1434L676 0L655 0L655 1413L102 1413L102 0L82 0Z"  horiz-adv-x="757" vert-adv-y="2048"  />

      
      <glyph glyph-name="uni0420" unicode="&#x0420;" d="M82 0L82 1434L358 1434Q649 1434 649 1090L649 950Q649 780 569.50 699Q490 618 319 618L102 618L102 0L82 0M102 639L319 639Q482 639 555.50 713.50Q629 788 629 950L629 1090Q629 1242 567 1327.50Q505 1413 358 1413L102 1413L102 639Z"  horiz-adv-x="731" vert-adv-y="2048"  />

      
      <glyph glyph-name="uni0421" unicode="&#x0421;" d="M82 352L82 1081Q82 1156 98 1219.50Q114 1283 147.50 1334.50Q181 1386 239.50 1415Q298 1444 377 1444Q456 1444 514.50 1415Q573 1386 606.50 1334.50Q640 1283 656 1219.50Q672 1156 672 1081L672 973L651 973L651 1081Q651 1153 636.50 1212Q622 1271 591 1319.50Q560 1368 505.50 1395.50Q451 1423 377 1423Q303 1423 248 1395.50Q193 1368 162 1319.50Q131 1271 116.50 1211.50Q102 1152 102 1081L102 352Q102 281 116.50 221.50Q131 162 162 113.50Q193 65 248 37.50Q303 10 377 10Q451 10 505.50 37.50Q560 65 591 113.50Q622 162 636.50 221Q651 280 651 352L651 504L672 504L672 352Q672 277 656 213.50Q640 150 606.50 99Q573 48 514.50 19Q456-10 377-10Q298-10 239.50 19Q181 48 147.50 99Q114 150 98 213.50Q82 277 82 352Z"  horiz-adv-x="753" vert-adv-y="2048"  />

      
      <glyph glyph-name="uni0422" unicode="&#x0422;" d="M82 1413L82 1434L750 1434L750 1413L426 1413L426 0L406 0L406 1413L82 1413Z"  horiz-adv-x="831" vert-adv-y="2048"  />

      
      <glyph glyph-name="uni0423" unicode="&#x0423;" d="M82 1434L104 1434L299 920L455 510L788 1434L811 1434L369 211Q349 156 333 124Q317 92 290 60Q263 28 224 14Q185 0 131 0L131 20Q181 20 217 33Q253 46 277.50 76Q302 106 316.50 135.50Q331 165 350 217L444 481L82 1434Z"  horiz-adv-x="892" vert-adv-y="2048"  />

      
      <glyph glyph-name="uni0424" unicode="&#x0424;" d="M82 516L82 907Q82 1084 158.50 1178Q235 1272 408 1272L543 1272L543 1434L563 1434L563 1272L698 1272Q871 1272 948.50 1178Q1026 1084 1026 907L1026 516Q1026 339 948.50 245.50Q871 152 698 152L563 152L563 0L543 0L543 152L408 152Q235 152 158.50 245.50Q82 339 82 516M102 516Q102 348 173.50 260Q245 172 408 172L543 172L543 1251L408 1251Q245 1251 173.50 1163Q102 1075 102 907L102 516M563 172L698 172Q862 172 934 260Q1006 348 1006 516L1006 907Q1006 1075 934.50 1163Q863 1251 698 1251L563 1251L563 172Z"  horiz-adv-x="1107" vert-adv-y="2048"  />

      
      <glyph glyph-name="uni0425" unicode="&#x0425;" d="M82 0L446 745L106 1434L129 1434L457 768L784 1434L807 1434L469 745L831 0L809 0L457 723L106 0L82 0Z"  horiz-adv-x="913" vert-adv-y="2048"  />

      
      <glyph glyph-name="uni0426" unicode="&#x0426;" d="M123 0L123 1434L141 1434L141 20L694 20L694 1434L715 1434L715 20L846 20L846-193L825-193L825 0L123 0Z"  horiz-adv-x="931" vert-adv-y="2048"  />

      
      <glyph glyph-name="uni0427" unicode="&#x0427;" d="M82 936L82 1434L102 1434L102 936Q102 867 117 808Q132 749 162.50 699.50Q193 650 247 622Q301 594 373 594Q583 594 659 801L659 1434L680 1434L680 0L659 0L659 752Q573 573 373 573Q297 573 239 603Q181 633 148 684.50Q115 736 98.50 799.50Q82 863 82 936Z"  horiz-adv-x="761" vert-adv-y="2048"  />

      
      <glyph glyph-name="uni0428" unicode="&#x0428;" d="M82 0L82 1434L102 1434L102 20L547 20L547 1434L567 1434L567 20L1010 20L1010 1434L1030 1434L1030 0L82 0Z"  horiz-adv-x="1112" vert-adv-y="2048"  />

      
      <glyph glyph-name="uni0429" unicode="&#x0429;" d="M82 0L82 1434L102 1434L102 20L545 20L545 1434L565 1434L565 20L1010 20L1008 1434L1028 1434L1028 20L1161 20L1161-193L1141-193L1141 0L82 0Z"  horiz-adv-x="1243" vert-adv-y="2048"  />

      
      <glyph glyph-name="uni042A" unicode="&#x042A;" d="M82 1413L82 1434L315 1434L315 815L532 815Q703 815 782.50 734Q862 653 862 483L862 344Q862 0 571 0L295 0L295 1413L82 1413M315 20L571 20Q718 20 780 106Q842 192 842 344L842 483Q842 645 768 720Q694 795 532 795L315 795L315 20Z"  horiz-adv-x="944" vert-adv-y="2048"  />

      
      <glyph glyph-name="uni042B" unicode="&#x042B;" d="M82 0L82 1434L102 1434L102 815L317 815Q489 815 569 734Q649 653 649 483L649 344Q649 0 356 0L82 0M102 20L356 20Q629 20 629 344L629 483Q629 645 554.50 720Q480 795 317 795L102 795L102 20M788 0L788 1434L809 1434L809 0L788 0Z"  horiz-adv-x="890" vert-adv-y="2048"  />

      
      <glyph glyph-name="uni042C" unicode="&#x042C;" d="M82 0L82 1434L102 1434L102 815L317 815Q489 815 569 734Q649 653 649 483L649 344Q649 0 356 0L82 0M102 20L356 20Q629 20 629 344L629 483Q629 645 554.50 720Q480 795 317 795L102 795L102 20Z"  horiz-adv-x="731" vert-adv-y="2048"  />

      
      <glyph glyph-name="uni042D" unicode="&#x042D;" d="M82 352L82 477L102 477L102 352Q102 280 116.50 221Q131 162 161.50 113.50Q192 65 246.50 37.50Q301 10 375 10Q450 10 504.50 37.50Q559 65 590 113.50Q621 162 635 221Q649 280 649 352L649 731L309 731L309 752L649 752L649 1081Q649 1153 635 1212Q621 1271 590 1319.50Q559 1368 504.50 1395.50Q450 1423 375 1423Q301 1423 246.50 1395.50Q192 1368 161.50 1319.50Q131 1271 116.50 1212Q102 1153 102 1081L102 1006L82 1006L82 1081Q82 1156 98 1219.50Q114 1283 147.50 1334.50Q181 1386 239 1415Q297 1444 375 1444Q454 1444 512.50 1415Q571 1386 604.50 1334.50Q638 1283 654 1219.50Q670 1156 670 1081L670 352Q670 277 654 213.50Q638 150 604.50 99Q571 48 512.50 19Q454-10 375-10Q297-10 239 19Q181 48 147.50 99Q114 150 98 213.50Q82 277 82 352Z"  horiz-adv-x="751" vert-adv-y="2048"  />

      
      <glyph glyph-name="uni042E" unicode="&#x042E;" d="M82 0L82 1434L102 1434L102 727L395 727L395 1081Q395 1158 411.50 1221.50Q428 1285 462 1336Q496 1387 555.50 1415.50Q615 1444 694 1444Q774 1444 833 1415.50Q892 1387 927 1336Q962 1285 978.50 1221.50Q995 1158 995 1081L995 352Q995 275 978.50 211.50Q962 148 927 97.50Q892 47 833 18.50Q774-10 694-10Q614-10 555 18.50Q496 47 462 97.50Q428 148 411.50 211.50Q395 275 395 352L395 707L102 707L102 0L82 0M416 352Q416 280 431 220.50Q446 161 477 112.50Q508 64 563.50 37Q619 10 694 10Q769 10 825 37Q881 64 913 112.50Q945 161 960 220.50Q975 280 975 352L975 1081Q975 1154 960 1213.50Q945 1273 913 1321Q881 1369 825 1396Q769 1423 694 1423Q619 1423 563.50 1396Q508 1369 476.50 1321Q445 1273 430.50 1213.50Q416 1154 416 1081L416 352Z"  horiz-adv-x="1077" vert-adv-y="2048"  />

      
      <glyph glyph-name="uni042F" unicode="&#x042F;" d="M82 0Q123 50 123 170L123 395Q123 647 362 680Q238 699 180.50 773Q123 847 123 983L123 1112Q123 1434 414 1434L690 1434L690 0L670 0L670 672L481 672Q402 672 343.50 659.50Q285 647 238 617Q191 587 167 531.50Q143 476 143 395L143 170Q143 56 106 0L82 0M143 983Q143 896 165 837.50Q187 779 233 748Q279 717 337.50 704.50Q396 692 481 692L670 692L670 1413L414 1413Q271 1413 207 1335Q143 1257 143 1112L143 983Z"  horiz-adv-x="772" vert-adv-y="2048"  />

      
      <glyph glyph-name="uni0430" unicode="&#x0430;" d="M82 0L444 1436L473 1436L844 0L823 0L733 348L190 348L102 0L82 0M197 369L727 369L459 1409L197 369Z"  horiz-adv-x="925" vert-adv-y="2048"  />

      
      <glyph glyph-name="uni0431" unicode="&#x0431;" d="M82 0L82 1434L631 1434L631 1413L102 1413L102 801L348 801Q519 801 598.50 734.50Q678 668 678 502L678 334Q678 171 605.50 85.50Q533 0 373 0L82 0M102 20L373 20Q524 20 590.50 100Q657 180 657 334L657 502Q657 660 584.50 720Q512 780 348 780L102 780L102 20Z"  horiz-adv-x="759" vert-adv-y="2048"  />

      
      <glyph glyph-name="uni0432" unicode="&#x0432;" d="M82 0L82 1434L362 1434Q510 1434 570.50 1361.50Q631 1289 631 1141L631 1042Q631 913 585 845.50Q539 778 418 764Q659 737 659 457L659 328Q659 0 362 0L82 0M102 20L362 20Q508 20 573.50 99Q639 178 639 328L639 457Q639 616 562 685Q485 754 324 754L102 754L102 20M102 774L301 774Q386 774 440.50 785Q495 796 535 825Q575 854 592.50 907Q610 960 610 1042L610 1141Q610 1281 555.50 1347Q501 1413 362 1413L102 1413L102 774Z"  horiz-adv-x="741" vert-adv-y="2048"  />

      
      <glyph glyph-name="uni0433" unicode="&#x0433;" d="M82 0L82 1434L606 1434L606 1413L102 1413L102 0L82 0Z"  horiz-adv-x="688" vert-adv-y="2048"  />

      
      <glyph glyph-name="uni0434" unicode="&#x0434;" d="M82 20L186 20Q218 52 235.50 97.50Q253 143 257 178Q261 213 264 274L326 1434L791 1434L791 20L922 20L922-203L901-203L901 0L102 0L102-203L82-203L82 20M215 20L770 20L770 1413L346 1413L285 272Q282 212 278.50 178.50Q275 145 259.50 99Q244 53 215 20Z"  horiz-adv-x="1003" vert-adv-y="2048"  />

      
      <glyph glyph-name="uni0435" unicode="&#x0435;" d="M82 0L82 1434L618 1434L618 1413L102 1413L102 737L539 737L539 717L102 717L102 20L618 20L618 0L82 0Z"  horiz-adv-x="700" vert-adv-y="2048"  />

      
      <glyph glyph-name="uni0436" unicode="&#x0436;" d="M82 0L508 780L106 1434L129 1434L637 606L637 1434L657 1434L657 606L1165 1434L1190 1434L788 780L1214 0L1192 0L776 762L657 569L657 0L637 0L637 571L520 762L104 0L82 0Z"  horiz-adv-x="1296" vert-adv-y="2048"  />

      
      <glyph glyph-name="uni0437" unicode="&#x0437;" d="M82 352L82 451L102 451L102 352Q102 280 116.50 221Q131 162 161.50 113.50Q192 65 247 37.50Q302 10 377 10Q452 10 506.50 37.50Q561 65 592 113.50Q623 162 637 221Q651 280 651 352L651 463Q651 581 579 659Q507 737 389 737L293 737L293 758L389 758Q500 758 575.50 845Q651 932 651 1044L651 1081Q651 1153 637 1212.50Q623 1272 592 1320.50Q561 1369 506.50 1396Q452 1423 377 1423Q302 1423 247 1396Q192 1369 161.50 1320.50Q131 1272 116.50 1212.50Q102 1153 102 1081L102 1026L82 1026L82 1081Q82 1157 98 1220.50Q114 1284 147 1335Q180 1386 239 1415Q298 1444 377 1444Q456 1444 515 1415Q574 1386 607 1335Q640 1284 656 1220.50Q672 1157 672 1081L672 1044Q672 941 613.50 859Q555 777 455 748Q559 727 615.50 648.50Q672 570 672 463L672 352Q672 276 656 213Q640 150 607 98.50Q574 47 515 18.50Q456-10 377-10Q298-10 239 18.50Q180 47 147 98.50Q114 150 98 213Q82 276 82 352Z"  horiz-adv-x="753" vert-adv-y="2048"  />

      
      <glyph glyph-name="uni0438" unicode="&#x0438;" d="M82 0L82 1434L102 1434L102 27L317 588L643 1434L678 1434L678 0L657 0L657 1413L113 0L82 0Z"  horiz-adv-x="759" vert-adv-y="2048"  />

      
      <glyph glyph-name="uni0439" unicode="&#x0439;" d="M82 0L82 1434L102 1434L102 27L340 647L643 1434L678 1434L678 0L657 0L657 1413L406 758L113 0L82 0M207 1669L229 1669Q230 1609 278.50 1576.50Q327 1544 395 1544Q461 1544 509.50 1576.50Q558 1609 561 1669L584 1669Q581 1603 525.50 1564.50Q470 1526 395 1526Q319 1526 263.50 1564Q208 1602 207 1669Z"  horiz-adv-x="759" vert-adv-y="2048"  />

      
      <glyph glyph-name="uni043A" unicode="&#x043A;" d="M82 0L82 1434L102 1434L102 600L668 1434L692 1434L229 750L735 0L711 0L217 731L102 563L102 0L82 0Z"  horiz-adv-x="817" vert-adv-y="2048"  />

      
      <glyph glyph-name="uni043B" unicode="&#x043B;" d="M82-2L82 18Q137 18 175.50 37.50Q214 57 233.50 85.50Q253 114 263.50 159.50Q274 205 277 242.50Q280 280 281 332Q281 341 281 346L326 1434L803 1434L803 0L782 0L782 1413L346 1413L301 344Q294 204 283 156Q252 28 143 4Q119-1 92-2L82-2Z"  horiz-adv-x="884" vert-adv-y="2048"  />

      
      <glyph glyph-name="uni043C" unicode="&#x043C;" d="M82 0L82 1434L119 1434L496 27L877 1434L911 1434L911 0L891 0L891 1413L510 4L481 4L102 1413L102 0L82 0Z"  horiz-adv-x="993" vert-adv-y="2048"  />

      
      <glyph glyph-name="uni043D" unicode="&#x043D;" d="M82 0L82 1434L102 1434L102 727L655 727L655 1434L676 1434L676 0L655 0L655 707L102 707L102 0L82 0Z"  horiz-adv-x="757" vert-adv-y="2048"  />

      
      <glyph glyph-name="uni043E" unicode="&#x043E;" d="M82 352L82 1081Q82 1158 98.50 1221.50Q115 1285 149.50 1336Q184 1387 243 1415.50Q302 1444 381 1444Q461 1444 520 1415.50Q579 1387 614 1336Q649 1285 665.50 1221.50Q682 1158 682 1081L682 352Q682 275 665.50 211.50Q649 148 614 97.50Q579 47 520 18.50Q461-10 381-10Q302-10 243 18.50Q184 47 149.50 97.50Q115 148 98.50 211.50Q82 275 82 352M102 352Q102 279 117 219.50Q132 160 163.50 112Q195 64 250.50 37Q306 10 381 10Q456 10 512 37Q568 64 600 112Q632 160 647 219.50Q662 279 662 352L662 1081Q662 1153 647 1212.50Q632 1272 600 1320.50Q568 1369 512 1396Q456 1423 381 1423Q306 1423 250.50 1396Q195 1369 163.50 1320.50Q132 1272 117 1212.50Q102 1153 102 1081L102 352Z"  horiz-adv-x="763" vert-adv-y="2048"  />

      
      <glyph glyph-name="uni043F" unicode="&#x043F;" d="M82 0L82 1434L676 1434L676 0L655 0L655 1413L102 1413L102 0L82 0Z"  horiz-adv-x="757" vert-adv-y="2048"  />

      
      <glyph glyph-name="uni0440" unicode="&#x0440;" d="M82 0L82 1434L358 1434Q649 1434 649 1090L649 950Q649 780 569.50 699Q490 618 319 618L102 618L102 0L82 0M102 639L319 639Q482 639 555.50 713.50Q629 788 629 950L629 1090Q629 1242 567 1327.50Q505 1413 358 1413L102 1413L102 639Z"  horiz-adv-x="731" vert-adv-y="2048"  />

      
      <glyph glyph-name="uni0441" unicode="&#x0441;" d="M82 352L82 1081Q82 1156 98 1219.50Q114 1283 147.50 1334.50Q181 1386 239.50 1415Q298 1444 377 1444Q456 1444 514.50 1415Q573 1386 606.50 1334.50Q640 1283 656 1219.50Q672 1156 672 1081L672 973L651 973L651 1081Q651 1153 636.50 1212Q622 1271 591 1319.50Q560 1368 505.50 1395.50Q451 1423 377 1423Q303 1423 248 1395.50Q193 1368 162 1319.50Q131 1271 116.50 1211.50Q102 1152 102 1081L102 352Q102 281 116.50 221.50Q131 162 162 113.50Q193 65 248 37.50Q303 10 377 10Q451 10 505.50 37.50Q560 65 591 113.50Q622 162 636.50 221Q651 280 651 352L651 504L672 504L672 352Q672 277 656 213.50Q640 150 606.50 99Q573 48 514.50 19Q456-10 377-10Q298-10 239.50 19Q181 48 147.50 99Q114 150 98 213.50Q82 277 82 352Z"  horiz-adv-x="753" vert-adv-y="2048"  />

      
      <glyph glyph-name="uni0442" unicode="&#x0442;" d="M82 1413L82 1434L750 1434L750 1413L426 1413L426 0L406 0L406 1413L82 1413Z"  horiz-adv-x="831" vert-adv-y="2048"  />

      
      <glyph glyph-name="uni0443" unicode="&#x0443;" d="M82 1434L104 1434L299 920L455 510L788 1434L811 1434L369 211Q349 156 333 124Q317 92 290 60Q263 28 224 14Q185 0 131 0L131 20Q181 20 217 33Q253 46 277.50 76Q302 106 316.50 135.50Q331 165 350 217L444 481L82 1434Z"  horiz-adv-x="892" vert-adv-y="2048"  />

      
      <glyph glyph-name="uni0444" unicode="&#x0444;" d="M82 516L82 907Q82 1084 158.50 1178Q235 1272 408 1272L543 1272L543 1434L563 1434L563 1272L698 1272Q871 1272 948.50 1178Q1026 1084 1026 907L1026 516Q1026 339 948.50 245.50Q871 152 698 152L563 152L563 0L543 0L543 152L408 152Q235 152 158.50 245.50Q82 339 82 516M102 516Q102 348 173.50 260Q245 172 408 172L543 172L543 1251L408 1251Q245 1251 173.50 1163Q102 1075 102 907L102 516M563 172L698 172Q862 172 934 260Q1006 348 1006 516L1006 907Q1006 1075 934.50 1163Q863 1251 698 1251L563 1251L563 172Z"  horiz-adv-x="1107" vert-adv-y="2048"  />

      
      <glyph glyph-name="uni0445" unicode="&#x0445;" d="M82 0L446 745L106 1434L129 1434L457 768L784 1434L807 1434L469 745L831 0L809 0L457 723L106 0L82 0Z"  horiz-adv-x="913" vert-adv-y="2048"  />

      
      <glyph glyph-name="uni0446" unicode="&#x0446;" d="M123 0L123 1434L141 1434L141 20L694 20L694 1434L715 1434L715 20L846 20L846-193L825-193L825 0L123 0Z"  horiz-adv-x="931" vert-adv-y="2048"  />

      
      <glyph glyph-name="uni0447" unicode="&#x0447;" d="M82 936L82 1434L102 1434L102 936Q102 867 117 808Q132 749 162.50 699.50Q193 650 247 622Q301 594 373 594Q583 594 659 801L659 1434L680 1434L680 0L659 0L659 752Q573 573 373 573Q297 573 239 603Q181 633 148 684.50Q115 736 98.50 799.50Q82 863 82 936Z"  horiz-adv-x="761" vert-adv-y="2048"  />

      
      <glyph glyph-name="uni0448" unicode="&#x0448;" d="M82 0L82 1434L102 1434L102 20L547 20L547 1434L567 1434L567 20L1010 20L1010 1434L1030 1434L1030 0L82 0Z"  horiz-adv-x="1112" vert-adv-y="2048"  />

      
      <glyph glyph-name="uni0449" unicode="&#x0449;" d="M82 0L82 1434L102 1434L102 20L545 20L545 1434L565 1434L565 20L1010 20L1008 1434L1028 1434L1028 20L1161 20L1161-193L1141-193L1141 0L82 0Z"  horiz-adv-x="1243" vert-adv-y="2048"  />

      
      <glyph glyph-name="uni044A" unicode="&#x044A;" d="M82 1413L82 1434L315 1434L315 815L532 815Q703 815 782.50 734Q862 653 862 483L862 344Q862 0 571 0L295 0L295 1413L82 1413M315 20L571 20Q718 20 780 106Q842 192 842 344L842 483Q842 645 768 720Q694 795 532 795L315 795L315 20Z"  horiz-adv-x="944" vert-adv-y="2048"  />

      
      <glyph glyph-name="uni044B" unicode="&#x044B;" d="M82 0L82 1434L102 1434L102 815L317 815Q489 815 569 734Q649 653 649 483L649 344Q649 0 356 0L82 0M102 20L356 20Q629 20 629 344L629 483Q629 645 554.50 720Q480 795 317 795L102 795L102 20M788 0L788 1434L809 1434L809 0L788 0Z"  horiz-adv-x="890" vert-adv-y="2048"  />

      
      <glyph glyph-name="uni044C" unicode="&#x044C;" d="M82 0L82 1434L102 1434L102 815L317 815Q489 815 569 734Q649 653 649 483L649 344Q649 0 356 0L82 0M102 20L356 20Q629 20 629 344L629 483Q629 645 554.50 720Q480 795 317 795L102 795L102 20Z"  horiz-adv-x="731" vert-adv-y="2048"  />

      
      <glyph glyph-name="uni044D" unicode="&#x044D;" d="M82 352L82 477L102 477L102 352Q102 280 116.50 221Q131 162 161.50 113.50Q192 65 246.50 37.50Q301 10 375 10Q450 10 504.50 37.50Q559 65 590 113.50Q621 162 635 221Q649 280 649 352L649 731L309 731L309 752L649 752L649 1081Q649 1153 635 1212Q621 1271 590 1319.50Q559 1368 504.50 1395.50Q450 1423 375 1423Q301 1423 246.50 1395.50Q192 1368 161.50 1319.50Q131 1271 116.50 1212Q102 1153 102 1081L102 1006L82 1006L82 1081Q82 1156 98 1219.50Q114 1283 147.50 1334.50Q181 1386 239 1415Q297 1444 375 1444Q454 1444 512.50 1415Q571 1386 604.50 1334.50Q638 1283 654 1219.50Q670 1156 670 1081L670 352Q670 277 654 213.50Q638 150 604.50 99Q571 48 512.50 19Q454-10 375-10Q297-10 239 19Q181 48 147.50 99Q114 150 98 213.50Q82 277 82 352Z"  horiz-adv-x="751" vert-adv-y="2048"  />

      
      <glyph glyph-name="uni044E" unicode="&#x044E;" d="M82 0L82 1434L102 1434L102 727L395 727L395 1081Q395 1158 411.50 1221.50Q428 1285 462 1336Q496 1387 555.50 1415.50Q615 1444 694 1444Q774 1444 833 1415.50Q892 1387 927 1336Q962 1285 978.50 1221.50Q995 1158 995 1081L995 352Q995 275 978.50 211.50Q962 148 927 97.50Q892 47 833 18.50Q774-10 694-10Q614-10 555 18.50Q496 47 462 97.50Q428 148 411.50 211.50Q395 275 395 352L395 707L102 707L102 0L82 0M416 352Q416 280 431 220.50Q446 161 477 112.50Q508 64 563.50 37Q619 10 694 10Q769 10 825 37Q881 64 913 112.50Q945 161 960 220.50Q975 280 975 352L975 1081Q975 1154 960 1213.50Q945 1273 913 1321Q881 1369 825 1396Q769 1423 694 1423Q619 1423 563.50 1396Q508 1369 476.50 1321Q445 1273 430.50 1213.50Q416 1154 416 1081L416 352Z"  horiz-adv-x="1077" vert-adv-y="2048"  />

      
      <glyph glyph-name="uni044F" unicode="&#x044F;" d="M82 0Q123 50 123 170L123 395Q123 647 362 680Q238 699 180.50 773Q123 847 123 983L123 1112Q123 1434 414 1434L690 1434L690 0L670 0L670 672L481 672Q402 672 343.50 659.50Q285 647 238 617Q191 587 167 531.50Q143 476 143 395L143 170Q143 56 106 0L82 0M143 983Q143 896 165 837.50Q187 779 233 748Q279 717 337.50 704.50Q396 692 481 692L670 692L670 1413L414 1413Q271 1413 207 1335Q143 1257 143 1112L143 983Z"  horiz-adv-x="772" vert-adv-y="2048"  />

      
      <glyph glyph-name="uni0451" unicode="&#x0451;" d="M82 0L82 1434L618 1434L618 1413L102 1413L102 737L539 737L539 717L102 717L102 20L618 20L618 0L82 0M274 1536L274 1696L295 1696L295 1536L274 1536M410 1536L410 1696L430 1696L430 1536L410 1536Z"  horiz-adv-x="700" vert-adv-y="2048"  />

      
      <glyph glyph-name="uni2010" unicode="&#x2010;" d="M82 709L82 727L438 727L438 709L82 709Z"  horiz-adv-x="520" vert-adv-y="2048"  />

      
      <glyph glyph-name="uni2011" unicode="&#x2011;" d="M82 709L82 727L438 727L438 709L82 709Z"  horiz-adv-x="520" vert-adv-y="2048"  />

      
      <glyph glyph-name="uni2012" unicode="&#x2012;" d="M82 709L82 727L438 727L438 709L82 709Z"  horiz-adv-x="520" vert-adv-y="2048"  />

      
      <glyph glyph-name="uni2013" unicode="&#x2013;" d="M82 709L82 727L678 727L678 709L82 709Z"  horiz-adv-x="759" vert-adv-y="2048"  />

      
      <glyph glyph-name="uni2014" unicode="&#x2014;" d="M82 709L82 727L911 727L911 709L82 709Z"  horiz-adv-x="993" vert-adv-y="2048"  />

      
      <glyph glyph-name="uni2018" unicode="&#x2018;" d="M82 1147L82 1307L119 1434L133 1434L100 1307L102 1307L102 1147L82 1147Z"  horiz-adv-x="215" vert-adv-y="2048"  />

      
      <glyph glyph-name="uni2019" unicode="&#x2019;" d="M82 1147L115 1274L113 1274L113 1434L133 1434L133 1274L96 1147L82 1147Z"  horiz-adv-x="215" vert-adv-y="2048"  />

      
      <glyph glyph-name="uni201A" unicode="&#x201A;" d="M82-127L115 0L113 0L113 160L133 160L133 0L96-127L82-127Z"  horiz-adv-x="215" vert-adv-y="2048"  />

      
      <glyph glyph-name="uni201C" unicode="&#x201C;" d="M82 1147L82 1307L119 1434L133 1434L100 1307L102 1307L102 1147L82 1147M164 1147L164 1307L201 1434L215 1434L182 1307L184 1307L184 1147L164 1147Z"  horiz-adv-x="296" vert-adv-y="2048"  />

      
      <glyph glyph-name="uni201D" unicode="&#x201D;" d="M82 1147L115 1274L113 1274L113 1434L133 1434L133 1274L96 1147L82 1147M164 1147L197 1274L195 1274L195 1434L215 1434L215 1274L178 1147L164 1147Z"  horiz-adv-x="296" vert-adv-y="2048"  />

      
      <glyph glyph-name="uni201E" unicode="&#x201E;" d="M82-127L115 0L113 0L113 160L133 160L133 0L96-127L82-127M180-127L213 0L211 0L211 160L231 160L231 0L195-127L180-127Z"  horiz-adv-x="313" vert-adv-y="2048"  />

      
      <glyph glyph-name="uni2022" unicode="&#x2022;" d="M143.50 667.50Q143.50 667.50 133.25 677.75Q123 688 123 717Q123 746 143.50 766Q164 786 193 786Q222 786 242 766Q262 746 262 717Q262 688 242 667.50Q222 647 193 647Q164 647 143.50 667.50Z"  horiz-adv-x="385" vert-adv-y="2048"  />

      
      <glyph glyph-name="uni2026" unicode="&#x2026;" d="M82 0L82 160L102 160L102 0L82 0M166 0L166 160L186 160L186 0L166 0M254 0L254 160L274 160L274 0L254 0Z"  horiz-adv-x="356" vert-adv-y="2048"  />

      
      <glyph glyph-name="uni2039" unicode="&#x2039;" d="M82 717L219 1204L240 1204L102 717L240 231L219 231L82 717Z"  horiz-adv-x="321" vert-adv-y="2048"  />

      
      <glyph glyph-name="uni203A" unicode="&#x203A;" d="M82 233L219 719L82 1206L102 1206L240 719L102 233L82 233Z"  horiz-adv-x="321" vert-adv-y="2048"  />

      
      <glyph glyph-name="uni20AC" unicode="&#x20AC;" d="M61 600L61 621L158 621L158 821L61 821L61 842L158 842L158 1081Q158 1156 173 1218.50Q188 1281 220.50 1333Q253 1385 310.50 1414.50Q368 1444 446 1444Q523 1444 580 1414.50Q637 1385 669.50 1333Q702 1281 717.50 1218.50Q733 1156 733 1081L733 1018L713 1018L713 1081Q713 1152 699.50 1210.50Q686 1269 656 1318Q626 1367 572.50 1395Q519 1423 446 1423Q373 1423 319 1395Q265 1367 235.50 1318Q206 1269 192 1210Q178 1151 178 1081L178 842L616 842L616 821L178 821L178 621L616 621L616 600L178 600L178 352Q178 281 191.50 222.50Q205 164 234.50 115Q264 66 318 38Q372 10 446 10Q519 10 572.50 38Q626 66 656 115Q686 164 699.50 222.50Q713 281 713 352L713 428L733 428L733 352Q733 278 717.50 215.50Q702 153 669.50 101Q637 49 580 19.50Q523-10 446-10Q368-10 310.50 19.50Q253 49 221 101Q189 153 173.50 215.50Q158 278 158 352L158 600L61 600Z"  horiz-adv-x="815" vert-adv-y="2048"  />

      
      <glyph glyph-name="uni2122" unicode="&#x2122;" d="M35 1413L35 1434L459 1434L459 1413L258 1413L258 705L238 705L238 1413L35 1413M563 705L563 1434L592 1434L829 748L1069 1434L1098 1434L1098 705L1077 705L1077 1397L842 719L817 719L584 1397L584 705L563 705Z"  horiz-adv-x="1179" vert-adv-y="2048"  />

      
      <glyph glyph-name="uni25FC" unicode="&#x25FC;" d="M0 0L0 1434L1434 1434L1434 0L0 0Z"  horiz-adv-x="1433" vert-adv-y="2048"  />

      

  </font>
</defs>
</svg>
