<?xml version="1.0" standalone="no"?>
  <!DOCTYPE svg PUBLIC "-//W3C//DTD SVG 1.1//EN" "http://www.w3.org/Graphics/SVG/1.1/DTD/svg11.dtd" >
  <svg>
  <metadata>
  Created by font-carrier
  </metadata>
  <defs>
  <font id="Bender-Italic" horiz-adv-x="2052" vert-adv-y="2052" >
    <font-face
      
      font-family="Bender-Italic"
      
      font-weight="400"
      
      font-stretch="normal"
      
      units-per-em="2048"
      
      ascent="1886"
      
      descent="-409"
      
    />
      <missing-glyph />

      

      
      <glyph glyph-name="uni21" unicode="&#x21;" d="M147 29L162 115L221 164L307 164L346 115L332 29L274-20L188-20L147 29M211 256L416 1434L559 1434L350 256L211 256Z"  horiz-adv-x="512" vert-adv-y="2048"  />

      
      <glyph glyph-name="uni22" unicode="&#x22;" d="M223 915L293 1434L436 1434L322 915L223 915M520 915L590 1434L733 1434L618 915L520 915Z"  horiz-adv-x="563" vert-adv-y="2048"  />

      
      <glyph glyph-name="uni23" unicode="&#x23;" d="M47 393L72 526L399 526L621 907L348 907L371 1040L692 1040L920 1434L1057 1434L831 1040L1247 1040L1475 1434L1612 1434L1386 1040L1665 1040L1642 907L1313 907L1094 526L1366 526L1341 393L1018 393L795 0L657 0L881 393L463 393L240 0L102 0L326 393L47 393M541 526L954 526L1176 907L758 907L541 526Z"  horiz-adv-x="1503" vert-adv-y="2048"  />

      
      <glyph glyph-name="uni24" unicode="&#x24;" d="M76 70L141 195L309 133L770 133L924 264L958 459L940 512L268 868L233 983L276 1225L522 1434L723 1434L748 1577L881 1577L856 1434L1059 1434L1247 1366L1186 1243L1010 1300L553 1300L399 1169L373 1022L389 971L1057 616L1098 498L1047 209L803 0L602 0L575-143L442-143L469 0L272 0L76 70Z"  horiz-adv-x="1114" vert-adv-y="2048"  />

      
      <glyph glyph-name="uni25" unicode="&#x25;" d="M113 57L1444 1460L1532 1382L203-23L113 57M217 1008L262 1266L461 1434L719 1434L856 1266L811 1008L614 840L356 840L217 1008M360 1063L434 973L582 973L688 1063L715 1210L639 1300L492 1300L387 1210L360 1063M788 168L834 426L1032 594L1290 594L1427 426L1382 168L1186 0L928 0L788 168M932 223L1006 133L1153 133L1260 223L1284 371L1210 461L1063 461L956 371L932 223Z"  horiz-adv-x="1435" vert-adv-y="2048"  />

      
      <glyph glyph-name="uni26" unicode="&#x26;" d="M76 209L127 492L498 803L356 999L395 1225L643 1434L1061 1434L1235 1223L1200 1028L1067 1028L1092 1167L981 1300L674 1300L518 1167L498 1051L975 389L1194 573L1272 479L1047 289L1208 63L1094-25L936 195L709 0L252 0L76 209M219 266L330 133L678 133L866 293L567 705L250 436L219 266Z"  horiz-adv-x="1239" vert-adv-y="2048"  />

      
      <glyph glyph-name="uni27" unicode="&#x27;" d="M223 915L293 1434L436 1434L322 915L223 915Z"  horiz-adv-x="266" vert-adv-y="2048"  />

      
      <glyph glyph-name="uni28" unicode="&#x28;" d="M53-45L262 1143L449 1376L702 1462L727 1339L512 1266L389 1114L190-16L260-168L449-242L381-365L158-279L53-45Z"  horiz-adv-x="512" vert-adv-y="2048"  />

      
      <glyph glyph-name="uni29" unicode="&#x29;" d="M-61-242L150-168L272-16L471 1114L401 1266L215 1339L281 1462L506 1376L610 1143L401-45L215-279L-39-365L-61-242Z"  horiz-adv-x="512" vert-adv-y="2048"  />

      
      <glyph glyph-name="uni2a" unicode="&#x2a;" d="M213 981L424 1094L252 1206L342 1323L512 1212L551 1434L684 1434L645 1212L852 1323L901 1206L692 1094L862 981L772 864L602 975L563 754L430 754L469 975L262 864L213 981Z"  horiz-adv-x="772" vert-adv-y="2048"  />

      
      <glyph glyph-name="uni2b" unicode="&#x2b;" d="M133 639L156 772L528 772L594 1147L727 1147L662 772L1036 772L1014 639L639 639L571 266L438 266L506 639L133 639Z"  horiz-adv-x="962" vert-adv-y="2048"  />

      
      <glyph glyph-name="uni2c" unicode="&#x2c;" d="M-84-369L113 123L266 123L6-369L-84-369Z"  horiz-adv-x="307" vert-adv-y="2048"  />

      
      <glyph glyph-name="uni2d" unicode="&#x2d;" d="M133 639L156 772L995 772L973 639L133 639Z"  horiz-adv-x="921" vert-adv-y="2048"  />

      
      <glyph glyph-name="uni2e" unicode="&#x2e;" d="M45 29L59 115L119 164L205 164L244 115L229 29L172-20L86-20L45 29Z"  horiz-adv-x="307" vert-adv-y="2048"  />

      
      <glyph glyph-name="uni2f" unicode="&#x2f;" d="M-14 41L1163 1458L1260 1391L82-29L-14 41Z"  horiz-adv-x="1036" vert-adv-y="2048"  />

      
      <glyph glyph-name="uni30" unicode="&#x30;" d="M137 209L317 1225L565 1434L1137 1434L1309 1225L1128 209L883 0L311 0L137 209M281 256L1083 1274L1059 1300L596 1300L440 1169L281 256M362 160L387 133L850 133L1006 264L1167 1178L362 160Z"  horiz-adv-x="1236" vert-adv-y="2048"  />

      
      <glyph glyph-name="uni31" unicode="&#x31;" d="M68 0L90 133L328 133L524 1247L299 1057L223 1151L557 1436L690 1436L461 133L698 133L676 0L68 0Z"  horiz-adv-x="737" vert-adv-y="2048"  />

      
      <glyph glyph-name="uni32" unicode="&#x32;" d="M23 0L74 295L866 760L1042 911L1087 1169L981 1300L469 1300L281 1243L260 1368L483 1434L1059 1434L1231 1223L1165 852L940 662L195 223L178 133L1038 133L1016 0L23 0Z"  horiz-adv-x="1118" vert-adv-y="2048"  />

      
      <glyph glyph-name="uni33" unicode="&#x33;" d="M10 70L76 195L244 133L752 133L905 262L961 578L854 707L412 707L436 848L1028 1300L250 1300L274 1434L1245 1434L1221 1298L621 840L932 840L1104 631L1028 209L782 0L207 0L10 70Z"  horiz-adv-x="1095" vert-adv-y="2048"  />

      
      <glyph glyph-name="uni34" unicode="&#x34;" d="M61 350L92 530L1067 1438L1200 1438L1032 483L1182 483L1159 350L1010 350L948 0L815 0L877 350L61 350M225 483L899 483L1032 1233L225 483Z"  horiz-adv-x="1138" vert-adv-y="2048"  />

      
      <glyph glyph-name="uni35" unicode="&#x35;" d="M92 70L158 195L326 133L797 133L954 266L1012 590L903 723L227 723L352 1434L1294 1434L1270 1300L461 1300L383 856L983 856L1155 647L1077 209L831 0L289 0L92 70Z"  horiz-adv-x="1144" vert-adv-y="2048"  />

      
      <glyph glyph-name="uni36" unicode="&#x36;" d="M139 211L317 1223L563 1434L1141 1434L1329 1366L1262 1241L1090 1300L592 1300L440 1169L383 848L455 870L1036 870L1210 655L1130 209L885 0L313 0L139 211M281 266L391 133L852 133L1008 266L1067 600L958 737L432 737L360 715L281 266Z"  horiz-adv-x="1198" vert-adv-y="2048"  />

      
      <glyph glyph-name="uni37" unicode="&#x37;" d="M227 1300L252 1434L1225 1434L1180 1178L551 358L489 0L356 0L424 391L1053 1212L1067 1300L227 1300Z"  horiz-adv-x="1034" vert-adv-y="2048"  />

      
      <glyph glyph-name="uni38" unicode="&#x38;" d="M137 209L209 604L377 748L266 879L328 1225L573 1434L1133 1434L1296 1225L1235 879L1079 748L1198 604L1126 209L881 0L313 0L137 209M281 264L391 133L846 133L1004 266L1055 549L946 680L487 680L332 547L281 264M410 936L514 813L967 813L1112 936L1153 1165L1047 1300L602 1300L451 1171L410 936Z"  horiz-adv-x="1234" vert-adv-y="2048"  />

      
      <glyph glyph-name="uni39" unicode="&#x39;" d="M78 68L145 193L317 133L815 133L967 264L1024 586L952 563L371 563L199 778L276 1225L524 1434L1096 1434L1270 1223L1092 211L846 0L268 0L78 68M340 834L449 696L975 696L1047 719L1126 1167L1016 1300L555 1300L399 1167L340 834Z"  horiz-adv-x="1198" vert-adv-y="2048"  />

      
      <glyph glyph-name="uni3a" unicode="&#x3a;" d="M45 29L59 115L119 164L205 164L244 115L229 29L172-20L86-20L45 29M184 823L201 909L258 958L344 958L385 909L369 823L311 774L225 774L184 823Z"  horiz-adv-x="307" vert-adv-y="2048"  />

      
      <glyph glyph-name="uni3b" unicode="&#x3b;" d="M-84-369L113 123L266 123L6-369L-84-369M197 823L213 909L270 958L356 958L397 909L381 823L324 774L238 774L197 823Z"  horiz-adv-x="319" vert-adv-y="2048"  />

      
      <glyph glyph-name="uni3c" unicode="&#x3c;" d="M106 492L123 586L774 1071L844 971L266 539L692 106L586 6L106 492Z"  horiz-adv-x="714" vert-adv-y="2048"  />

      
      <glyph glyph-name="uni3d" unicode="&#x3d;" d="M100 455L123 588L963 588L940 455L100 455M166 825L188 958L1028 958L1006 825L166 825Z"  horiz-adv-x="921" vert-adv-y="2048"  />

      
      <glyph glyph-name="uni3e" unicode="&#x3e;" d="M18 106L596 539L170 971L276 1071L756 586L739 492L88 6L18 106Z"  horiz-adv-x="714" vert-adv-y="2048"  />

      
      <glyph glyph-name="uni3f" unicode="&#x3f;" d="M188 1194L473 1434L1055 1434L1227 1225L1159 848L655 479L616 256L483 256L535 551L1040 920L1083 1169L975 1300L504 1300L268 1100L188 1194M416 25L430 111L487 160L573 160L614 111L600 25L541-25L455-25L416 25Z"  horiz-adv-x="1114" vert-adv-y="2048"  />

      
      <glyph glyph-name="uni40" unicode="&#x40;" d="M125 16L330 1184L653 1434L1610 1434L1843 1184L1690 305L1489 137L1188 137L1174 240L1044 129L684 129L543 297L582 522L782 690L1225 690L1251 838L1174 928L899 928L711 866L690 991L909 1061L1253 1061L1393 893L1298 352L1311 270L1458 270L1567 360L1700 1126L1536 1300L678 1300L453 1126L268 74L432-100L1346-100L1321-233L358-233L125 16M686 352L762 262L1010 262L1174 397L1200 557L813 557L707 467L686 352Z"  horiz-adv-x="1800" vert-adv-y="2048"  />

      
      <glyph glyph-name="uni41" unicode="&#x41;" d="M23 20L729 1434L918 1434L1124 20L989-20L922 434L373 434L145-20L23 20M438 567L901 567L797 1284L438 567Z"  horiz-adv-x="1183" vert-adv-y="2048"  />

      
      <glyph glyph-name="uni42" unicode="&#x42;" d="M143 0L395 1434L1176 1434L1315 1264L1243 858L1126 758L1243 612L1174 211L926 0L143 0M299 133L897 133L1049 262L1102 559L995 690L397 690L299 133M420 823L1014 823L1120 913L1174 1210L1098 1300L504 1300L420 823Z"  horiz-adv-x="1259" vert-adv-y="2048"  />

      
      <glyph glyph-name="uni43" unicode="&#x43;" d="M139 211L317 1223L565 1434L1137 1434L1311 1223L1270 993L1137 993L1167 1167L1057 1300L596 1300L440 1167L281 266L391 133L874 133L1057 289L1137 195L909 0L313 0L139 211Z"  horiz-adv-x="1185" vert-adv-y="2048"  />

      
      <glyph glyph-name="uni44" unicode="&#x44;" d="M143 0L395 1434L1180 1434L1354 1221L1176 213L928 0L143 0M299 133L895 133L1053 268L1210 1165L1100 1300L504 1300L299 133Z"  horiz-adv-x="1282" vert-adv-y="2048"  />

      
      <glyph glyph-name="uni45" unicode="&#x45;" d="M143 0L395 1434L1282 1434L1257 1300L504 1300L422 825L1090 825L1065 692L397 692L299 133L1053 133L1030 0L143 0Z"  horiz-adv-x="1091" vert-adv-y="2048"  />

      
      <glyph glyph-name="uni46" unicode="&#x46;" d="M143 0L395 1434L1282 1434L1257 1300L504 1300L418 809L1085 809L1063 676L395 676L276 0L143 0Z"  horiz-adv-x="1071" vert-adv-y="2048"  />

      
      <glyph glyph-name="uni47" unicode="&#x47;" d="M137 209L317 1225L563 1434L1139 1434L1311 1225L1270 993L1137 993L1167 1169L1061 1300L592 1300L440 1169L281 264L387 133L856 133L1008 264L1069 606L725 606L748 739L1225 739L1130 209L887 0L311 0L137 209Z"  horiz-adv-x="1239" vert-adv-y="2048"  />

      
      <glyph glyph-name="uni48" unicode="&#x48;" d="M143 0L395 1434L528 1434L418 811L1145 811L1255 1434L1389 1434L1137 0L1004 0L1122 678L395 678L276 0L143 0Z"  horiz-adv-x="1320" vert-adv-y="2048"  />

      
      <glyph glyph-name="uni49" unicode="&#x49;" d="M41 0L63 133L301 133L506 1300L268 1300L293 1434L901 1434L877 1300L639 1300L434 133L672 133L649 0L41 0Z"  horiz-adv-x="731" vert-adv-y="2048"  />

      
      <glyph glyph-name="uni4a" unicode="&#x4a;" d="M20 240L133 334L301 133L672 133L827 266L1010 1300L666 1300L690 1434L1167 1434L952 211L705 0L219 0L20 240Z"  horiz-adv-x="1079" vert-adv-y="2048"  />

      
      <glyph glyph-name="uni4b" unicode="&#x4b;" d="M143 0L395 1434L528 1434L393 668L1280 1454L1360 1362L770 838L1141 51L1018-20L657 739L358 475L276 0L143 0Z"  horiz-adv-x="1153" vert-adv-y="2048"  />

      
      <glyph glyph-name="uni4c" unicode="&#x4c;" d="M143 0L395 1434L528 1434L299 133L1053 133L1030 0L143 0Z"  horiz-adv-x="1050" vert-adv-y="2048"  />

      
      <glyph glyph-name="uni4d" unicode="&#x4d;" d="M143 0L395 1434L543 1434L920 510L1624 1434L1772 1434L1520 0L1386 0L1595 1190L948 340L834 340L485 1190L276 0L143 0Z"  horiz-adv-x="1703" vert-adv-y="2048"  />

      
      <glyph glyph-name="uni4e" unicode="&#x4e;" d="M143 0L395 1434L545 1434L1044 231L1257 1434L1391 1434L1139 0L989 0L487 1202L276 0L143 0Z"  horiz-adv-x="1323" vert-adv-y="2048"  />

      
      <glyph glyph-name="uni4f" unicode="&#x4f;" d="M139 211L317 1223L586 1434L1178 1434L1372 1223L1194 211L926 0L334 0L139 211M281 266L406 133L899 133L1069 266L1229 1167L1104 1300L610 1300L440 1167L281 266Z"  horiz-adv-x="1300" vert-adv-y="2048"  />

      
      <glyph glyph-name="uni50" unicode="&#x50;" d="M143 0L395 1434L1178 1434L1352 1225L1270 756L1022 547L373 547L276 0L143 0M395 680L987 680L1147 813L1208 1167L1096 1300L504 1300L395 680Z"  horiz-adv-x="1239" vert-adv-y="2048"  />

      
      <glyph glyph-name="uni51" unicode="&#x51;" d="M139 211L317 1223L586 1434L1178 1434L1372 1223L1194 211L926 0L696 0L645-283L512-283L563 0L334 0L139 211M281 266L406 133L586 133L608 256L741 256L719 133L899 133L1069 266L1229 1167L1104 1300L610 1300L440 1167L281 266Z"  horiz-adv-x="1300" vert-adv-y="2048"  />

      
      <glyph glyph-name="uni52" unicode="&#x52;" d="M143 0L395 1434L1178 1434L1352 1225L1272 770L1024 561L735 561L1143 66L1032-31L547 561L375 561L276 0L143 0M397 694L989 694L1149 827L1208 1167L1096 1300L504 1300L397 694Z"  horiz-adv-x="1239" vert-adv-y="2048"  />

      
      <glyph glyph-name="uni53" unicode="&#x53;" d="M76 70L141 195L309 133L770 133L924 264L958 459L940 512L268 868L233 983L276 1225L522 1434L1059 1434L1247 1366L1186 1243L1010 1300L553 1300L399 1169L373 1022L389 971L1057 616L1098 498L1047 209L803 0L272 0L76 70Z"  horiz-adv-x="1114" vert-adv-y="2048"  />

      
      <glyph glyph-name="uni54" unicode="&#x54;" d="M207 1300L231 1434L1266 1434L1241 1300L791 1300L563 0L430 0L657 1300L207 1300Z"  horiz-adv-x="1034" vert-adv-y="2048"  />

      
      <glyph glyph-name="uni55" unicode="&#x55;" d="M158 209L375 1434L508 1434L301 266L414 133L870 133L1028 266L1235 1434L1368 1434L1151 209L905 0L334 0L158 209Z"  horiz-adv-x="1280" vert-adv-y="2048"  />

      
      <glyph glyph-name="uni56" unicode="&#x56;" d="M268 1411L406 1454L606 162L1266 1454L1386 1411L670 0L489 0L268 1411Z"  horiz-adv-x="1200" vert-adv-y="2048"  />

      
      <glyph glyph-name="uni57" unicode="&#x57;" d="M270 1417L408 1454L541 231L1079 1391L1227 1391L1356 231L1923 1454L2048 1417L1393 0L1241 0L1112 1155L578 0L426 0L270 1417Z"  horiz-adv-x="1859" vert-adv-y="2048"  />

      
      <glyph glyph-name="uni58" unicode="&#x58;" d="M33 53L582 717L262 1380L389 1454L684 840L1196 1454L1294 1380L741 717L1057 53L932-20L641 594L133-20L33 53Z"  horiz-adv-x="1114" vert-adv-y="2048"  />

      
      <glyph glyph-name="uni59" unicode="&#x59;" d="M244 1384L375 1454L676 700L1243 1454L1350 1384L713 539L618 0L485 0L580 541L244 1384Z"  horiz-adv-x="1146" vert-adv-y="2048"  />

      
      <glyph glyph-name="uni5a" unicode="&#x5a;" d="M20 0L41 127L1044 1300L258 1300L283 1434L1245 1434L1223 1303L219 133L1006 133L983 0L20 0Z"  horiz-adv-x="1054" vert-adv-y="2048"  />

      
      <glyph glyph-name="uni5b" unicode="&#x5b;" d="M0-344L313 1434L690 1434L666 1300L422 1300L156-211L399-211L377-344L0-344Z"  horiz-adv-x="458" vert-adv-y="2048"  />

      
      <glyph glyph-name="uni5c" unicode="&#x5c;" d="M223 1391L344 1458L1022 41L901-29L223 1391Z"  horiz-adv-x="1036" vert-adv-y="2048"  />

      
      <glyph glyph-name="uni5d" unicode="&#x5d;" d="M-80-344L-57-211L184-211L451 1300L207 1300L231 1434L608 1434L295-344L-80-344Z"  horiz-adv-x="458" vert-adv-y="2048"  />

      
      <glyph glyph-name="uni5e" unicode="&#x5e;" d="M127 844L666 1434L760 1434L1090 844L969 766L684 1272L219 766L127 844Z"  horiz-adv-x="962" vert-adv-y="2048"  />

      
      <glyph glyph-name="uni5f" unicode="&#x5f;" d="M-43-133L-20 0L893 0L868-133L-43-133Z"  horiz-adv-x="913" vert-adv-y="2048"  />

      
      <glyph glyph-name="uni60" unicode="&#x60;" d="M211 1434L373 1434L582 983L467 983L211 1434Z"  horiz-adv-x="409" vert-adv-y="2048"  />

      
      <glyph glyph-name="uni61" unicode="&#x61;" d="M111 168L244 924L442 1092L969 1092L1110 924L991 246L1008 14L874-16L864 115L731 0L252 0L111 168M254 223L330 133L700 133L862 270L967 868L891 958L475 958L367 868L254 223Z"  horiz-adv-x="1128" vert-adv-y="2048"  />

      
      <glyph glyph-name="uni62" unicode="&#x62;" d="M170 168L356 1227L330 1407L461 1448L492 1241L455 1026L530 1092L1028 1092L1167 924L1034 168L838 0L309 0L170 168M313 221L385 133L807 133L911 221L1024 870L952 958L565 958L420 836L313 221Z"  horiz-adv-x="1148" vert-adv-y="2048"  />

      
      <glyph glyph-name="uni63" unicode="&#x63;" d="M131 170L264 922L461 1092L989 1092L1128 922L1087 696L954 696L987 872L913 958L492 958L389 872L272 219L346 133L772 133L963 190L981 66L762 0L270 0L131 170Z"  horiz-adv-x="1052" vert-adv-y="2048"  />

      
      <glyph glyph-name="uni64" unicode="&#x64;" d="M131 166L264 926L459 1092L958 1092L1014 1026L1083 1434L1219 1434L1010 246L1026 14L893-16L883 115L750 0L268 0L131 166M274 221L346 133L719 133L881 270L979 836L879 958L492 958L387 870L274 221Z"  horiz-adv-x="1146" vert-adv-y="2048"  />

      
      <glyph glyph-name="uni65" unicode="&#x65;" d="M131 168L264 924L461 1092L989 1092L1128 924L1075 623L879 457L315 457L274 223L348 133L772 133L963 190L981 66L762 0L270 0L131 168M338 590L846 590L952 680L985 868L911 958L494 958L387 868L338 590Z"  horiz-adv-x="1073" vert-adv-y="2048"  />

      
      <glyph glyph-name="uni66" unicode="&#x66;" d="M78-315L170-135L338 823L164 823L188 956L362 956L416 1266L616 1434L889 1434L1085 1364L1018 1239L850 1300L643 1300L541 1212L496 956L842 956L817 823L471 823L301-150L197-356L78-315Z"  horiz-adv-x="763" vert-adv-y="2048"  />

      
      <glyph glyph-name="uni67" unicode="&#x67;" d="M53-279L115-154L285-211L707-211L811-125L844 66L768 0L270 0L131 168L264 924L461 1092L989 1092L1128 924L936-174L737-344L250-344L53-279M274 221L346 133L733 133L879 256L985 870L913 958L492 958L387 870L274 221Z"  horiz-adv-x="1110" vert-adv-y="2048"  />

      
      <glyph glyph-name="uni68" unicode="&#x68;" d="M141 0L356 1227L330 1407L461 1448L492 1241L455 1026L530 1092L1026 1092L1165 924L1004 0L870 0L1022 870L950 958L565 958L420 836L274 0L141 0Z"  horiz-adv-x="1146" vert-adv-y="2048"  />

      
      <glyph glyph-name="uni69" unicode="&#x69;" d="M141 0L297 887L268 1067L401 1108L432 901L274 0L141 0M340 1288L356 1374L414 1423L500 1423L541 1374L524 1288L467 1239L381 1239L340 1288Z"  horiz-adv-x="442" vert-adv-y="2048"  />

      
      <glyph glyph-name="uni6a" unicode="&#x6a;" d="M-205-240L45-158L125-66L293 887L264 1067L397 1108L428 901L252-94L119-260L-184-365L-205-240M336 1288L352 1374L410 1423L496 1423L537 1374L520 1288L463 1239L377 1239L336 1288Z"  horiz-adv-x="438" vert-adv-y="2048"  />

      
      <glyph glyph-name="uni6b" unicode="&#x6b;" d="M141 0L356 1227L330 1407L461 1448L492 1241L373 567L1085 1112L1157 1014L664 637L999 59L879-20L549 549L342 393L274 0L141 0Z"  horiz-adv-x="1009" vert-adv-y="2048"  />

      
      <glyph glyph-name="uni6c" unicode="&#x6c;" d="M141 0L356 1227L330 1407L461 1448L492 1241L274 0L141 0Z"  horiz-adv-x="417" vert-adv-y="2048"  />

      
      <glyph glyph-name="uni6d" unicode="&#x6d;" d="M139 0L287 846L270 1077L403 1108L414 977L547 1092L940 1092L1024 991L1141 1092L1581 1092L1720 922L1559 0L1425 0L1577 866L1501 958L1174 958L1067 868L915 0L782 0L934 866L858 958L578 958L416 821L272 0L139 0Z"  horiz-adv-x="1701" vert-adv-y="2048"  />

      
      <glyph glyph-name="uni6e" unicode="&#x6e;" d="M139 0L287 846L270 1077L403 1108L414 977L547 1092L1028 1092L1167 924L1006 0L872 0L1024 866L948 958L578 958L416 821L272 0L139 0Z"  horiz-adv-x="1148" vert-adv-y="2048"  />

      
      <glyph glyph-name="uni6f" unicode="&#x6f;" d="M131 170L264 922L461 1092L999 1092L1139 922L1006 170L809 0L270 0L131 170M274 225L348 133L776 133L883 225L995 866L922 958L494 958L387 866L274 225Z"  horiz-adv-x="1120" vert-adv-y="2048"  />

      
      <glyph glyph-name="uni70" unicode="&#x70;" d="M78-344L287 846L270 1077L403 1108L414 977L547 1092L1028 1092L1165 926L1032 166L838 0L338 0L283 66L211-344L78-344M317 256L418 133L805 133L909 221L1022 870L950 958L578 958L416 821L317 256Z"  horiz-adv-x="1146" vert-adv-y="2048"  />

      
      <glyph glyph-name="uni71" unicode="&#x71;" d="M131 168L264 924L461 1092L989 1092L1128 924L942-135L969-315L838-356L807-150L844 66L768 0L270 0L131 168M274 221L346 133L733 133L879 256L985 870L913 958L492 958L387 870L274 221Z"  horiz-adv-x="1128" vert-adv-y="2048"  />

      
      <glyph glyph-name="uni72" unicode="&#x72;" d="M139 0L287 846L270 1077L403 1108L414 977L547 1092L911 1092L1077 897L967 801L834 958L578 958L416 821L272 0L139 0Z"  horiz-adv-x="940" vert-adv-y="2048"  />

      
      <glyph glyph-name="uni73" unicode="&#x73;" d="M51 66L115 193L287 133L688 133L797 225L817 348L803 393L215 614L174 737L207 924L403 1092L879 1092L1073 1022L1010 897L842 958L438 958L330 866L313 770L328 723L915 502L956 381L920 168L723 0L248 0L51 66Z"  horiz-adv-x="976" vert-adv-y="2048"  />

      
      <glyph glyph-name="uni74" unicode="&#x74;" d="M180 911L203 1044L397 1044L457 1372L590 1372L530 1044L879 1044L856 911L508 911L387 223L461 133L653 133L848 190L866 66L647 0L383 0L244 168L375 911L180 911Z"  horiz-adv-x="876" vert-adv-y="2048"  />

      
      <glyph glyph-name="uni75" unicode="&#x75;" d="M131 168L293 1092L426 1092L274 225L350 133L721 133L883 270L1026 1092L1159 1092L1012 246L1028 14L895-16L885 115L752 0L270 0L131 168Z"  horiz-adv-x="1148" vert-adv-y="2048"  />

      
      <glyph glyph-name="uni76" unicode="&#x76;" d="M186 1063L317 1112L522 184L1055 1112L1169 1063L559 0L424 0L186 1063Z"  horiz-adv-x="1024" vert-adv-y="2048"  />

      
      <glyph glyph-name="uni77" unicode="&#x77;" d="M188 1073L324 1112L430 227L838 1047L981 1047L1098 227L1516 1112L1638 1073L1130 0L991 0L870 831L459 0L319 0L188 1073Z"  horiz-adv-x="1490" vert-adv-y="2048"  />

      
      <glyph glyph-name="uni78" unicode="&#x78;" d="M12 59L455 545L180 1032L303 1112L557 662L971 1112L1065 1032L618 545L893 59L770-20L516 428L106-20L12 59Z"  horiz-adv-x="925" vert-adv-y="2048"  />

      
      <glyph glyph-name="uni79" unicode="&#x79;" d="M94-344L117-211L328-211L393-156L473 0L436 0L186 1061L322 1112L547 147L1038 1112L1157 1071L498-223L356-344L94-344Z"  horiz-adv-x="1009" vert-adv-y="2048"  />

      
      <glyph glyph-name="uni7a" unicode="&#x7a;" d="M20 0L43 131L856 958L193 958L215 1092L1055 1092L1032 958L219 133L883 133L860 0L20 0Z"  horiz-adv-x="925" vert-adv-y="2048"  />

      
      <glyph glyph-name="uni7b" unicode="&#x7b;" d="M109 504L125 594L332 752L408 1176L588 1399L858 1462L866 1335L647 1284L535 1149L455 688L270 549L406 410L324-51L387-186L590-238L537-365L289-301L186-78L260 346L109 504Z"  horiz-adv-x="653" vert-adv-y="2048"  />

      
      <glyph glyph-name="uni7c" unicode="&#x7c;" d="M82-344L395 1434L530 1434L217-344L82-344Z"  horiz-adv-x="462" vert-adv-y="2048"  />

      
      <glyph glyph-name="uni7d" unicode="&#x7d;" d="M-61-238L156-186L268-51L350 410L535 549L399 688L479 1149L416 1284L213 1335L266 1462L516 1399L618 1176L543 752L696 594L680 504L471 346L397-78L217-301L-53-365L-61-238Z"  horiz-adv-x="653" vert-adv-y="2048"  />

      
      <glyph glyph-name="uni7e" unicode="&#x7e;" d="M156 772L268 866L436 666L602 666L850 877L1130 877L1327 637L1214 543L1049 743L883 743L633 532L352 532L156 772Z"  horiz-adv-x="1277" vert-adv-y="2048"  />

      
      <glyph glyph-name="unia2" unicode="&#xa2;" d="M131 170L264 922L461 1092L672 1092L698 1235L831 1235L805 1092L989 1092L1128 922L1087 696L954 696L987 872L913 958L492 958L389 872L272 219L346 133L772 133L963 190L981 66L762 0L612 0L586-143L453-143L479 0L270 0L131 170Z"  horiz-adv-x="1052" vert-adv-y="2048"  />

      
      <glyph glyph-name="unia5" unicode="&#xa5;" d="M207 307L229 440L561 440L580 539L248 539L270 672L526 672L244 1384L375 1454L676 700L1243 1454L1350 1384L811 672L1067 672L1044 539L713 539L694 440L1026 440L1004 307L672 307L618 0L485 0L539 307L207 307Z"  horiz-adv-x="1146" vert-adv-y="2048"  />

      
      <glyph glyph-name="unia9" unicode="&#xa9;" d="M145 252L309 1182L633 1434L1589 1434L1823 1182L1659 252L1337 0L381 0L145 252M289 313L459 133L1305 133L1536 313L1679 1120L1509 1300L664 1300L432 1120L289 313M580 467L668 967L864 1137L1241 1137L1380 967L1354 813L1221 813L1237 913L1165 1004L895 1004L791 913L721 520L795 430L1067 430L1255 487L1276 362L1055 297L717 297L580 467Z"  horiz-adv-x="1759" vert-adv-y="2048"  />

      
      <glyph glyph-name="uniab" unicode="&#xab;" d="M115 539L829 1071L899 971L322 539L748 106L641 6L115 539M567 539L1282 1071L1352 971L774 539L1200 106L1094 6L567 539Z"  horiz-adv-x="1222" vert-adv-y="2048"  />

      
      <glyph glyph-name="uniad" unicode="&#xad;" d="M133 639L156 772L995 772L973 639L133 639Z"  horiz-adv-x="921" vert-adv-y="2048"  />

      
      <glyph glyph-name="uniae" unicode="&#xae;" d="M145 252L309 1182L633 1434L1589 1434L1823 1182L1659 252L1337 0L381 0L145 252M289 313L459 133L1305 133L1536 313L1679 1120L1509 1300L664 1300L432 1120L289 313M578 297L725 1137L1272 1137L1413 969L1378 774L1180 606L1094 606L1300 354L1190 258L903 606L766 606L711 297L578 297M788 739L1153 739Q1172 755 1203 781Q1234 807 1253 823L1272 920L1200 1004L836 1004L788 739Z"  horiz-adv-x="1759" vert-adv-y="2048"  />

      
      <glyph glyph-name="unibb" unicode="&#xbb;" d="M18 106L596 539L170 971L276 1071L803 539L88 6L18 106M471 106L1049 539L623 971L729 1071L1255 539L541 6L471 106Z"  horiz-adv-x="1222" vert-adv-y="2048"  />

      
      <glyph glyph-name="uni0401" unicode="&#x0401;" d="M143 0L395 1434L1282 1434L1257 1300L504 1300L422 825L1090 825L1065 692L397 692L299 133L1053 133L1030 0L143 0M612 1663L627 1749L684 1798L770 1798L811 1749L797 1663L737 1614L651 1614L612 1663M981 1663L995 1749L1053 1798L1139 1798L1180 1749L1165 1663L1106 1614L1020 1614L981 1663Z"  horiz-adv-x="1091" vert-adv-y="2048"  />

      
      <glyph glyph-name="uni0402" unicode="&#x0402;" d="M166 1300L190 1434L918 1434L893 1300L596 1300L520 868L582 885L1210 885L1348 715L1247 147L1114-18L809-123L788 2L1040 84L1120 176L1206 666L1133 752L569 752L496 729L369 0L236 0L463 1300L166 1300Z"  horiz-adv-x="1345" vert-adv-y="2048"  />

      
      <glyph glyph-name="uni0403" unicode="&#x0403;" d="M143 0L395 1434L1280 1434L1255 1300L504 1300L276 0L143 0M750 1526L1016 1874L1169 1874L883 1526L750 1526Z"  horiz-adv-x="1048" vert-adv-y="2048"  />

      
      <glyph glyph-name="uni0404" unicode="&#x0404;" d="M139 211L317 1223L565 1434L1137 1434L1311 1223L1270 993L1137 993L1167 1167L1057 1300L596 1300L440 1167L373 786L958 786L936 653L350 653L281 266L391 133L874 133L1057 289L1137 195L909 0L313 0L139 211Z"  horiz-adv-x="1185" vert-adv-y="2048"  />

      
      <glyph glyph-name="uni0405" unicode="&#x0405;" d="M76 70L141 195L309 133L770 133L924 264L958 459L940 512L268 868L233 983L276 1225L522 1434L1059 1434L1247 1366L1186 1243L1010 1300L553 1300L399 1169L373 1022L389 971L1057 616L1098 498L1047 209L803 0L272 0L76 70Z"  horiz-adv-x="1114" vert-adv-y="2048"  />

      
      <glyph glyph-name="uni0406" unicode="&#x0406;" d="M41 0L63 133L301 133L506 1300L268 1300L293 1434L901 1434L877 1300L639 1300L434 133L672 133L649 0L41 0Z"  horiz-adv-x="731" vert-adv-y="2048"  />

      
      <glyph glyph-name="uni0407" unicode="&#x0407;" d="M41 0L63 133L301 133L506 1300L268 1300L293 1434L901 1434L877 1300L639 1300L434 133L672 133L649 0L41 0M356 1636L373 1722L430 1772L516 1772L557 1722L541 1636L483 1587L397 1587L356 1636M725 1636L741 1722L799 1772L885 1772L926 1722L909 1636L852 1587L766 1587L725 1636Z"  horiz-adv-x="731" vert-adv-y="2048"  />

      
      <glyph glyph-name="uni0408" unicode="&#x0408;" d="M20 240L133 334L301 133L672 133L827 266L1010 1300L666 1300L690 1434L1167 1434L952 211L705 0L219 0L20 240Z"  horiz-adv-x="1079" vert-adv-y="2048"  />

      
      <glyph glyph-name="uni0409" unicode="&#x0409;" d="M-2 106L166 158L258 242L600 1434L1354 1434L1251 854L1839 854L2011 641L1935 213L1690 0L969 0L1196 1300L694 1300L375 180L221 41L16-20L-2 106M1124 133L1655 133L1812 270L1868 584L1759 721L1229 721L1124 133Z"  horiz-adv-x="1980" vert-adv-y="2048"  />

      
      <glyph glyph-name="uni040A" unicode="&#x040A;" d="M143 0L395 1434L528 1434L424 838L1090 838L1194 1434L1327 1434L1223 838L1810 838L1980 625L1909 213L1663 0L942 0L1065 705L399 705L276 0L143 0M1098 133L1628 133L1786 270L1837 567L1729 705L1198 705L1098 133Z"  horiz-adv-x="1953" vert-adv-y="2048"  />

      
      <glyph glyph-name="uni040B" unicode="&#x040B;" d="M166 1300L190 1434L918 1434L893 1300L596 1300L520 868L582 885L1210 885L1348 715L1223 0L1090 0L1206 666L1133 752L569 752L496 729L369 0L236 0L463 1300L166 1300Z"  horiz-adv-x="1345" vert-adv-y="2048"  />

      
      <glyph glyph-name="uni040C" unicode="&#x040C;" d="M143 0L395 1434L530 1434L416 782L647 782L1112 1384L1341 1454L1360 1325L1184 1272L756 717L989 162L1145 109L1081-20L877 49L623 649L391 649L279 0L143 0M717 1454L983 1802L1137 1802L850 1454L717 1454Z"  horiz-adv-x="1167" vert-adv-y="2048"  />

      
      <glyph glyph-name="uni040E" unicode="&#x040E;" d="M184 0L207 133L438 133L522 203L584 305L225 1399L352 1458L678 465L1260 1458L1370 1409L614 123L467 0L184 0M489 1663L520 1845L653 1845L633 1720L672 1673L1034 1673L1090 1720L1110 1845L1243 1845L1212 1663L1065 1540L592 1540L489 1663Z"  horiz-adv-x="1142" vert-adv-y="2048"  />

      
      <glyph glyph-name="uni040F" unicode="&#x040F;" d="M143 0L395 1430L528 1430L299 133L1024 133L1253 1430L1386 1430L1135 0L707 0L645-344L512-344L573 0L143 0Z"  horiz-adv-x="1318" vert-adv-y="2048"  />

      
      <glyph glyph-name="uni0410" unicode="&#x0410;" d="M23 20L729 1434L918 1434L1124 20L989-20L922 434L373 434L145-20L23 20M438 567L901 567L797 1284L438 567Z"  horiz-adv-x="1183" vert-adv-y="2048"  />

      
      <glyph glyph-name="uni0411" unicode="&#x0411;" d="M143 0L395 1434L1303 1434L1278 1300L504 1300L426 854L1077 854L1249 641L1174 213L928 0L143 0M299 133L893 133L1051 270L1106 584L997 721L403 721L299 133Z"  horiz-adv-x="1239" vert-adv-y="2048"  />

      
      <glyph glyph-name="uni0412" unicode="&#x0412;" d="M143 0L395 1434L1176 1434L1315 1264L1243 858L1126 758L1243 612L1174 211L926 0L143 0M299 133L897 133L1049 262L1102 559L995 690L397 690L299 133M420 823L1014 823L1120 913L1174 1210L1098 1300L504 1300L420 823Z"  horiz-adv-x="1259" vert-adv-y="2048"  />

      
      <glyph glyph-name="uni0413" unicode="&#x0413;" d="M143 0L395 1434L1280 1434L1255 1300L504 1300L276 0L143 0Z"  horiz-adv-x="1048" vert-adv-y="2048"  />

      
      <glyph glyph-name="uni0414" unicode="&#x0414;" d="M-80-344L2 133L131 133L254 301L580 1434L1384 1434L1155 133L1305 133L1221-344L1087-344L1149 0L113 0L51-344L-80-344M283 133L1022 133L1227 1300L674 1300Q647 1206 543 845Q439 484 377 260L283 133Z"  horiz-adv-x="1343" vert-adv-y="2048"  />

      
      <glyph glyph-name="uni0415" unicode="&#x0415;" d="M143 0L395 1434L1282 1434L1257 1300L504 1300L422 825L1090 825L1065 692L397 692L299 133L1053 133L1030 0L143 0Z"  horiz-adv-x="1091" vert-adv-y="2048"  />

      
      <glyph glyph-name="uni0416" unicode="&#x0416;" d="M18 109L190 162L621 717L389 1272L233 1325L297 1454L502 1384L754 782L899 782L1014 1434L1147 1434L1032 782L1178 782L1642 1384L1872 1454L1890 1325L1714 1272L1286 717L1520 162L1675 109L1612-20L1407 49L1153 649L1008 649L895 0L762 0L874 649L729 649L266 49L37-20L18 109Z"  horiz-adv-x="1697" vert-adv-y="2048"  />

      
      <glyph glyph-name="uni0417" unicode="&#x0417;" d="M-10 68L57 193L229 133L727 133L883 266L930 530L821 668L410 668L432 801L846 801L985 922L1030 1178L930 1300L451 1300L262 1239L240 1364L461 1434L1012 1434L1174 1237L1108 862L956 735L1073 588L1006 209L762 0L180 0L-10 68Z"  horiz-adv-x="1093" vert-adv-y="2048"  />

      
      <glyph glyph-name="uni0418" unicode="&#x0418;" d="M143 0L395 1434L528 1434L315 231L1239 1434L1391 1434L1139 0L1006 0L1217 1202L295 0L143 0Z"  horiz-adv-x="1323" vert-adv-y="2048"  />

      
      <glyph glyph-name="uni0419" unicode="&#x0419;" d="M143 0L395 1434L528 1434L315 231L1239 1434L1391 1434L1139 0L1006 0L1217 1202L295 0L143 0M578 1704L610 1886L743 1886L721 1761L760 1714L1122 1714L1178 1761L1200 1886L1333 1886L1300 1704L1155 1581L682 1581L578 1704Z"  horiz-adv-x="1323" vert-adv-y="2048"  />

      
      <glyph glyph-name="uni041A" unicode="&#x041A;" d="M143 0L395 1434L530 1434L416 782L647 782L1112 1384L1341 1454L1360 1325L1184 1272L756 717L989 162L1145 109L1081-20L877 49L623 649L391 649L279 0L143 0Z"  horiz-adv-x="1167" vert-adv-y="2048"  />

      
      <glyph glyph-name="uni041B" unicode="&#x041B;" d="M-2 106L166 158L258 242L600 1434L1415 1434L1163 0L1030 0L1257 1300L694 1300L375 180L221 41L16-20L-2 106Z"  horiz-adv-x="1347" vert-adv-y="2048"  />

      
      <glyph glyph-name="uni041C" unicode="&#x041C;" d="M143 0L395 1434L543 1434L920 510L1624 1434L1772 1434L1520 0L1386 0L1595 1190L948 340L834 340L485 1190L276 0L143 0Z"  horiz-adv-x="1703" vert-adv-y="2048"  />

      
      <glyph glyph-name="uni041D" unicode="&#x041D;" d="M143 0L395 1434L528 1434L418 811L1145 811L1255 1434L1389 1434L1137 0L1004 0L1122 678L395 678L276 0L143 0Z"  horiz-adv-x="1320" vert-adv-y="2048"  />

      
      <glyph glyph-name="uni041E" unicode="&#x041E;" d="M139 211L317 1223L586 1434L1178 1434L1372 1223L1194 211L926 0L334 0L139 211M281 266L406 133L899 133L1069 266L1229 1167L1104 1300L610 1300L440 1167L281 266Z"  horiz-adv-x="1300" vert-adv-y="2048"  />

      
      <glyph glyph-name="uni041F" unicode="&#x041F;" d="M143 0L395 1434L1389 1434L1137 0L1004 0L1231 1300L504 1300L276 0L143 0Z"  horiz-adv-x="1320" vert-adv-y="2048"  />

      
      <glyph glyph-name="uni0420" unicode="&#x0420;" d="M143 0L395 1434L1178 1434L1352 1225L1270 756L1022 547L373 547L276 0L143 0M395 680L987 680L1147 813L1208 1167L1096 1300L504 1300L395 680Z"  horiz-adv-x="1239" vert-adv-y="2048"  />

      
      <glyph glyph-name="uni0421" unicode="&#x0421;" d="M139 211L317 1223L565 1434L1137 1434L1311 1223L1270 993L1137 993L1167 1167L1057 1300L596 1300L440 1167L281 266L391 133L874 133L1057 289L1137 195L909 0L313 0L139 211Z"  horiz-adv-x="1185" vert-adv-y="2048"  />

      
      <glyph glyph-name="uni0422" unicode="&#x0422;" d="M207 1300L231 1434L1266 1434L1241 1300L791 1300L563 0L430 0L657 1300L207 1300Z"  horiz-adv-x="1034" vert-adv-y="2048"  />

      
      <glyph glyph-name="uni0423" unicode="&#x0423;" d="M184 0L207 133L438 133L522 203L584 305L225 1399L352 1458L678 465L1260 1458L1370 1409L614 123L467 0L184 0Z"  horiz-adv-x="1142" vert-adv-y="2048"  />

      
      <glyph glyph-name="uni0424" unicode="&#x0424;" d="M152 395L279 1120L526 1331L971 1331L1012 1567L1145 1567L1104 1331L1548 1331L1722 1120L1595 395L1346 184L901 184L860-51L727-51L768 184L324 184L152 395M293 451L403 317L793 317L948 1198L559 1198L401 1065L293 451M926 317L1315 317L1470 451L1579 1065L1470 1198L1081 1198L926 317Z"  horiz-adv-x="1648" vert-adv-y="2048"  />

      
      <glyph glyph-name="uni0425" unicode="&#x0425;" d="M33 53L582 717L262 1380L389 1454L684 840L1196 1454L1294 1380L741 717L1057 53L932-20L641 594L133-20L33 53Z"  horiz-adv-x="1114" vert-adv-y="2048"  />

      
      <glyph glyph-name="uni0426" unicode="&#x0426;" d="M143 0L395 1430L528 1430L299 133L1024 133L1253 1430L1386 1430L1157 133L1329 133L1245-344L1112-344L1174 0L143 0Z"  horiz-adv-x="1368" vert-adv-y="2048"  />

      
      <glyph glyph-name="uni0427" unicode="&#x0427;" d="M227 719L354 1434L487 1434L371 768L442 682L1006 682L1079 705L1208 1434L1341 1434L1090 0L956 0L1055 565L995 549L367 549L227 719Z"  horiz-adv-x="1273" vert-adv-y="2048"  />

      
      <glyph glyph-name="uni0428" unicode="&#x0428;" d="M143 0L395 1434L526 1434L297 133L936 133L1165 1434L1298 1434L1069 133L1706 133L1935 1434L2068 1434L1817 0L143 0Z"  horiz-adv-x="2000" vert-adv-y="2048"  />

      
      <glyph glyph-name="uni0429" unicode="&#x0429;" d="M143 0L395 1434L528 1434L299 133L938 133L1167 1434L1300 1434L1071 133L1708 133L1937 1434L2071 1434L1841 133L2013 133L1929-344L1796-344L1858 0L143 0Z"  horiz-adv-x="2052" vert-adv-y="2048"  />

      
      <glyph glyph-name="uni042A" unicode="&#x042A;" d="M207 1300L231 1434L688 1434L586 854L1235 854L1407 641L1331 213L1085 0L303 0L530 1300L207 1300M459 133L1051 133L1208 270L1264 584L1155 721L563 721L459 133Z"  horiz-adv-x="1376" vert-adv-y="2048"  />

      
      <glyph glyph-name="uni042B" unicode="&#x042B;" d="M143 0L395 1434L528 1434L426 854L1075 854L1247 641L1171 213L926 0L143 0M299 133L891 133L1049 270L1104 584L995 721L403 721L299 133M1366 0L1618 1434L1751 1434L1499 0L1366 0Z"  horiz-adv-x="1683" vert-adv-y="2048"  />

      
      <glyph glyph-name="uni042C" unicode="&#x042C;" d="M143 0L395 1434L528 1434L426 854L1075 854L1247 641L1171 213L926 0L143 0M299 133L891 133L1049 270L1104 584L995 721L403 721L299 133Z"  horiz-adv-x="1216" vert-adv-y="2048"  />

      
      <glyph glyph-name="uni042D" unicode="&#x042D;" d="M74 195L186 289L315 133L799 133L954 266L1024 653L438 653L461 786L1047 786L1114 1167L1004 1300L543 1300L387 1167L356 993L223 993L264 1223L512 1434L1083 1434L1257 1223L1079 211L831 0L236 0L74 195Z"  horiz-adv-x="1185" vert-adv-y="2048"  />

      
      <glyph glyph-name="uni042E" unicode="&#x042E;" d="M143 0L395 1434L528 1434L418 811L778 811L852 1223L1120 1434L1649 1434L1843 1223L1665 211L1397 0L868 0L674 211L756 678L395 678L276 0L143 0M815 266L940 133L1370 133L1540 266L1700 1167L1575 1300L1145 1300L975 1167L815 266Z"  horiz-adv-x="1771" vert-adv-y="2048"  />

      
      <glyph glyph-name="uni042F" unicode="&#x042F;" d="M80 106L252 162L557 545L375 545L201 754L285 1225L532 1434L1315 1434L1063 0L930 0L1024 545L715 545L322 49L100-20L80 106M344 811L457 678L1049 678L1157 1300L565 1300L408 1167L344 811Z"  horiz-adv-x="1247" vert-adv-y="2048"  />

      
      <glyph glyph-name="uni0430" unicode="&#x0430;" d="M111 168L244 924L442 1092L969 1092L1110 924L991 246L1008 14L874-16L864 115L731 0L252 0L111 168M254 223L330 133L700 133L862 270L967 868L891 958L475 958L367 868L254 223Z"  horiz-adv-x="1128" vert-adv-y="2048"  />

      
      <glyph glyph-name="uni0431" unicode="&#x0431;" d="M131 168L307 1163L586 1401L1024 1475L1214 1636L1292 1540L1071 1352L633 1278L430 1106L401 942L477 1008L985 1008L1124 840L1006 168L809 0L270 0L131 168M274 223L348 133L776 133L883 223L981 784L907 874L512 874L367 752L274 223Z"  horiz-adv-x="1144" vert-adv-y="2048"  />

      
      <glyph glyph-name="uni0432" unicode="&#x0432;" d="M125 133L270 958L426 1092L989 1092L1100 958L1042 633L965 567L1049 467L995 166L801 0L236 0L125 133M268 188L313 133L766 133L872 223L905 410L827 502L324 502L268 188M346 635L854 635L920 690L956 903L911 958L459 958L393 903L346 635Z"  horiz-adv-x="1089" vert-adv-y="2048"  />

      
      <glyph glyph-name="uni0433" unicode="&#x0433;" d="M70 168L104 367L188 487L856 709L887 756L905 866L829 958L434 958L246 897L223 1022L442 1092L909 1092L1049 924L1014 723L928 600L262 379L231 334L213 225L289 133L682 133L874 193L893 66L676 0L209 0L70 168Z"  horiz-adv-x="968" vert-adv-y="2048"  />

      
      <glyph glyph-name="uni0434" unicode="&#x0434;" d="M131 168L250 840L446 1008L954 1008L1010 942L1042 1128L899 1300L551 1300L362 1239L342 1364L561 1434L981 1434L1186 1186L1006 168L809 0L270 0L131 168M274 223L348 133L776 133L883 223L975 752L874 874L479 874L373 784L274 223Z"  horiz-adv-x="1120" vert-adv-y="2048"  />

      
      <glyph glyph-name="uni0435" unicode="&#x0435;" d="M131 168L264 924L461 1092L989 1092L1128 924L1075 623L879 457L315 457L274 223L348 133L772 133L963 190L981 66L762 0L270 0L131 168M338 590L846 590L952 680L985 868L911 958L494 958L387 868L338 590Z"  horiz-adv-x="1073" vert-adv-y="2048"  />

      
      <glyph glyph-name="uni0436" unicode="&#x0436;" d="M16 96L156 164L502 545L289 928L174 995L256 1112L403 1026L633 610L745 610L829 1092L963 1092L879 610L991 610L1368 1026L1544 1112L1585 995L1446 928L1098 545L1313 164L1427 96L1346-20L1198 66L971 477L856 477L772 0L639 0L723 477L608 477L233 66L57-20L16 96Z"  horiz-adv-x="1452" vert-adv-y="2048"  />

      
      <glyph glyph-name="uni0437" unicode="&#x0437;" d="M10 66L74 190L248 133L659 133L766 223L797 399L721 492L313 492L336 625L750 625L840 698L870 877L803 958L403 958Q383 952 311.50 929.50Q240 907 213 899L193 1022L412 1092L881 1092L1014 932L963 649L856 557L940 457L889 168L692 0L209 0L10 66Z"  horiz-adv-x="983" vert-adv-y="2048"  />

      
      <glyph glyph-name="uni0438" unicode="&#x0438;" d="M131 168L293 1092L426 1092L274 225L350 133L721 133L883 270L1026 1092L1159 1092L1012 246L1028 14L895-16L885 115L752 0L270 0L131 168Z"  horiz-adv-x="1148" vert-adv-y="2048"  />

      
      <glyph glyph-name="uni0439" unicode="&#x0439;" d="M131 168L293 1092L426 1092L274 225L350 133L721 133L883 270L1026 1092L1159 1092L1012 246L1028 14L895-16L885 115L752 0L270 0L131 168M426 1372L457 1554L590 1554L569 1430L608 1382L950 1382L1006 1430L1026 1554L1159 1554L1128 1372L981 1249L528 1249L426 1372Z"  horiz-adv-x="1148" vert-adv-y="2048"  />

      
      <glyph glyph-name="uni043A" unicode="&#x043A;" d="M102 0L293 1092L426 1092L342 610L535 610L911 1026L1087 1112L1128 995L989 928L641 545L856 164L971 96L889-20L741 66L514 477L319 477L236 0L102 0Z"  horiz-adv-x="995" vert-adv-y="2048"  />

      
      <glyph glyph-name="uni043B" unicode="&#x043B;" d="M-2 109L137 150L244 242L483 1092L1180 1092L989 0L856 0L1024 958L582 958L360 172L201 35L14-20L-2 109Z"  horiz-adv-x="1132" vert-adv-y="2048"  />

      
      <glyph glyph-name="uni043C" unicode="&#x043C;" d="M102 0L293 1092L440 1092L733 412L1264 1092L1411 1092L1221 0L1087 0L1239 860L766 258L647 258L387 860L236 0L102 0Z"  horiz-adv-x="1363" vert-adv-y="2048"  />

      
      <glyph glyph-name="uni043D" unicode="&#x043D;" d="M141 0L297 887L268 1067L401 1108L432 901L383 623L981 623L1063 1092L1196 1092L1006 0L872 0L958 489L360 489L274 0L141 0Z"  horiz-adv-x="1148" vert-adv-y="2048"  />

      
      <glyph glyph-name="uni043E" unicode="&#x043E;" d="M131 170L264 922L461 1092L999 1092L1139 922L1006 170L809 0L270 0L131 170M274 225L348 133L776 133L883 225L995 866L922 958L494 958L387 866L274 225Z"  horiz-adv-x="1120" vert-adv-y="2048"  />

      
      <glyph glyph-name="uni043F" unicode="&#x043F;" d="M139 0L287 846L270 1077L403 1108L414 977L547 1092L1028 1092L1167 924L1006 0L872 0L1024 866L948 958L578 958L416 821L272 0L139 0Z"  horiz-adv-x="1148" vert-adv-y="2048"  />

      
      <glyph glyph-name="uni0440" unicode="&#x0440;" d="M78-344L287 846L270 1077L403 1108L414 977L547 1092L1028 1092L1165 926L1032 166L838 0L338 0L283 66L213-344L78-344M317 256L418 133L805 133L909 221L1022 870L950 958L578 958L416 821L317 256Z"  horiz-adv-x="1146" vert-adv-y="2048"  />

      
      <glyph glyph-name="uni0441" unicode="&#x0441;" d="M131 170L264 922L461 1092L989 1092L1128 922L1087 696L954 696L987 872L913 958L492 958L389 872L272 219L346 133L772 133L963 190L981 66L762 0L270 0L131 170Z"  horiz-adv-x="1052" vert-adv-y="2048"  />

      
      <glyph glyph-name="uni0442" unicode="&#x0442;" d="M139 0L287 846L270 1077L403 1108L414 977L547 1092L940 1092L1024 991L1141 1092L1581 1092L1720 922L1559 0L1425 0L1577 866L1501 958L1174 958L1067 868L915 0L782 0L934 866L858 958L578 958L416 821L272 0L139 0Z"  horiz-adv-x="1701" vert-adv-y="2048"  />

      
      <glyph glyph-name="uni0443" unicode="&#x0443;" d="M94-344L117-211L328-211L393-156L473 0L436 0L186 1061L322 1112L547 147L1038 1112L1157 1071L498-223L356-344L94-344Z"  horiz-adv-x="1009" vert-adv-y="2048"  />

      
      <glyph glyph-name="uni0444" unicode="&#x0444;" d="M131 166L264 926L459 1092L778 1092L834 1071L864 1245L969 1452L1085 1411L993 1231L967 1071L1026 1092L1346 1092L1483 926L1350 166L1155 0L836 0L780 18L752-150L647-356L528-315L621-135L647 18L588 0L268 0L131 166M274 223L348 133L600 133L672 156L809 934L745 958L494 958L387 868L274 223M805 156L868 133L1120 133L1227 223L1339 868L1266 958L1014 958L942 934L805 156Z"  horiz-adv-x="1464" vert-adv-y="2048"  />

      
      <glyph glyph-name="uni0445" unicode="&#x0445;" d="M12 59L455 545L180 1032L303 1112L557 662L971 1112L1065 1032L618 545L893 59L770-20L516 428L106-20L12 59Z"  horiz-adv-x="925" vert-adv-y="2048"  />

      
      <glyph glyph-name="uni0446" unicode="&#x0446;" d="M131 168L293 1092L426 1092L274 225L350 133L721 133L883 270L1026 1092L1159 1092L1004 199L1108 70L1047-287L913-287L967 16L885 115L752 0L270 0L131 168Z"  horiz-adv-x="1159" vert-adv-y="2048"  />

      
      <glyph glyph-name="uni0447" unicode="&#x0447;" d="M180 559L272 1092L406 1092L324 616L397 526L811 526L885 549L979 1092L1112 1092L922 0L788 0L860 410L799 393L315 393L180 559Z"  horiz-adv-x="1064" vert-adv-y="2048"  />

      
      <glyph glyph-name="uni0448" unicode="&#x0448;" d="M131 170L293 1092L426 1092L274 225L350 133L678 133L784 223L936 1092L1069 1092L918 225L993 133L1274 133L1436 270L1579 1092L1712 1092L1565 246L1581 14L1448-16L1438 115L1305 0L911 0L827 100L711 0L270 0L131 170Z"  horiz-adv-x="1701" vert-adv-y="2048"  />

      
      <glyph glyph-name="uni0449" unicode="&#x0449;" d="M131 170L293 1092L426 1092L274 225L350 133L678 133L784 223L936 1092L1069 1092L918 225L993 133L1274 133L1436 270L1579 1092L1712 1092L1556 199L1661 70L1599-287L1466-287L1520 16L1438 115L1305 0L911 0L827 100L711 0L270 0L131 170Z"  horiz-adv-x="1712" vert-adv-y="2048"  />

      
      <glyph glyph-name="uni044A" unicode="&#x044A;" d="M168 958L190 1092L621 1092L547 672L1112 672L1251 504L1192 168L995 0L430 0L319 133L465 958L168 958M463 188L508 133L963 133L1069 223L1108 449L1034 539L524 539L463 188Z"  horiz-adv-x="1245" vert-adv-y="2048"  />

      
      <glyph glyph-name="uni044B" unicode="&#x044B;" d="M125 133L293 1092L426 1092L352 672L918 672L1057 504L997 168L801 0L236 0L125 133M268 188L313 133L768 133L874 223L913 449L840 539L330 539L268 188M1143 0L1333 1092L1466 1092L1276 0L1143 0Z"  horiz-adv-x="1419" vert-adv-y="2048"  />

      
      <glyph glyph-name="uni044C" unicode="&#x044C;" d="M125 133L293 1092L426 1092L352 672L918 672L1057 504L997 168L801 0L236 0L125 133M268 188L313 133L768 133L874 223L913 449L840 539L330 539L268 188Z"  horiz-adv-x="1050" vert-adv-y="2048"  />

      
      <glyph glyph-name="uni044D" unicode="&#x044D;" d="M51 66L115 190L285 133L711 133L813 219L858 475L346 475L371 610L883 610L930 872L856 958L434 958L332 872L299 696L166 696L207 922L403 1092L932 1092L1071 922L938 170L741 0L250 0L51 66Z"  horiz-adv-x="1052" vert-adv-y="2048"  />

      
      <glyph glyph-name="uni044E" unicode="&#x044E;" d="M102 0L293 1092L426 1092L344 623L575 623L629 922L825 1092L1343 1092L1483 922L1350 170L1153 0L635 0L496 170L553 489L322 489L236 0L102 0M639 223L713 133L1120 133L1227 223L1339 868L1266 958L858 958L752 868L639 223Z"  horiz-adv-x="1464" vert-adv-y="2048"  />

      
      <glyph glyph-name="uni044F" unicode="&#x044F;" d="M57 96L190 162L438 430L293 430L156 594L213 928L408 1092L1106 1092L915 0L782 0L858 430L608 430L270 63L98-20L57 96M299 651L369 563L881 563L950 958L438 958L336 870L299 651Z"  horiz-adv-x="1058" vert-adv-y="2048"  />

      
      <glyph glyph-name="uni0451" unicode="&#x0451;" d="M131 168L264 924L461 1092L989 1092L1128 924L1075 623L879 457L315 457L274 223L348 133L772 133L963 190L981 66L762 0L270 0L131 168M338 590L846 590L952 680L985 868L911 958L494 958L387 868L338 590M483 1288L500 1374L557 1423L643 1423L684 1374L668 1288L610 1239L524 1239L483 1288M852 1288L868 1374L926 1423L1012 1423L1053 1374L1036 1288L979 1239L893 1239L852 1288Z"  horiz-adv-x="1073" vert-adv-y="2048"  />

      
      <glyph glyph-name="uni0452" unicode="&#x0452;" d="M154 0L342 1073L168 1073L190 1206L365 1206L369 1227L342 1407L473 1448L504 1241L498 1206L844 1206L821 1073L475 1073L438 862L514 928L1010 928L1149 760L1040 147L907-18L602-123L582 2L834 84L913 176L1006 707L934 795L549 795L403 672L287 0L154 0Z"  horiz-adv-x="1138" vert-adv-y="2048"  />

      
      <glyph glyph-name="uni0453" unicode="&#x0453;" d="M70 168L104 367L188 487L856 709L887 756L905 866L829 958L434 958L246 897L223 1022L442 1092L909 1092L1049 924L1014 723L928 600L262 379L231 334L213 225L289 133L682 133L874 193L893 66L676 0L209 0L70 168M586 1184L852 1532L1006 1532L719 1184L586 1184Z"  horiz-adv-x="968" vert-adv-y="2048"  />

      
      <glyph glyph-name="uni0454" unicode="&#x0454;" d="M131 170L264 922L461 1092L989 1092L1128 922L1087 696L954 696L987 872L913 958L492 958L389 872L342 610L854 610L829 475L317 475L272 219L346 133L772 133L963 190L981 66L762 0L270 0L131 170Z"  horiz-adv-x="1052" vert-adv-y="2048"  />

      
      <glyph glyph-name="uni0455" unicode="&#x0455;" d="M51 66L115 193L287 133L688 133L797 225L817 348L803 393L215 614L174 737L207 924L403 1092L879 1092L1073 1022L1010 897L842 958L438 958L330 866L313 770L328 723L915 502L956 381L920 168L723 0L248 0L51 66Z"  horiz-adv-x="976" vert-adv-y="2048"  />

      
      <glyph glyph-name="uni0456" unicode="&#x0456;" d="M141 0L297 887L268 1067L401 1108L432 901L274 0L141 0M340 1288L356 1374L414 1423L500 1423L541 1374L524 1288L467 1239L381 1239L340 1288Z"  horiz-adv-x="442" vert-adv-y="2048"  />

      
      <glyph glyph-name="uni0457" unicode="&#x0457;" d="M141 0L297 887L268 1067L401 1108L432 901L274 0L141 0M172 1288L188 1374L246 1423L332 1423L373 1374L356 1288L299 1239L213 1239L172 1288M508 1288L524 1374L582 1423L668 1423L709 1374L692 1288L635 1239L549 1239L508 1288Z"  horiz-adv-x="442" vert-adv-y="2048"  />

      
      <glyph glyph-name="uni0458" unicode="&#x0458;" d="M-205-240L45-158L125-66L293 887L264 1067L397 1108L428 901L252-94L119-260L-184-365L-205-240M336 1288L352 1374L410 1423L496 1423L537 1374L520 1288L463 1239L377 1239L336 1288Z"  horiz-adv-x="438" vert-adv-y="2048"  />

      
      <glyph glyph-name="uni0459" unicode="&#x0459;" d="M-2 109L137 150L244 242L483 1092L1118 1092L1044 672L1548 672L1688 504L1628 168L1432 0L928 0L817 133L963 958L582 958L360 172L201 35L14-20L-2 109M961 188L1006 133L1399 133L1505 223L1544 449L1470 539L1022 539L961 188Z"  horiz-adv-x="1681" vert-adv-y="2048"  />

      
      <glyph glyph-name="uni045A" unicode="&#x045A;" d="M141 0L297 887L268 1067L401 1108L432 901L389 653L926 653L1001 1092L1135 1092L1059 653L1563 653L1700 485L1645 168L1448 0L944 0L834 133L901 520L365 520L274 0L141 0M977 188L1022 133L1415 133L1522 223L1559 430L1483 520L1034 520L977 188Z"  horiz-adv-x="1697" vert-adv-y="2048"  />

      
      <glyph glyph-name="uni045B" unicode="&#x045B;" d="M154 0L342 1073L168 1073L190 1206L365 1206L369 1227L342 1407L473 1448L504 1241L498 1206L844 1206L821 1073L475 1073L440 872L516 938L1012 938L1151 770L1016 0L883 0L1008 717L936 805L551 805L406 682L287 0L154 0Z"  horiz-adv-x="1138" vert-adv-y="2048"  />

      
      <glyph glyph-name="uni045C" unicode="&#x045C;" d="M102 0L293 1092L426 1092L342 610L535 610L911 1026L1087 1112L1128 995L989 928L641 545L856 164L971 96L889-20L741 66L514 477L319 477L236 0L102 0M584 1112L850 1460L1004 1460L717 1112L584 1112Z"  horiz-adv-x="995" vert-adv-y="2048"  />

      
      <glyph glyph-name="uni045E" unicode="&#x045E;" d="M94-344L117-211L328-211L393-156L473 0L436 0L186 1061L322 1112L547 147L1038 1112L1157 1071L498-223L356-344L94-344M387 1346L420 1528L553 1528L530 1403L569 1356L911 1356L967 1403L989 1528L1122 1528L1090 1346L944 1223L492 1223L387 1346Z"  horiz-adv-x="1009" vert-adv-y="2048"  />

      
      <glyph glyph-name="uni045F" unicode="&#x045F;" d="M102 0L293 1092L426 1092L258 133L856 133L1024 1092L1157 1092L967 0L602 0L551-287L418-287L469 0L102 0Z"  horiz-adv-x="1110" vert-adv-y="2048"  />

      
      <glyph glyph-name="uni0490" unicode="&#x0490;" d="M143 0L395 1434L1145 1434L1178 1618L1313 1618L1255 1300L504 1300L276 0L143 0Z"  horiz-adv-x="1048" vert-adv-y="2048"  />

      
      <glyph glyph-name="uni0491" unicode="&#x0491;" d="M102 0L293 1092L915 1092L946 1255L1081 1255L1028 958L406 958L238 0L102 0Z"  horiz-adv-x="880" vert-adv-y="2048"  />

      
      <glyph glyph-name="uni2010" unicode="&#x2010;" d="M133 639L156 772L995 772L973 639L133 639Z"  horiz-adv-x="921" vert-adv-y="2048"  />

      
      <glyph glyph-name="uni2011" unicode="&#x2011;" d="M133 639L156 772L995 772L973 639L133 639Z"  horiz-adv-x="921" vert-adv-y="2048"  />

      
      <glyph glyph-name="uni2012" unicode="&#x2012;" d="M133 639L156 772L995 772L973 639L133 639Z"  horiz-adv-x="921" vert-adv-y="2048"  />

      
      <glyph glyph-name="uni2013" unicode="&#x2013;" d="M117 547L139 682L1135 682L1112 547L117 547Z"  horiz-adv-x="1077" vert-adv-y="2048"  />

      
      <glyph glyph-name="uni2014" unicode="&#x2014;" d="M117 547L139 682L1516 682L1493 547L117 547Z"  horiz-adv-x="1458" vert-adv-y="2048"  />

      
      <glyph glyph-name="uni2018" unicode="&#x2018;" d="M145 942L406 1434L498 1434L299 942L145 942Z"  horiz-adv-x="286" vert-adv-y="2048"  />

      
      <glyph glyph-name="uni2019" unicode="&#x2019;" d="M166 942L365 1434L518 1434L258 942L166 942Z"  horiz-adv-x="286" vert-adv-y="2048"  />

      
      <glyph glyph-name="uni201A" unicode="&#x201A;" d="M-63-369L133 123L287 123L27-369L-63-369Z"  horiz-adv-x="286" vert-adv-y="2048"  />

      
      <glyph glyph-name="uni201C" unicode="&#x201C;" d="M145 942L406 1434L498 1434L299 942L145 942M422 942L682 1434L774 1434L575 942L422 942Z"  horiz-adv-x="563" vert-adv-y="2048"  />

      
      <glyph glyph-name="uni201D" unicode="&#x201D;" d="M166 942L365 1434L518 1434L258 942L166 942M442 942L641 1434L795 1434L535 942L442 942Z"  horiz-adv-x="563" vert-adv-y="2048"  />

      
      <glyph glyph-name="uni201E" unicode="&#x201E;" d="M-63-369L133 123L287 123L27-369L-63-369M211-369L410 123L563 123L303-369L211-369Z"  horiz-adv-x="563" vert-adv-y="2048"  />

      
      <glyph glyph-name="uni2022" unicode="&#x2022;" d="M184 588L229 846L428 1014L686 1014L823 846L778 588L582 420L324 420L184 588Z"  horiz-adv-x="798" vert-adv-y="2048"  />

      
      <glyph glyph-name="uni2026" unicode="&#x2026;" d="M45 29L59 115L119 164L205 164L244 115L229 29L172-20L86-20L45 29M352 29L367 115L426 164L512 164L551 115L537 29L479-20L393-20L352 29M659 29L674 115L733 164L819 164L858 115L844 29L786-20L700-20L659 29Z"  horiz-adv-x="921" vert-adv-y="2048"  />

      
      <glyph glyph-name="uni2039" unicode="&#x2039;" d="M106 492L123 586L774 1071L844 971L266 539L692 106L586 6L106 492Z"  horiz-adv-x="714" vert-adv-y="2048"  />

      
      <glyph glyph-name="uni203A" unicode="&#x203A;" d="M18 106L596 539L170 971L276 1071L756 586L739 492L88 6L18 106Z"  horiz-adv-x="714" vert-adv-y="2048"  />

      
      <glyph glyph-name="uni20AC" unicode="&#x20AC;" d="M51 532L74 655L217 655L240 778L117 778L137 901L260 901L317 1223L565 1434L1137 1434L1311 1223L1270 993L1137 993L1167 1167L1057 1300L596 1300L440 1167L393 901L997 901L977 778L373 778L350 655L934 655L911 532L328 532L281 266L391 133L874 133L1057 289L1137 195L909 0L313 0L139 211L195 532L51 532Z"  horiz-adv-x="1185" vert-adv-y="2048"  />

      
      <glyph glyph-name="uni2122" unicode="&#x2122;" d="M207 1300L231 1434L856 1434L831 1300L586 1300L492 758L358 758L453 1300L207 1300M799 758L918 1434L1059 1434L1212 1096L1483 1434L1622 1434L1503 758L1370 758L1446 1188L1239 930L1124 930L1008 1188L932 758L799 758Z"  horiz-adv-x="1492" vert-adv-y="2048"  />

      
      <glyph glyph-name="uniE000" unicode="&#xE000;" d="M0 0L0 1116L1116 1116L1116 0L0 0Z"  horiz-adv-x="1116" vert-adv-y="2048"  />

      

  </font>
</defs>
</svg>
